<mxfile host="app.diagrams.net" modified="2022-12-27T09:16:11.765Z" agent="5.0 (X11; Linux x86_64) AppleWebKit/537.36 (KHTML, like Gecko) Chrome/103.0.0.0 Safari/537.36" version="20.7.4" etag="Q3z3Xq_WQEsRzcuDnXxK" type="github">
  <diagram id="0AWgNQjHKqxnpKHaU-Ke" name="第 1 页">
    <mxGraphModel dx="3401" dy="3505" grid="1" gridSize="10" guides="1" tooltips="1" connect="1" arrows="1" fold="1" page="1" pageScale="1" pageWidth="827" pageHeight="1169" math="0" shadow="0">
      <root>
        <mxCell id="0" />
        <mxCell id="1" parent="0" />
        <mxCell id="FKmK5cy7EwWSkl35_AoC-2" value="" style="shape=image;verticalLabelPosition=bottom;labelBackgroundColor=default;verticalAlign=top;aspect=fixed;imageAspect=0;image=data:image/png,iVBORw0KGgoAAAANSUhEUgAAB0YAAALgCAIAAACPrYOKAAAACXBIWXMAABJ0AAASdAHeZh94AAAgAElEQVR4nOzdf3xT5333/4/4JQEhUppQC0LxoT9ixVtBadegdO3tQ9sUpes9xB1WRNIWub1blK4L4ru7jejuLc66+8a0+w45dzfMtgzRuy1iJUPcXRfRbuOwrY3cbo2c3iGCNcnxQoIcQjkOASR+6f7DRhbGtmRb1pHs1/OhPzjSOdf5XEfY59LbR9ex5PN5AQAAAAAAAADUgxlmFwAAAAAAAAAAKBeRLgAAAAAAAADUDSJdAAAAAAAAAKgbRLoAAAAAAAAAUDeIdAEAAAAAAACgbhDpAgAAAAAAAEDdINIFAAAAAAAAgLpBpAsAAAAAAAAAdYNIFwAAAAAAAADqBpEuAAAAAAAAANQNIl0AAAAAAAAAqBtEugAAAAAAAABQN4h0AQAAAAAAAKBuEOkCAAAAAAAAQN0g0gUAAAAAAACAukGkCwAAAAAAAAB1g0gXAAAAAAAAAOoGkS4AAAAAAAAA1A0iXQAAAAAAAACoG0S6AAAAAAAAAFA3iHQBAAAAAAAAoG4Q6QIAAAAAAABA3SDSBQAAAAAAAIC6QaQLAAAAAAAAAHWDSBcAAAAAAAAA6gaRLgAAAAAAAADUDSJdAAAAAAAAAKgbRLoAAAAAAAAAUDeIdAEAAAAAAACgbhDpAgAAAAAAAEDdINIFAAAAAAAAgLpBpAsAAAAAAAAAdYNIFwAAAAAAAADqBpEuAAAAAAAAANQNIl0AAAAAAAAAqBtEugAAAAAAAABQN4h0AQAAAAAAAKBuEOkCAAAAAAAAQN0g0gUAAAAAAACAukGkCwAAAAAAAAB1g0gXAAAAAAAAAOrGLLMLAACg5lgsFrNLAAAAQIWFQqEdO3aYXQUAVABX6QIAAAAAgKkvn8+bXQIAVAZX6QIAMLyFCxc2NzebXQUAAAAm5OLFi08//bTZVQBAJRHpAgAwvA996EOxWMzsKgAAADAhmUxm0aJFwuRaAKYQJl4AAAAAAAAAgLpBpAsAAAAAAAAAdYNIFwAAAAAAAADqBpEuAAAAAAAAANQNIl0AAAAAAAAAqBtEugAAAAAAAABQN4h0AQAAAAAAAKBuEOkCAAAAAAAAQN0g0gUAAAAAAACAujHL7AIAAABqS/6VSP70wcLijHfskPnuq8+uGlxj/ooZ74jke6P53j2Dqy0/LOdSV1/YUnjG0rDR0hC4+kJIznUXrzZ0wxHav3HD0u0PW9gE2y/Z8RvaH6nj429fpIIHdrLbH88bNxntj/2Nq3z75R3YIe2b9cbxEz3Y/rjeOH6ia+0n2qw3rjZ/ouWte93vkv//i7Jkyf6rz6Ym3j4/0WNtv45/oqf34Ko2f6Kr8atY5OqLWyzz3RZHi1gVqUlEugAAACIiktPzWd1iV/PnUvk+rfB0/rJhESl+RiQvIvmsfv2Tkr9sXPeMvcUikj+Xkr4j1612/YYjtn/jhqXbH6awibZfquPDtD9Sx8fbvpTZfpkdn+z2x/PGTUL743jjKt2+jOs/hmlvHD/R17YSfqKL26/fn2iz3rja/Il+q9hvkpa7ROREvu9EBdrnJ3qs7dfxT/T0HlzV5k/05P8qFpH8K5G8iIhY7Krl9pDl1jVSY5h4AQAATHuXjavHW6/8ZNnAX/tr9U/xAAAAACbbdUFwn3b1qE9yumnVjICrdAEAwPR2LnWle5VcMfr/PeQSAAAAAADTy2WjeMnSsFGsSr5Pkze7LbdvNquoIYh0AQDANJbTr/zsruIn8r1RrtIFAAAApq38m6nBhZn2GW+PyGXj6rFWyemWc6kZd+w2r7RBlnw+b3YNAADUFovFIiLr16+PxWJm14JJl++NXj3eWvzMzHvOyBVDZjpklsOsqgAAQKVkMplFixaJSCgU2rFjh9nlAKgD+T4t/3o83xu13B6a0dh29eja/Ol4/0uWxZtnvCNibnnCXLoAAGCayulXfrJMzqUsDYHCX9ott66ZefdLMsshVoU8FwAAAJieLHZ1xjsiM+/WZ9weyr8SKeS5IpJ/tSPfGzWvtAFMvAAAAKaj/m9OXeleNeMdOywNgRkictmw3B4yuy4AAAAAtWGWQ0QsDlVm2uVK38CTM+1DJts1BZEuAACYdvK90YHboF0xrh5vnZHrsSx91OSaAAAAANSg+e6ZK7Qr3apc6RN7y8ymqFgVuWyY+60+Jl4AAADTztWex4oX85fOmFUJAAAAgFo33z3jV+Iz3r5j5nJNZjry//HYlZ8sk5xuYkVcpQsAAKaZnH7d8MvaOKOxzaxaAAAAANQ+i12V+e78fzx29URErhgicvVExMT7pHGVLgAAmGasysx7zsy4Y7fl1jUiMuP2EHdCAwAAAFDCFeNqT1t/nisi+dMHTayFSBcAAEwv/WMvS0NgRnN85j1nLA0BsysCAAAAUPOsithbBheHfPmvuoh0AQDA9HL1qO/K07dc+cmyq0fX5k/HuUQXAAAAQDksdrV4MZ/VzamjZufS7Tr15onzuXxe1im37tdPP9lzuvDS7694W7Nj7oYjxwvP3Gmf+wfut/1h6uXn+y4UntzbcsdR48JXu18uPHN/463rlFtv3LD67YvIjRtWv/0yOz5ktZEKK7Tf7Jh78+xZ9yu3Lpk3RwAAqDH5Pm3gXzk9n9PF2mhpMLMeAAAAAPXC4lAH/mFTxKZYbIpZldRWpHvUuPBkz+v79dNnL10Rkbtvu2mdcuuJ87muU2cL67xx6bKIFD+Tz+dF5Khx/ievv1nc2huXLhevtnLhTcNuaHr7/RtWv/0yOz5ktZEKK7Tf/9K9ix0yTzYcOe5ZuIB4FwBQu7hEFwAAAEB5LHZ1yIW6ZqmtiReOGud3//tr/Xku6lqzY+5R40LXqbMdR1/9T3/3846jJ9/gbQUAAAAAAEDdyvdpV/7ZUnhc7Wkzq5KauEr3B68aX029/P17mz96u+OrqZlnLw9kf0OuKkW9cNnnisgPXj1TeKbj6Kv79de/f2/zzbNnmlcXiqSiwYiWLX7G5nC53B6fX1VsIiJiaO2hqPgjYe/ELmDLJiPBzoy/vd3rvPHFdCzYnshe/5zN4XS5PF6/z8WVc0NV6k0BpjXLLEfxPQ1M/KoUULtKjxOkQmelUccJUrWhwmSeYSvThVIHajSMHwAAmILMj3S/2v3y7n9/TUT+MPXyH79Pab3jrY8fPWl2UZiQJfOtIvLDV4ziJ1vf1XDz7JlvXLpCqlsTMononn05q73B0f/BLJs1+vpyIlvCq3ck4iG3TbLp+J49WXfbhCPddHzPHsMVHvYTSCYR37Ond7CM4kJWbI5rEXWqffTIpmKRRFYNBjzl9ez69Sv1pgDT23z3zOWa2UUAta30OEEqdFYadZwgVRsqTOYZtjJdKHWgilcdOthg/AAAwFSUN9UTx3uXffdfC4+nX3uj7+Ll5Qee+dyPfvHE8d6nX3vD3PIwDn0XL798LpfP5+/7wXOFd/ZzP/pF/0sf+8FzvK014an1VpGVO08WPXXh5OFtLQ0ismLb8/l8/sJLTx84cPilCxPd05ndLdeavNHhjQ0iK3a8NGSTZ3auaRCRxs1PT3TvNefkzlEOR8n1K/WmoLT+U+T69evNLgSTIPvS1Z62wYdx2OyCgNpTepyQr9BZadRxQr5qQ4XJPMNWpgulDlSRGwYbjB+A/MmTA9eNhUIhs2sBUN+uGocv/5MUHlf0R82qxMy5dJOnzv5R98vFz3zpp/rNs2f+82+8+8/f/47PvOutnoULzKoN43bz7Jn9N0P7u3ubv9Nyx9233XT7vDl//D7ljUtXNmjHnu+7sOnHLxw1LphdJm5kc6rhWFuLSHc8oYvYFI/PV/TtyipyuIOdbS0iPcmkXuGms9nS60xsg/FvX8aqE3lTRm5+on0E6kw+qxdHunlDM7sioC4MGSfI1BoqjLsv4z6JVqwLkzl+YIgAAMBQA9O4XXuYOI2bmZGuZ+GCr/2asmDWwNfwF8ya+fvut4kIX8yfMjwLF8TUpr1qk4j057kicvbSlS/99CWzS8PwnIrTKmJkDBEjHvR4ArGMiIhkUxGf2+3rTBfWzCbbvW6PP6qLiGQSYZ9bcdgsFotNUQOdSWPY1sfA4XBYhz434l60sMcTiKVT0aDqdtosFofi9oYTmWuVJoIeTzCRSUf9Lttchy9eukERIxULqS6HzTJ3rsXmdPvaC82V6m82EfJ4gvFMOhb0OPu3V9RgLJ3tP6RqW1IkHfG5PcG4ISKS1eNhr1sZ2JXD5Q3F0gOfn25c/7o3RUSMVGdAdTltlv5Oh+J6tqxKyugjAAA3KBonSPFQocQ4QUwfKgy+aLNYbIrbF07oWlgdLLD8M2yp0+tEujCGozTS+GHYwYYpvQMAYIqa7565XCs8LA0BswoxLdLdr58+cf7iOuXWvWqTyz53wayZe9Wmjy5mfqcpaMm8OclTZ/vz3H7P913Yr582sSSMwEjEkjmxKi5FJJtJd3WlMv1DeJs7EHQbB0OBSP+HtWwyHNiqiRr2K5LuVF33bddsarB9585tfmd6z0OqJ6hN6KOaoSWSOWlSVeXaM6PtxUinuhJtPjUYF3egfccjPiVzaPt9bl9MFxHJZvSurmRn0BtMiLrG71VKN5iJBbwbOtJOf9vO3bt3BN1GYqvPN9D1Uv3NGulUlxbxq6G0O9y5d+/OzZ7skV0bfG0psSmqz+t2ijhcXn//xTKZmM+9dnvSpgYju3fu2Ox3Z7WODd5wMisiw6x/3ZtiaEGP56E9aae3befOHQGPJDvWur2RwsfpUSop1UcAAIZRPE6Q4qHCaOMEKXnqHF8tYxoqSCbud9+3PZF1B3fsbPe7M50+NRhLdqUHzqljOMOOfnqdQBfGcpRGHj8MM9gwp3cAAExVOT3/H48NPvo00yoxZbqHl8/l+qdYjTz3at/Fy30XLz935rwplaBqdjz3SmFq3eUHnnnieK/ZFU1vT623ijRt3H3gqX4HDuzd+ciaJruINGx86kz+2jxsRRO/nXlqY6NYV+54Pn/h6c1NYl2x7ZkL+fzJ3autYm/ZObjeyb1r7EUzuJWeS7dxzbadu6/ZuXPHtk2rm6zS0LLjmcKcb6Pv5cAaq4g0rNlbmPLv5IH1DSINGw9fyOfP7F4tItK0+fCZwR2P2uDJ3S3XNu739OYm+8DKpfu7d7VV+o/TgAtPbWwQaemfkPD66e3O7F1tFfv6pwYnt3t+24rrDtf16xe/Kc9vWyFiX7270OkLzzyyQsS6eu+ZMioZrY/I55lLd0qrndmvgNpVepyQHzpUGH6ckC916ixrLt2JDhUuHN7UINK0+elrq194ftsKq4zrDFviRD/eLoxpQFVi/HDDXLqT2TugTjCXLoBKqZ1PE+ZEur/7k5cG0734M9wva5r4wPefXX7gmR3PvdJ38bLZtUx7T62/4cuKIiL2lZv2Pj/w0WJopJvPnzm8qVGsK9evabJeG+uf2b3aKg0bD1/X+DOPNA3eU6V0pDt8IY8cHvzsUGIvB9ZYRZoeeab41Zd2rBBp2HR4INK1rt5dFOiWaPDM3tVWsa585OkbP72U0d+9q61iXbO3aHcv7VgpsrL/UA75lHXhzMmTZ4rvVlJ2pPv8thU33FLlzN41VrGuOXChdCWj9BH5fJ5Id2q7dOaqcbjwyGdfMrsgoPaUHifkbxwqDDNOyJc8dZYV6U50qHB4U4NYr08l+7PLcZxhS5zox9mFMQ6oRh8/jBbpVrx3QJ0g0gVQKbUT6c4afoAxyX746uBXiM5eurJk/rCDRkw1e9Wmm2fPvHn2zBPnLz6pn375XO4P3G8zu6hprWnTgWjAeW3J5lRcinO0O2c41PbopsSqXQftLTsTIZeISDqVzkk2FfH7OwfXy6YNkWw6I+Icqanryth8OBFSBrfOpBORYHi71+dMJcvai4iI3aO6ixtVPJ4G2ZXWDXGLiDhdruJpXUZv0OELB1doHdvvWdTZtNrrVb0+n0/t377M/joVpbxZZGwOp9PQU1oqlUomk0lNSx7rFVlRxpZ6Wheren2nHW6PSw7qaV3EVaKSUfoITHmzHBa7anYRQB2owDhBSp46lcEn9ajf154amAnB5u1MRdRrlUxsqJCRdK84/Z7iYYnDrSpyaLhulDjDOkXGcKIvKNGFMQ6oJm38MM7eAQCA6jMh0j1qXDh76Uph8SOLHUvmzal+Gai+JfPm7NdP7/733v55dRfMnkmkay6H2+PxlJW6XmMTsYlI1jCMrIhNJJvNithsNput6DOeze3d6HZ4yr2vsk1RFEUZXFYUV7QzmbhvX0zLhFxOKWsvNhmyO5vDJoN3ar5uy5IN2tRISvdHo52xmJboOLSvY2uwcU0kEQu6yu5vmZ3Xo341uK8nZ21YoXpVb7gzlGpf21HWPUiy2Rt7bbPZRAzjuu1HqGTkPppx53KgmvJ92tVnVxUWLUsfndHYZl45QO2qwDhBxjJUcLhUr0+5tlC85wkOFbKZrIht6EBh6BMFZZ1hx3q2LNGFMQ6oJnv8wFgAAIDaZ85Vuh9Z7DhxLpfuuyAinoULTKkBpvjBq0bhPmlnL105alxodsw1tySUz9BCgV2ZletXZ/a1BSLeZNhtcypOEfG3R4suPKkAm+JWZJ+hD1yXUmIvaRExdN0QGbymJKunM2J1O4e/yqSMsp2eQNgTCItkdS0aDob2hYJRn6ZWtL9GLBTcl3E/8lSszdt//xIxohGRcj6SOZxOyem6ft31TZm0LuJSyv34PXwfg2P69A4AwIBhxglS8pxbdPcvhyfY7il3Z2MZKhgxp1XSeiZbnFXqI32dqBJn2DF3YUwDKrPHDwAATGeW+e4Zyw8PLtoUsyqZUf1dNjvm/vn73/F39za/uO69f/uR5nXKrdWvAWYZEuC+cemyWZVgzIxEKLDLaGmPxWKdG53dbYFIKisu1dMo3dFYumjFTKfXYVOC2sT3eO1ykTL2kkt2RvWiV6ORRM7q8Y5wqfCoDWYTAcWp+OMDHzJtihpsD7klp6f1CvdXT6Vz4vYHr30eE8mmU/poWwxyez126bqukmyiM94rTeVcUTVaHwEAGIdhxwlS1kl8Ajsta6jg8Khu6Ut0Jgbz46wWjfcO3+bEzrDj7MKYjpJ54wcAANA/jVvhIVbFrEJMiHSTp852HD3Z/zh76crNs2dWvwaYZcm86+ZNfqNoCg7UNiMeDOwxWtqjQUUc3kj/h7W2VNYTDrdYu7eqvkginclmjXQ85A0dyrqCQXUiu3M4HNeuvBURKWMvua6wNxBN6oahJ6MBNXQk1+AL+0f6cDJagza3RzF64uFgNKkb2Ww2k4yGIylp8HhdZVVSmpHp/wTqdClWScU6k4aIiJFOhH2+jh4RI2MMu34xmxoONkl3my8QTepG1kgn2r2BPb321eGQe+i6Nxq1jwAAjNVI4wSp0KnzRmMZKiiB8PqGvoNBX3sibWQNXYv4A3HDKjdOxyATPcOOtwtjOUpljR+GGzxUtXcAAExN+T7tyj9bCo+rPW3mlVJ1O557Zdl3/7XwqH4BMNHL53I7nnul8Hj6tTfMrmi6emq9dfAeysO67jbWJ/euaRBry86XCi+feWpjg1hXPPLMhfyZp3esLr6Vs33FpgPFt6Ae5U7Whzc2XHev7EFPb2oUsTY98kyhnZH3cmCNVRrWb9vWMvi6tXH97oFbcp/ZvVqkqKEyGsy/tHtNY/FfH6wNLduePlPGhgO3im7cXLy74ltFXzi8qUFExGpfvftkPv/8zoGmrFYRsa/cvHfvpiYREfvGp/I3rj/k3uInn9q80l5UZeOanc+cKbeSUfuIfP9RWb9+vdmFYBK8+czl7pbC42pmt9kFAbWn9DghXzxUGHWckB/11DnqOCFfqaFCPn/mmZ1F5z17y7bdm1cUdbH8M2yJ0+sEujCGAdXo44chg43J7R1QJ06ePNn/Pz4UCpldC4D6dtU4fPmfpPC4oj9qViWW/LUPrlUTOfrq40dPFhZfXPfeKhcAoOKymXQqlUpnbE6XW/Uok3RXjRH2EvfZ1iYDhzOdHj2VTKUyNpfb7XaNelPuMso20loypWeyNqfidqsuZ9kbltxnMpFIGTaX6lMVm0hWT2rJdMamuD0et9MmkkkltFTW5fW5ncOtf0NzqWQyrWcdLrfH7XKM7ciP2sdpzmKxiMj69etjsZjZtQDAVGDqUOHai6lkMp2xuVTV7UwFnfdEPQeMuG+EUiZ0hh2v8o/SqOOHEoMHMal3gIkymcyiRYtEJBQK7dixw+xyANSx2rnZMpEuquqoceGr3S8XFu9vvJXJlDFhhUhXNbsSTB1EulPZudTVF7YUliwNGy0NAfOqATD5jLjfHdL9seTg7deSIdc9HY4dLyUre4NXADWKSBdApdROpDvLlL1i2nrj0uWuU2cLiysX3mRiMQCAaSh/2cj3aYPL9haLabUAqAqHx+/Jrt3u90pbyKtIJh3vbNt1rGH9gYBidmkAAKC+WGY5xN4yuGhTzKrEhEh3nXKbZ+GC6u+31ly6JLNnm10EAAAAMMU5fVFtrzPU1hm8b3tOrPZGl7r5QKTd5zC7MAAAUG/mu2cu18wuQsSUSHfJvDlL5s2p/n6rLBbb/8QT3/z7v//eSCt8/vO/vWvXN6pZEjBF+WKZM1kbn8oAAMAIbC5/JOGPiGSzWZuNqWMBAMA41cw0biZEutNhLt3vfvfApz/94Be/+NinP/3/DXkpm72wffuXX375F1evXjWlNmDqsTm4rQcAACgDeS4AAJiA2pnGjbl0K++73z3w4IP+tradn/jEZ4a8dO7cmxs3rp4zZ05T07tttrmmlGcuz8IFUzLEBwDUC4tdnfnBat8bFgAAAAAqiEi3wr773QMPPPCJxx7bNVKee/Fi9pvf/OHnP/+fTSnPdG9cuvK8caGwePv8aTELBwCghlw25Fz34KKtUayKacUAAAAAwNgR6VZSf577pS99ffQ81+F4iynl1YKjxvkHjhwvLD7cvCjUvNjEegAA003+XOrqs6sKi5alj85obDOvHAAAAAAYM1Nuj2a9+7abqr/fyVbIcz/zmdCQl8hzAQAAAAAAgLpWO9O4mRDprlNuXafcWv39TiryXAAAAAAAAGAqq5lp3EyIdJOnznaderOwuLl5UfVrqKxR8ty+vjOf/ezHyXMBAAAAAACAulY707iZE+k+fvRkYbHeI93R89wHH/zQjBkzyHMLlsy3Plz0jnsWLjCxGADANGSxKZaljw4uOlTzagEAAACA8eD2aBNCnjtWS+bN4X5oAAAzWRXuhwYAAACgrhHpjh957jgkT5194MjxwuLDzYtIeAEA1ZTv02rkq1IAAAAAMD5EuuNEngsAAAAAAABMH7UzjZsJkW6oeXG9X5hJngsAAAAAAABMLzUzjZsJke6J8xdfOXexsLhy4U3Vr2EiyHMBAAAAAACA6aZ2pnEzIdLdr7/++NGThcUX1723+jWMG3nuBN08e9bdtw2G+EvmWU0sBgAwDVlmOcTeMrhoU8yrBQAAAADGg7l0x2D0PPeTnyTPLa3ZMTemNpldBQBgGpvvnrlcM7sIAAAAABg/It1ylcxzLRby3NJOnL/4pH66sLhy4U2ehQtMrAcAMO3k9HzvnsFFe4vFrppWDAAAAACMHZFuWchzK+XEuVzH0VcLiw83LyLSBQBUUz6rX+1pKyxalj5KpAsAAACgHLUzjZsJka5n4QJprv5ux488F0AFvXJBbp9rdhEAAKAmXJWLhszhcwQAAHWiZqZxMyfSraMLM8lzgdr3o39NfTH8+6l/+FuzCynXK6+8snjxYrOrAABgatryxc/842Ht2aMvmV1IWe5fs3p/PGF2FQAAoDw1M42bCZHufv30kz2Ds6nubbmj+jWUiTwXqH0//tfURz+86lf+k/dL3zlsdi0l/N8jiad2bRcRi8Vidi0AAExNrZ9ad+D/JDrbf9v51lvMrmU0b567sOXRvzj52hlGBQAA1JHamcbNhEj3xPlc16mz1d/vWJHnToZmx7zvFIX4S+ZbTSwGU8CP/zV174dXue9d85mvR82upYQf7Y8+tWv7b3zh977/Z//D7FqAac0y3z1j+eBfgEyc/QpAxfXnudr+dvevvt3sWkZj9L25at3W+fNsq359+Zw5s80uBwAA1J8ZZhdQo8hzJ49FLIWH2bWgvj39b/WU5+7+cmvr13a/e9XHzK4FmPZmOSx2tfAQq2J2QQAqo77y3Hw+rz35tTmzuVs1AAAYD8YQwyDPnTxHjfMPHDleWHy4eVGomRlFMR5P/1vqIx+qszz319cFfvFvPza7HGC6y/dpV59dVVi0LH10RmObeeUAqIw6y3Mlrz35NYd9ntnlAACAekWkOxR5LlD76inPfXIwzzW7FgAApqb6y3P3byfPBQCgHtXONG4mRLqh5sU1e2EmeS5Q++osz/0SeS4AAJOoPvPc+WaXAwAAxqlG5hE1IdJNnjrbderNwuLm5kXVr2FYu3d/8/Of/yx5LlDLkuS5AADgmtZP/pcD3/tB3eS5+bz2JHkuAAB1LH8uVSPTuJkT6T5+9GRhsUYi3d27v/nZzwbC4T8hz51US+ZbHy56xz0LF5hYDOoOeS6AibPYFMvSRwcXHap5tQCYkNYH1x742x+S5wIAgGmIuXRFaizPfeaZZ7/5zdhPf1r6HkoXL168ePFyLPa/Xa6mKhRWEUvmzanZaTdQ4wp5bit5LoCJsCrcDw2YAuopz/2t/vuhkecCAICKIdItnefmctm//usfVSfP/elPf3bvvR9pbLzDarWNvualSxeff/6ZXC579uzZKhRWKUeNC1/tfrmweH/jreuUW02sB/WCPBdAxZxLXX1hS2HJ0rDR0hAwrxoA4/Ho1t+OficuInd99HfMrqU051tvef7ILvJcAABQQdM90i0nz/32tw9XLc/96Efvfec7f+WJJ56aP/+mUdY8dSrz4IOrHI7bentPWCw1MStzmd64dCl75VUAACAASURBVLnr1GAGvXLhaN0E+nX9jDwXQMXkLxv5Pm1w2d5ST+dRACIiMtf+tsXO2779jd81u5DSwv8z+itNjeS5AABMDbUzjZsJke465bYamUG1zDx34UJnFYrpz3Pf8Y7mMvPcXC7b0RHz+z9QhdoAE3X9LPXh+spzv7771+8PmF0LAABT3Ly5NvX9y82uorS3OGrigw8AAKiMmpnGzYRId8m8OUvmzan+fof4q7/65n/9r3Wc537724fr6/pcYBwG8tyPkOcCAAAAAACz1cw0biZEupGjrz5+9GRh8cV1761+DVMgz12yRHnllZ4qlAeYhTwXAAAAAADUjtqZxm06zqU7NfLcKtQ2GTwLF5gS4qPu/IQ8F8DksNjVmR/Mm10FAAAAAIzftIt0yXPN9calK88bFwqLt8+viVk4UGt+8rPUh1Yxfy6AyXHZkHPdg4u2RrEqphUDAAAAAGM3vSLdmspzT58+Pd3yXBE5apx/4MjxwuLDzYtCzYtNrAc1iDwXwKTKn0tdfXZVYdGy9NEaub8BAAAAAJTJlNujWe++bbQEc5L057mPPDJMnvv6672trd5q5rkXL1783vcONDUtn1Z5LlASeS4AAAAAAKhNtTONmwmR7jrl1nXKrVXeaSHP/exnh8lzN2xosVgsVctz/+///dlLLx1btqyJPBco9lPyXAAAAAAAULNqZho3EyLd/frpJ3tOFxb3ttwx2XustTw3ELj3bW975+/93k7yXKDgdN/Zu997l4j86Mk9P3pyj9nllNb6NfJcAAAAAACmkdqZxs2ESPfE+VzXqbNV210N5rlvf3vz5z73B3Pnzhtlzama5zY75n2nKMRfMt9qYjGoKRevioj81tavK+/+NbNrKeGFZ57+m69/5e7/7De7EADjYbEplqWPDi46VPNqAQAAAIDxmOK3R+vPc7ds+Z81lef+6Z8+lU53j7LmVM1zReTm2TM9CxeYXQVq0U2zRESWuJY3eVSTSykld/6ciMy22swuBMC4WBXuhwYAAACgrk3lSLc/z/3CF/7goYfCQ14q5Lnf+pYJee68eaXnWzh71vjud5+eYnmuiCRPnX3gyPHC4sPNi0LNi02sBwAw3eT7tBr5qhRGkNWTiXgslkjpmUwmk8kYWZvD6XQ6FcWt+nw+n9flMLtEAAAAwFxTNtIt5LmhUNuQl4rz3Le+tbbyXMP4ZX+e+61vTbXrcwEAAEaTTcfbwuHOg8f6hryQ6+3p6+051t116OCura3WxpZAW3t7wEOyCwAAgOqqnWncTIh0Q82LJ/vCzBrMcxcvVsrJcz/96Xv789x3vMNVhdoAAABqgJHqDAXCe7oHwlx700pV9Xk9itPpdDokaxiZTDqpaUlN6+rJ9RzZ1XpPtH1NW2dnWK3GYA4AAADoVzPTuJlye7SLr5y7WFhcuXC0lHMcajPP7ez8YTl57qlTr5LnAgCAaSSbjgZ8wX3HciLSsHJ9KNwW9A03t4I/EBbJ6lo00t7eeajn2MGtq5KJbfF4mMt1AQAAUB21M42bCZHufv31x4+eLCy+uO69FWy8pvLcX/wiXchz7fa3jLLm9Mlzb5496+7bBqPtJfOsJhYDAJiGLLMcYm8ZXLQp5tUCESMZ9nq3d/WJ2Fds7Ix1+l2j33vSpqjBiBoIxdsCwe1Heo9sVd2pWDLm42JdAAAATCdTai7dJ5745uc+V0N57qc+tYo8d4hmx9yY2mR2FQCAaWy+e+Zyzewi0E+P+vvzXJFGX3ukVJ5bYFN8be3JhLq9O5fr2ef3Klqy3VPmtgAAAED9mzqRbg3muQsXLibPHeLE+YtP6qcLiysX3uRZuMDEegAA005Oz/fuGVy0t1jsqmnFTGvZZMgbPNQnYrVac7mePT6PLa51essZqRnJdq93e3dOxGq35vq6t/v87lTcz6W6AAAAmCamSKRLnlsvTpzLdRx9tbD4cPMiIl0AQDXls/rVnrbComXpo0S65khFgh3HcmJv2ZmMuTq93o7uY7t8ajamRUvMojA4V0Pj+r1axBZ2r93XezAUTnijXmbVBQAAwCSqnWncTIh0PQsXSHMlG6zTPPfs2b5Pf/pT0yrPBQAAEBGRTDTc3i1ibWmPBl1OiWiazevd3nVsz1pPdq8W8ysjbGdoYdW7vTsn1qaNA+lvZ3S9dt++3j2h9lC63V3NTgAAAGC6qZlp3MyJdCt4YWad5rlvvvnGN77xlV/+MkOeCwAApp1ke9uhPpHGYHtAERERh6c9kXB4vVu7evZtUEWGTXUNLaR6O7pzYm3aNDhHg8Pb3tYSf+jIsc62eDju40JdAAAATJqamcZtRvV3uV8/veHI8cJjIk3VaZ7b1/fL//W/tr7++knyXExthmGYXQIAYNLpuj7WTbRorEfEujIcKrqpmcMT1rQdLXaRnn0bPL5oOnvdNplE0NOf567YHE9eN+euEgj77CJ9ic4EJ546xZgBAADUhf5p3AqPvKGZVYkJke6J87muU2cLj3G3U7957qZN954+nXnssb+chnlus2Ped1ruKDzWKbeZXREmUSQSWbVqlaZpZhcCAIMs890zlh8efDgDZldU96LR6LJly8by2z6V0HpFxBPwKde/YHOHEsmdqxtEeg+2qr7OQqqbSQRV365jObGu2JzQIkPnzLWpAa9dJJeMa9fnwKgXjBkAAADGxIRItyLqOs89derV3/3dP1my5O1VqK0GWcRSeJhdCyadpmmrVq1atWrVnj17Sq8NAFXBmajidF1ftWrVXXfdtWfPntKXWxqp5DERafKow4zTbK5gXNu9ukGk99BDHm8klZVMPNCf59pXPqJpEXWYqRVsHq/HKtKXSqYr0R+YgTEDgIor/GK5//77+5/Zv39//zOBQMDU0gBgouoy0o1EvlHXee5f/uXhRYsaq1BbDTpqnN9w5FjhsV9/3eyKUA2apgUCgVtuuWXLli2pVMrscgBMa/lzqSvPqoXH1UzU7IqmjlQqFQgEli1bVuK3fTqli4jV5VGGf93mCiSSu9c0ivQd2aK63Z61e47lxL5yWyLR7hlhqlyHy+UUET2tc5lufWPMAKCCVFV96aWXNE378Y9/3P/MiRMnNE3TNM3n85lbGwBMkAm3R1syz3r3bTeNe/NI5BtbtvzOb//2o7WQ577wwnjy3GXLXGfO/KgK5dW+xx57bMtf/7nZVaBKDMOIRCKRSERRFJ/P5/P5WlpazC7KHIsXLza7BJRl3759+/btM7sKVFjLXfIPHYOLjz322B/ufsy8cqag0r/ts4YhIg6HwzZ8CyIiSiCu2fzqhn09x7r7ROwtO7REyD3KBg6nQ6Qnd3DtXC69ngIYMwxr+fLlP//5z6u803379n3iE5+o8k6BCmpra2ttbR3yZEtLC5EugPHpn8ZtcNGmmFWJCVfprlNujalNhceYtq21PPeTnxxPnluF2oBaput6JBJRVVVVVWbNA4CpqvDb3u12x+PxsW6ezWaNwStus5ksl99OR4wZAExQIBBobBz6HdlQKGRKMQCmhhqZxs2Eq3STp852nXqzsLi5eVGZG5LnTj2KojhU1ewqMFl0Xb/xNuh2u913jRlF1YT3v//9c+bMMbsKEZGzZ8/+4he/GOnVCxcuXLlypZr11JpZs2bZbKNcFYhJcfny5XPnzonInXfe2dDQUPH2VywzRAa/za0oiqoqFd/LtDLKb3tVVX0+n8Nx/WwJDodDpM8wMlmREX7CsqlOn/ehQ70iDStX2lJdPV3bVTWbGH4iXRERMTKGiMy47Vc/8Ku31eXEYtMcY4ZyvO9973vLW0b73FFBr7/++nPPPSciFgsXvqPuhUKhLVu2FBYbGxv5rVID0tFgu5YVp6+tfejdUqeTdDTYnlLDEf+NWVE6FmxPDPmDts3hdLk8Xr/PNdKAaPoytPZQVPyR8NC76FZc/lzq6rOrCouWpY/OaGyb5H0Oz5xI9/GjJwuLZUa65LlTw5L51oeL3nFPyxc9C7eaWA8mVVtb22OPDX6duaWlJRQKMX4Skf379y9aVO5fs4Dp5vvf//7HP/5xEfnKV77yyU9+svI7yOnF8+cGNqutf6BWfi/TyY2/7QOBwGi3nVHcikhPLp1Ki989zOvZVMSrbjnSJ9K4ZrcWD9gSQdW361h3h1fNxhOd3uEGe0Y6lRGRd332fx9pH65N1Lgx/y+alp544omq7Ssej69du1ZE8vl81XYKTJJAIFAc6fK7pSYkO9t27ekRkZQr4AvXaVaSTcUiiawaDIw01X9peiK2R5PAcJFuJhHfs6fXam8ozFSVzRp9fTmRLeEVm+Oj/J27Xo31eF6/fjYd37Mn626b/Ei3dtTHVQx1nee+/jp57qAl8+aEmhcXHp6FC8yuCJPObrdv3ry5/74E5LkAzGdVZjS2FR4Wu2p2QVPHxo0b+3/bl/i07HB7mkTkmJbUb3zRSLarA3nu+r1aPKCIOL2dycTmFVbJde/yqYFE5satsloilROxu1UGXPWseMxA5gKgUhwOx8aNGwuL/HqpAVktGuuRxhUr7NIdjafNLme8jGTn1q0RbZiBScWsaE9lCgwjmz/zzM41DX3dHYG25CTu1hxjPZ7Xr+/wRg4ciPiqEQvWjDqIdOs9z/2LvyDPHXTUuLDhyPHCY79+2uyKMLk2b97cPwueoihm1wIAIiJyLnX12VWFR743anZBU0F/mBuNRsv7be/2qY0i0hWN69e/YCTDXu/Wrj6xNq4/oMX8hcYcakRLPLLCKrlje3yewA3bJWKJPhGr6vMwV0rd2rhxI2MGAJOkcGXJmjVr+CVjvmwyGu+VFcHOdp9djkWjqdKbVGzXE9q4Bub1d7iDnW0tIj3J4f4yPlFj6+FEj8cYti9jVZvi8flUZVwjwZGbr4X3fGS1HumS504xb1y63HXqbOFx4nzO7Iowidra2iKRyNApFAHAVPnLRr5PG3xkdbMrqnttbW1lh7kDPEF/k4h0Rdq1wYGyoYVUdXtXn1ibNsaSsaET6znUdk3bttIuuZ49a1V/TB98KR1tj/eJ2H0BH6ecOtX/v4gxA4BJ4vP57Ha7FGW7MFFW64z3yoqA36P6fXY5FivOdDOxgMcTiBdfqZnu9Lk9ocKQIZMI+9yKzWKxKW5fOKFrYdXjj+oDbSdCHk8wntbafR7FYbHYnC5vKJGRjNbudTltlrkWm6KGiv823N+cw2axWGyKGuhMGkWV9reWSceCHqfNMneuxaaowVg6K2LEgx61LSmSjvjcnmDcKN2aiGT1WMjrctosFpvTpQajQ14uj8PhsA59bsT9amGPJxBLp6JB1e20WSwOxe0NF3/jKZsIejzBRCYd9btscx2+eMmOGKlYSHU5+o+H0+1rv+4LVJU8nlk9Hva6lYFdOVzeUCw98N/gxvWNeNDjCcQyg2V2BlSX02bp73QormfLqqR0Hy02xbL00cGHQy37vaswEyLddcpt32m5o/AYZU3yXAAAgCnIHWpbYxfpiYY7+79tmUkEVW9Hd06sTZviWnT4b805PGFN29ZiF+nZt0H1RfuH5kY83NaVE+uKcJuPa3QBAMPrD3OJdGtANhFN9FlXBn2K2FS/r0F64tHBSQSymVRXV/q6794b6VR3Su9/KhP3u+/bnsi6gzt2tvvdmU6fGowlu9KZgSwua6RTXfGQ1x+z+do69+7wOzOHOnwel8cXcwTao3t3bHQZRzoCoVh/0JjuVF33bddsarB9585tfmd6z0OqJ6hdSyGzRjrVpUX8aijtDnfu3btzsyd7ZNcGX1tKbIrq87qdIg6X1z9wcWiJ1iQd8bo3dGhZV+CRHe0BTzbe6g0m+sZ6/AwtkcxJU9H9fUfbr5FOdSXafGowLu5A+45HfErm0Pb73L7C38azGb2rK9kZ9AYToq7xe5USDWZiAe+GjrTT37Zz9+4dQbeR2OrzRdKlKxnz8czEfO6125M2NRjZvXPHZr87q3Vs8IaTWREZZv1sJt3VlRr4j2BoQY/noT1pp7dt584dAY8kO9a6vZHCHB+jVFKqj1JD07iZcHu0JfPmLJlX+lbv5LkAAABTlNPfHm5PbO3uCgfa1Zi70+vbdSwn1hWbRrr/2QCbO5zQbF7vliM9B1s9vqzW6QgHD/aJNAYiIQZeAICR+Hy+VCrFtwHMZ8SjiT6rJ+hTRMSm+r0Ne/bEo8mIx1N626zWFtzX27T56VTEYxORYDDg8ri39sj1b2tvVn1Ki3odIuJ3Z1N3bu02PE+lY0VPJLW0+D2ZaCh0RFp2prSgIv3NeX2uDbtCnaHU4C3bjiWzO1LJ/lGG36cYyn17ksmMLegPh41ExyHDGwyHXSJSqjUjFm470te06XCys//GZqGg6nW3HpLR/iBtaLFOh3NgjWzWMFKJaPSQtOyItV27HWzpXvQeM9bsTcX9ThGRUMjnd6/dF2rTfFH12q67D6Y3H9YHbrg2aoOOROfB3oaNhxOd/RsHPOLyRuOaHnIplT2ehhbV+uzrn9KiXpuISDAUdLnv3KppunhcYnPfcPyLDlu6M7TrmG317lQi4ByoRPHctT0cigUSfsfolYhbRumjiIicS119YfCOi5aGjZaGwChv4uQx4SrdyNFX377/3wqP4dchz51k3LoWAACYyRXqDK2wSq5rq8d1X3+euzmhjZrn9rO5Qwlt5+oGkd5DD7ldgYO9Io0bI20ql+gCAEbkdrtVVTW7CoiRiCb6rGpg4As5NtXvbZCeeFQrZ87SZCzea20JhQtT59tcwbB6wywEdm/Aey23UxTFKnY1oBaecClWEcmKGImYlmvwtfXnjyIi4vS3BZukO158iy6rNxQoxDs2l1sRyQ4zw2qp1rJaLNFnbQm3FSoRxd/mbxy9xz0Htz7Ues1DD23ZuuvQMdvKQJvffe0QlNOLpkCbvzDAcvrawyukNxErur+adfVgXaM3aLPZrGKkE6lrbXsiacPQgkqlj6c4fDH9pD6Q545NOh7rlsZAW6DQaZs7HF5jzWmx4v9nI1UySh9FpJamcTPhKt2Svvzlr3z969v8/oc+9rH7jx//efFLZ86cDof/6+zZs2szzw0Gq5rnnjnzusfj3bTp4dmzZ49pw1wue/Xq1UOH/o/TWe2bAXoWLnhx3XurvFMAAAosdnXmB/nDZi2wedrj0bRnw8HenIg0boxrEbXMa6dsrmBcM1T31q5cLif2ldvindPrBscAMLX9j9379/7FNyre7IVzb/79+9UKNnjl8uVzbxjf3hP94Mpfq2CzU1omHtVy4shqbaGBCXSzGZtITzyajKil/jqbSad7xen3FJ/zHW5VkUPXr3fDxdgOp6PQ9OA+0ql0TrKpiN/fObhqNm2IZNMZkWt7cSpKOeOTUq3paT0nLu91xdvcqtu6K3lDW4OaNh9OhJTB9jLpRCQY3u71Oa9dXlpivyIido/qLm5U8XgaZFdaN+Ta5c1Ol6vQx9EbdPjCwRVax/Z7FnU2rfZ6Va/P51P7N67s8RSxOZxOQ09pqVQqmUwmNS15rFdkRRlb6mldrOr1nXa4PS45qKd1kWt53UiVjNLHGlNzke6JE6eefPJAY+Mdr7768vbtXxnyai6XtVikZvPcU6eql+e+/nrvli0PzJ274AMf+KjVWnoii4I33jD273/i/Pk3h/07yGQ7cf7ik/rpwuLKhTd5Fi6ofhkAgOnrsiHnugcXbY1iVUwrZrpT/LGE7lW3HumTnlgo4I5GQ55yBszZdCwUaO/KiYi1aVMsHnZzhS4ATBUf29Cq/e3fqJ98aLa1pn+5X8pl/+W7u8+efu3MmV+aXUv96E90rdl0IjY4M2nWKtKbiGpZtcQVmQOXUF7/pG3oE2W7dkXmdS3Y3N6NbofnujbL2kF5rQ0ptmTxNkW57g60iuKKdiYT9+2LaZmQy1nefm1De2Bz2ESkKBIq3rhEgzY1ktL90WhnLKYlOg7t69gabFwTScSCrsoeTxE96leD+3py1oYVqlf1hjtDqfa1HWXlWNnsjb222WwihnHd9iNUMnIfa+x3Us1Fujab5V3veucnPvHbTuftN74aj+/9wAfuJc/tn31i0aJla9d+ftWqDzsc9jI3PHGi58EHW9797pVdXf9gsVgmtcjhCziX6zj6amHx4eZFRLoAgGrKn0tdfXZVYdGy9NEZjW3mlTPt2dxhLeUK+vy7uo8d3HKPEl0TDIVDfo9zhCGzkY53trdH9nT1iog0rtkZjwXJcwFgyvjYhlbt+we+FDuytNldem3znH/D+PoDq26+reHs6dfMrqWe6LHokZy1ZXdaCxSlOlktoKzaE49qWe+wma5hDNxey+F0WiWtZ7LFWZxefAXomDgVp4j426NFl8GOX6nWnE6nVVIpPStKUfG6nhvrjmyKW5F9hj7Q7RL7TYuIoRddkCsiWT2dEavbOfyf0cs4LE5PIOwJhEWyuhYNB0P7QsGoT1MrejyNWCi4L+N+5KlYm3fgiBnRiEg5ka7D6ZScrusiRZVk0rqISyn3v8rwfQzW1rfCTJhLd8k869233VR4DHk1n8+LyNKl77jjjnff+Lj5ZodINb4sOdY897XXqp3n3n77svb2vbNnj+H63BdeOPbggy2/8ivv+2//7Y8mrzwAAICxUHydydTeTS0NVunrPri99Z5FDsXt9YfaO6OxeDyRiMdj0c5IOOjzKI5b7ly7dU9Xr4h9xfqdT6fi5LkAMHUM5Ll7tdrPc//4gVWSz29+4vsiYsKlUvVKj0e7ZHAe3WtsnoCvQfoS0URWRMRWFOKKSFaLJ/r6/+nwqG7pS3Qmil+NxnvHWY5L9TRKd7ToemGRTKfXYVOCWuVbc3hUl/TGI/HB4iXV2dk1nsql6HLTMnqRS3ZG9aJXo5FEzurxeoYfQ43aYDYRUJyK/1onbIoabA+5Jaen9QofTz2VzonbH/QWEvBsOqWPtsUgt9djl67rKskmOuO90uTxlM5kR+ujiFybxq3wMPHqEBMi3XXKrTG1qfCofgEljSPP/cu/rHae+yd/csA6lu+hFPLcxx/fO3NmzV2dDQAApjGby9+p6enDOzaubLCK5Hq6D+3r2PpQ64a1a++7b+3aDa0Pbdm+62BXT5+I1b5izSMHntdTsWBZkzQAAOpCfeW5+Xz+S3u1eTdzIhqLdCzaLVZvwDf0sNk8/v5MN270X4l7rLMtms6KiJGKBgIx49oN0JRAeH1D38Ggrz2RNrKGrkX8gbhhlRunYyiLJxxusXZvVX2RRDqTzRrpeMgbOpR1BYNq+Y0YmYFwtVRrrkB4jb3vYNAbiqUyhqEnO/2+iG694eZuJTkcjmtX3pbZi1xX2BuIJnXD0JPRgBo6kmvwhf0jhZujNWhzexSjJx4ORpO6kc1mM8loOJKSBo/XVeHj6XQpVknFOpOGiIiRToR9vo4eESNjDLt+MZsaDjZJd5svEE3qRtZIJ9q9gT299tXhUBm/XUbtY//x1PP/8djgo08rv3uVZUKku18/veHI8cKj+gWMbgrnue95zwcff3zvrFnkuQAAoPbYFDUUTWaMk888tXvbpvWrW1auaGpsaLA3NDatWNmyes3GR3YeePqkYaTi7b6avEcFAGCcyHOng3Q02i12b8B744GzqQFfo/QlYgnD4W+PrG7o2dd651ybzXLLXaFMMNruubaiw9eZ2LnGltx63523zL1l2ao2IxgJusY9oa4SjGs7VsvBLffduWju3FvuXNuhuzbFEuEy/xc6XK4G6em4x+HwRjOlW3P6o9rONY6ujg13LbrllmX3PJRwhjpDY8+SnG5Xo+S0tvZUmb1oWL+tzZlovWfZLbcsu6d1j+5cv1uLDvM2lHNYnMFo5xqnvq/1nmW3zJ07d9E9rXHDsy3e6XVU+Hg6A5HIakfX9ntusdhsllvu9GuuyN5NTdLTcY8jkBju+Bexudu1pza7M3ta71l2y9xb7rxva9K2ZqcWC5Q1b8KofRSRfFa/2tNWeOQNrbz+VZ4J6d6J87muU2erv99y1HKe+8orPYHA6nrPc5sd877Tckdhccn8sf9FCgCACbDMd89Yfnhw0aaYVwuGZXO6vQG3NxAWEUmlUoZhqKpqclEAgEnzGw+Q504LrvZ0vn2kFz2der6z/5+OYEL3JhPJtGFTPB6Py2mTcD50bUWHOxhP+1LJZDpjc6mq25kKRsTquTYvrMOfyPqLG7b549c/Ib54dnA6T4cnlND96VQqlc7YnC636ima6fbG1kSUULJQjE2NpJ72JlKGzaU6Srd2rfh0KplKi3Ogb+2BEQ6KGs3ko6UOVjm9EHF4wjHdn0qmUhmby+12u4ruWeAIJPKBoXsYrUElENd9aS2Z0jNZm1Nxu1WXs6wNx3o8ncGE7k1qyXTGprg9HrfTJqK6fFoq63IPs74zqOWDgw07vZFkJpxKJtN61uFye9wuR/mVjNrHGsIFm4NqPM994IGWZcvurOs8V0Runj2T+6EBAMw0y2Gxq2YXgXJpmkakCwBT2G880Hr4bw98KaYtvZM8F9fYFI9P8dz4vBH3u0O6P5ZsV30D/1+SMa1X3OpE5ta3OV0er2uY3ZWzqccX8Ax5avTWbE6Xxze+vZUopcR+FbeqjOWHbLQGHS7VO2IUVsHjaVM83uv+IzjdXr975PVvaM5d+I8yZqP2sUaYn/HVCPLc6kieOvtA0WwbDzcvCjUvNrEeAMB0k+/Trj67qrBoWfqoifc0QEn9ka7ZVQAAJgV5LsbG4fF7smu3+73SFvIqkknHO9t2HWtYfyCgmF0aUH01EfOZbkx57qZN9546RZ4LAAAwuQzDOHjwYP8/HA4+QgPAlPJx8lyMmdMX1fY6Q22dwfu258Rqb3Spmw9E2m+44RoweWpnGjcTkr5Q8+KaujCTPBdA1Rz+1p95Pnb/okWLzC4EAOpAPB4v/CMQCJhaCzAR+WGfTT33YtfPjkX/6i+rXA1QCz7+QOs/1kOeodQ+4wAAIABJREFUe4E8t9bYXP5Iwh8RyWaz47wp2rTii2XOZG38162ompnGzZTbo1185dzFwuLKhTdVv4YC8lwAVRP9cuvPD//tD/5BM7sQAKgPRLqYKiw3PpV67sVV67au+Y0PfeQ+X/ULAsxVR3nu1x5YJeS5tYk8tzw2h4MDVVm1M42bCXnffv31x4+eLCy+uO691a+hX1fXkYce8i1Y4Lj//k0/+lFi9JX/9E9/P5s9T547QTfPnnX3bYMh/pJ5VhOLAaop+uXWn/3gwA//QXv/r9X0yBWY8iyzHGJvGVw076tSGF1h1gUROXjwoK7riqKYWhFQMdfy3A9Hvx03uxag2n7zQfJcAKiAmov8qunUqdfe+tYlK1d+5JVX9NHXPHfu7Lx5N0Ui8RrPc48eTX3mM96azXNFpNkxN6Y2mV0FUG3kuUANme+euVwzuwiUFo1Ghyy2tbWZUwpQUeS5mM7WPNj6998jzwWACqjF1K9qZszIv+c9H/jyl3eUXPO55/715EldUaqRRU4kz/3Upz60cuWHazbPFZGjxoWvdr9cWLy/8dZ1yq0m1gNUwe4vtz5DngvUjpye790zuGhvqZHJsDBER0fHkEUiXUwB5LmYztY82PpD8lwAqJAaDf6mramd54rIG5cud506W1g0dyZloArIc4Fak8/qV3vaCouWpY8S6dagaDSq63rxM4ZhRKNRZtRFXSPPxXQ2cH3uXvJcAPWtdqZxMyH78yxcIM3V320dmPJ5LjDd9Oe5//CPmue9NT1yBYBa89hjjw37JJEu6hd5LqYz34Otf/+9A/9tr7a0uaZHxeS5AEqrmWnczIl0PQsXVH+/Ne7FF4+1tq5uaHjbWPPcY8d+/oUv/CZ5LlBryHMBYHxuvES3n67rXKiLOnUtz703+u2/MbsWoNp8D7b+kDwXwJRRM9O4mZAARo6++vjRk4XFF9e9t/o11JoXXzz2wAMtS5e+60//9Kkx5bmvvXbi0Uc/XZt57pUrMmOGWCxm1wGYgTwXAMbN7XYfPnxYRJLJ5NatW0UkHA6vXr1aRBwOPmOj/pz+5Rur1m1d8/GPRr/1pNm1ANVWL3nuxbNnntj0m+S5wJj0ZKVxDAnWFFE707jVVgg4PRXnufPmjWFu2ePHu7/xja13313JPNcwjK997c+2bfu9irT2L//y41//9XuKn/EsXECIjymPPBeoZZb57hnLDw8umjf7FUbidg/88jx37lz/P+68805VVU0rCDXp/IWs9uNnza6itJdfPXX8hVc2fOI3yXMxDbX+1vqD+/9aRP7w43eZXUtp7363mzwXptv2nfj//OMdbz7zT2YXUpam1f8lneDsZhoiXZONO889diz1xS9+bMWKD/zRH+2qYJ77wQ+u0vWXPv3pzTdP4Ez22muZeDx68WIun88PeemNS1eeNy4UFm+fP2fJvDnj3hFQg8hzgdpnEb5CAtS9VzOvr1q31ewqynLXimbyXExDH3jPe35+/PgX1q27ZUFNz7uYzeW+lUj0/vKXH/R/bnx57tAPvcB4fWVndNsXWuX+h2X5KrNrKeVfDspLz54/96bZdUxrRLpmmkie+7nPfeh97/vwffd9srJ5bk/PS9/+ttY8gS/FHD2a+uQnV73tbe984YXnhnnVOP/AkeOFxYebF4WaF497X0CtIc8Fal/+XOrqs4OjZMvSR2c0tplXDoDxCIfD4XDY7CrKc+WCzJxrdhFAtX3q/nU/P3780OOPL3/Xu8yuZTTG2bP3bd781re8pfeXv5xj5UcVZvrv/XnuI7vFGzC7lhIs21vzmZfkfavnzZ9+0y7UkhnV3+WSeda7b7up8Kh+ATXi1Vd7JpLn3n33hx977K9mzpxZkWIKee63vlWBPHfx4sY/+zOuRMC0Q54LAACGIs/F9LPx/vu/94NDdZLnhvIiiY6OibTDd38wcf99Z/R/1FGe+88HJKLJgreYXYs5LHZ15gfzhYeJV4eYcJXuOuXWdcqt1d9vTentPfH1rz/c2HjHuPPc9va9ly9fqkgxFc9zv/MdLZfLVqQ2oF6Q5wIAAAAb77//4A9+kHj88eXvfKfZtYzmWp6bT3R0OGp7aghMeXWZ575zGn/svWzIue7BRVujWBVTCjEh0k2eOtt1anC6jc3Ni6pfg7l0/djXvvY7S5eOOc9NpX788MMf789zZ82aVZFIdzLy3Jtvdpw6lZl4bUC96M9z//GwtvI90/jEBgAAgOmNPBcYK/LculM707iZE+k+fvRkYXG6Rbq6fuyzn21529ve9bWvfXesee4XvrD6/e/39ue5FSlmkvLcUdZcMt/6cNE77lnI6RN1jzwXqC8Wm2JZ+ujgokM1r5b/x979xyd13/sDf5MfgokpqNGgpuZYuwazVll/KF1/5HhdJ95tN7i5iW6ruN37KK5dxf0q3rtd6XY3seta0tVbst2upNsUd2sl37vdkt22kv5YSX8S20Viq0JrUtIk5sSYCIkJ3z+IQBICJCEckryeDx598Dmcz+F9AK155cP7AAAAzBzIcwHGS/+flgP3Is+FCcLl0dIqnOf+/Od/5D3PvXDhwhe/qEpnnktExXlzcD00mEmQ5wJMP0IG10MDAABIremU5+qQ50JGmH55bqWDVuLH3gyCSDd9mppc3/mO8uqrP/XrXz/X39+X/MSpyHOJaOvWr58792E681wiauQu/azho/DwKyVorAzTWCjPPX7csRZ5LsA00uMaPL0nPBIU7RAUafirBgAAYNqbZnluEHku8G8oz9U/RRs1fNeSAPLcjIVIN01ClzW75ppP//rXz+XlzevqOp/kxKnIc3t6uufPX/zRRx/+8Y9pzXOJ6EL/5fq27vBw3aJxLFUGyCjIcwGmqeBlLtjliIzF5bhQNQAAwIQhzwUYL+S501rmtHHjIdLdwhTOtg6qI/Lc5CeG8ly5/PaU9lvgDIbvBgK9Fsv/pTnPBUjonPtETu4cvqtI4FzTCSJ6p/bYcQfyXAAAAACYvZDnAozX9MtzTchzh8uYNm48RLrFeXOK8zI9skmhyee5jz56LIV57te/vr619dx99+2XydZM+DjIc2GK/Pf+H/JdQrKQ5wIAAADAbLbjy1+u+b//Q54LkLxpmefiemgjZEwbNx4iXVNjy2ONH4eHZ7bclP4a0iYlea5QKEpJMaE899y5s7/+9Z85jpvwcZDnwlQoKCgIBoN8V5GUvkEiojlZfNcBAAAAAMAT5LkA44U8d2bInDZu6KU7hTIzz33yScfSpcybb74yseNMMs9VLCqY2SE+zAYIcwGmNYGYzb5jevwCCQAAIDMhzwUYL+S5kHKIdKfKu+/Wa7Wfv/rqa/fsebil5eyIR3t6LubkZM+dO3f0RK/3/Z/85O7PfOaOKcpzS0vl3d0TXKI7+fW553r7jno6wsN1i+bNtsbKAADAs4An2FodGYrLBWKWt2IAAACmG+S5AOP1w4OWh+9Dngsphkh3qjQ1NRQWLlmwYPF//dd/jH50YOCyQCDIysoe/dDg4MDq1bdOXZ474eOkpN/CuZ5AZWNLeHh/2RJEugAAkE5Bv2fQawgPBcv3IdIFAABIEvJcgPFCngtThIdIV7GogMrS/7TpJhDQ+vWbv/vd/TEf7eo6n5ubWxDrfy3V1Q8PDPTPyDwXAAAAAAAApinkuQDjNZTnPoA8d+bInDZu/ES6WJiZHshzAQAARhCImGHjgIeXMgAAAKYX5LkA4xXJc5UavmtJAHnuOGRMGzceIt1nPB1HvZFuqofLr0t/DbMB8lwAAIAYhAzfFQAAAEwzyHMBxms65bkP7Qy+fIwqHbQSeW5imdPGjYdI91xvoL6tO/3PO6tkbJ5bJsk7FBXiF+cLJ39MAACAcREU7SAigZgVLFRRDn5bCQAAEA/yXIDxmmZ57kvIc6clXB5tBsrYPJeIrsrNRtsNAADgV9Z1ltCdYJcj2FpNFAxvAQAAgGhf/Id/sL/00uprr/3Rr389rokDAwMCQZZAIJiiwkb70Pdxbk7OS1VVyHOBX981/fbx7++i5aXZtRaqtfBdTjyDF7ngh0108LWJ5Lnp+8MNsSHSnWkyOc8lImdb9/a6U+Hh/WVLdGVLU3VwAACAJAWbKwebTZFGuiUGNGQAADCZTDU1NUTU3t4e2vLggw8+8cQTRFRRUaHT6fgsDngxMOA7f/7G0tK71q3ju5QE+i9ffsX1zu8NBuS5wLvLXIcgf15wvXqA70oSe/6PdOeXJ9w/N5gRFwmbvRDpzigZnucCAABkiMGOY9EXRhv4++bsG9/hrxwAgIygUqn27NkTvaWxsbGxsZGInnrqKZ6KAl5lZwtycu68/vp/27mT71ISuBQI/PL3v5+Xn893IQDEzBXMkSwKaAx8F5KYoOmNYK5ogpODs3ShriBfnrX6eGQ44trLacRDpKsrW4qFmVPh4sULX/3qZ1tavP/8zz8+fbrx9OnGsfYMBPznznkCgfM5OTE+AOfPtz366I+XL1+JPBcAAGaq7FLLwOsrImP/WQp4sFAXAGY5hmF27NhRXV09YvuOHTsYhuGjIgAAgAyTI+Hremgj8HJ5tL7mnr7wcN2ieemvYUbq6rogkRSWlt7Y09P9/vvvxdlzYKCf484Hg4GsrOzRj7a3t65cWVZdXYs8FwAAZiwhI1i6O9hSSUSULc5e46BsyeCZPVnL9+GCaQAwmxkMhtGRrsFg4KMWAACAjBPscgyeWB8eCpbvyyox8FIJD5HuM572xxo/Dg/PbLkp/TXMSDk5goIC8e7dv5BKl8ffs7ube/PNVzZs2DB37tzRj9psh/Lz86coz70qN2dtYSTEL84TTsWzAAAAJJS10jTQ5SCi7FIL5csHT+0MtloGfJaslSbBwgoEuwAwOzEMU1FREeqoG1JRUYElugAAAJkGvXQhrcokc61sKd9VAAAAEBFlf9pG2RLKkQye1gVbLUREA9zgKY2gaEfWdZZgc6Vg3pXG9PlrKEdCXXWRyTliypdTwEN+b2SjuJwuc9TTENkiKiEhQz0uutw1bLcRE8c6/uiJMY+fsLA0HJ8oqRMfz/EX5rxXLicimpPVm+IXNkPeuOjd+HrjRhw/FW/csOPT2B+M0LND5tHpdNGRrkaj4a8WAAAAiA2RLqRVI3fpZw0fhYdfKVm4hVnIYz0AADCrCRkiCnbYhjowXCFYqKKAZ/BM5NruWauPC8TswAk2spO4PHu1Y9BnCX74YHhb9h3BYI9r9FexBk7rosOv7DuCIyaOdfzRE2MfP1FhaTg+ESVz4uM6/i159MJjRETP+z5M7QubKW9c9G48vXEjjp+SNy76+JTogyEQs4JluwULVQQZg2XZkpISr9dLRCUlJSoV3h0AAICMk8V3ATC7XOi/XN/WHb6d6w3wXREAAMx2AjErWFgRGWeLBQtVQc7BW0EAs0mwy0GXOSIKNpuCXQ6+y4Eh4RgXeS4AAEA0QY6ExOXhm0DE8FUJD6t0FYsKqCz9TwsAAAAQS44kq8wW7LANntZRwCso0hBR8KKL77IAZosr6+L3hO5nXfcUGjLwTqPRVFZWErouAAAAjJAvz17t4LsIIr4iXcWigvQ/LwAAAMBYBAtV2QtVwQ5bqH9uMLpJKABMmdDVCMN9ToIdtoG3XdmfPkb58vgTYUrJ5fKSkpLQHb5rAQAAyCQ9rsHTe8IjQdGO0IqQ9OMh0jU1tjzW+HF4eGbLTemvAQAAAGC0cEPPrJWPkt8T9HuGtosYIhIs3xfZM7RFwo48gogZtpuEJaKsIk1QPGzPERPHOn6MibGOn7AwHo4/1omP5/inTp06fPgwEa25qzC1L2yGvHHRu82kNy7Z4wc8wYsugZily1ywPXIxLgp4Bk7rMmT9y2yGlgsAAACjBS9zw1pFicsFPFWCy6NBWikWFSDEBwCAzCcQsySmEf8+yyoxjN5NMDz5IiETY7cizYhDxZgY8/ijJsY8flKFTcPjn37vLz996jARVbOFKX5hM+ONwwcjJNjlIApGxvlrsstsRESXOXRg4BHLshzH8V0FAAAAxIZIF9LqQv/ASe5SeLgsf05x3hwe6wEAAAAAfgnEbPZaz+ApTbCjhvLXZK92UI4k+OGDg+227Bvf4bu6WcXvcdptVqvd5fH5fC0ff9zlF+oNRqmUYeSsSqVSKWWI2AEAADIEIl1Iq0aud3vdqfDw/rIlurKlPNYDAAAAAPwLXaWw2RTqRjd4Yn3oK43BZpNgmY7f0mYFv9tm0OvNNU1dIx7oa/U2tXqbGupra6r27hSWlGsMRqNGgWQXAACAbzxEusV5wrWF89L/vAAAAAAAkLEEy3QU8Aw0rKeAJ7Rl0PtgdpEG7RemEucy6zT66oahMFdcuo5lVUoFI5VKpRLyc5zP53Y6HE6Ho94b8NZV7bzVYqwwmM16Vspv4QAAAHwQiNnsO4KJ95t6PES6W5iFW5iF6X9eAAAAAADIaEJmWF/dAS7YasFC3anid1s0Ku2RpgARFa3bqtMbtKpYvRXUGj2R3+OwmIxGc623qWbveqd9v82mx3JdAACYdS5z1NMQGYpKSMjwUkhW+p/S2dZd2fhx+Jb+AgAAAAAAIDNllVqih4MdNp4Kmek4p55V7DzSFCDxmh2HT3qcVn3MPPcKEcNqTXa3+9gD5UVErXV7Wbna5ktfvQAAAJkg2OMaOMGGb4M+C1+V8LBK19nW/VhUkru7bEn6awC+FOcL7496xxWLCngsBgAAAAAyjUDMkrCEciSChaqsQhXly/muaEbyWNTKA/VdREQlKqNJLRMlN0/EqAxGp5090BAIeI+olYzDaVQkORdgxmn76PSNn6/41LUr+S4EAGYjXB4N0qo4bw6uhwYAAAAAcWSv9UQGXXU8fqVxhvI7dUptbReRUCgMBLzVKoXI5jArk2mOyzmNSuWBhgCRUCwMdDUcUKnlLpsafXVhFvropOuX29bf9cUKGSJdAOADD40XYDZztnVf88xb4ZupsYXvigAAAAAgwwQ8g42bB97+zMDLAn6/0jgzuUzayqYAicufcHnsu9cIKdBUpWI1ibsocE69Urm3vouoZOtht9u6tYiotUant3PpKBsgk3zYOJTn2v5o4bsWAJilsEoXYEbo7KXmTurspcUFVCqld5vpvebIoxtWERG9cDKy5fpldMMyeuEkfdId2bhtLX3SHWO3w69HtiwuoA2rJn780RMXF/Bw/CRPfKqPn8yJjzg+X2/ciOPz9caN2I2vNy56tyTfuITHl+TRPOHQn9+0CFwa9LzX3fxBT3uz/2s/uIaIntgTOdOlK/Mq7iupedzbcro3vHHXo6taPuitOegNb7l5Y+EtykWjJ75hb3uztj28seLekqXX5o3n+Nf8p66RiAItLTELG318IhpdWArrT/L4SZ74VB8/yROP3i1Fb9y4X9gRx4914tcQ0XXFa3veueWJd06O9/hJvrAj6p9Gb9xUHD8lf6KXXpu3+s4FK26YRH+tbEkwuoVuwDPxQ8FIPove2EAkLDdatDIpmRwOkVJ5oL6perPCf9hhVTNjzOMcelZ5oCFAwtIdVodFJSUyW7Y6Nh1prdYZdW4jGmTA7PFho+vh7es/9wXkuQCzkUDECJbviwwlLF+V8BDpbmEK0UEVIGXOddK7zcRd+SEtGExbJAQAKcP1EtdL53uoVEo9Aerpo8VT9T/KwKXBV22+pte7wlu6z/cXLMidoqcDgFmo5YPe0lskRPTioZarFs654c4Fwrnj/GpgzrCrdAX9ntRVN+s5jYbaLqISrVHDEBGRRGG02yVK5d5675FtLFHMVJdz6FhlZUOAhKX3RHo0SJRGQ7ltV12T2WDT21Rxrq0GMHOE89yaQxa+awEAPgiZrBID30UQ8dV4QUCC8I2XAgBmgv4BIqK+gUieG94IANPR1fOJiM600wsnyXmGegKpPXzg0mDoztkT3dHbu8/3p/aJAACWXZvXfb6/6Y2uN+xtf/jZ++6oXyMBvxwWq5dIuE6vi7qomUShdzgeLRcTeY9sU6gsbv+wOT67VhHKc9fstjmH9dxlNHqVmKjLbkbzhYxWXV3NdwkzBPLc2cNms3Ec/mKDWHpcgyfWh2/BVstYO071p4iHSPcZT/u2uqbwLf0FAI+uys1ZWzgvfCvOE/Jd0bTV5KMaF/UP0DWFlDcnsr2zd+w5AJDZViyi/gFq8hERnW2n595L4Z/o7vP9NQc9b9jbhHOzbts8bC3/BUS6AJBS8+bnFizIdb8+9DNM36XB44dbXjzcEv7FUlLE5eGbIB/f6U8Vl93RSkQKjYoZ/oBIrrM7n9hYRNRas5NVmcOprs+uZVVVTQESrtltd5iUI5biiliNUkwUcNocw3NgyCgajWbFihUIdicJee6sYjKZVqxY8eCDDyLYhRGCl7lglyNyG/u7RFP9KUIvXUirMslcK1vKdxXTn/MMnW0nInrpFG1YRTcUU/2ZYTvkC4d9azs3m4iGbckXEhHNzxt55NzsGLtFbwlNmfDxE05Mz/GTPPGpPn4KTzzNx+frjRux2+jC0v/BSPLEEx4/FN3Oz6N3myNr7fsH6IWTdOd1k2/C0N7srzno7bs02NEcWHFDgWyt+A1728XOYUnu0pWR8hYuE4X/G23O3Kzo3QoWzIk5sWDBnOiNc+Zmjev4HR0d7733HhHdwCye2PFDhU1d/WMdP8kTn+rjJ3ni0bul5I0bcfyUnHhHRwcR9QYuZM/rLioqSvnxY9Y/jd64qTj+5P9EBy4NFC4TEVHTG8NW5gZ6B8bVfiF7tSP5nSFZnMvZRESlCjZGny6RTGtziFTsztrW2l0Kpd9h10ntGlZd3RQg8boH7HajIkZrBZFCqRAeqe1yOd2kQvaewTwej0ajMRgMGo1m9+7dEgkaZYwP8txZiOM4g8FgMplUKtXu3bvlcvwdB+MW/Snat28fwzApPLggGAym8HDJMDW2PNb4cXh4ZstN0Y+2tbV985vf+sEPHmGYT42eazY/RBTUah9ISSX/+79/euWV4//2b08k3PPvf3/TbH7wkUeO5ubOSbhzyNGjv/noo7Pf/e7+mI92dZ3Pzc0tKIjxU3p19cMDA/3f+tbehE/h91967bUXbr/9DolETEStrc3/9m/avXsPSqXL40/s7ubefPOVDRs2zJ07d/SjNtshl8tpMDyWsIA42tp8n/3skpdffvX22z8bvf1cb99RT0d4uG7RPDRWHrcRF2K6cTmVSumFk1Q8n4rnD0VOADDt9AQoX0g1Lurti2xcUUiKayZ54MClwT/87P2+K4vjFi4TVtzLnH23u+WDnhU3FEzq+kVT4y9/+csXv/hFIvr973//jW98g+9ygE/hD0N1dfXdd9/NdzkwDoFLg/YnPwpfMG3hUmHFfYxwbtaJl86vvnNBMkcIfvhgZCAsERRppqDM2cepY26t9AorjnE21ciQ/wqPRcXurPESiUvXSJoavETidfvtdn2sPDfqoLm3/ezP/3F7sj8rQZqtX79+xBaVSqVSqSoqKhJmu7fcfHO5TPbTe+6ZsupS41IgUHjXXcd++cvPr1s3gen5d96pe/h31395Z8xHU5Lndnd3v/XWWxOeDmmm0+kaGhqit8jlco1GU1FRkTCVO3DgwL6D/xV4+v0prC9FBHu/EJwvpR89OZHJP//GdVm9TbXPhkYcx7lcrlQWl6nEAtfqrD3hoXdwx4dBTcw9J/MpSgZW6UJanesJVDa2hIf3ly1BpDs+nb3D8lwiereZrllEG1bxVBAApEjo9zH/eAO9dpqaOaIreW7/AL3bTDcsG1r8O372Jz/qi/qyc0dzoOl1bnX5AtlacQrKBgCIRTg3q+K+krPvdr94qKVgQW7FfQwR2X937uy73RSk1eWJU91BryEyEJdnI9JNCT/HEZFEIhkrzyUiRmNziNTstiPepoYuInH5ow67Th5ngkQqIfL2v/qTjSNTQ8hgNpvNZrMRkUqlYlm2vLwcKxDHkqr1uadOnRqdrcM04nK5dDqdTqeTy+XhPzh8F5VBXC7XLPmEyz9Fv/puZPj0c9XVzyXb1ia1nyIeIl3FogIqS//TAswI8/Pojk+R88zQV7Nzs2nDqgkHPQCQcXKz6c7rqMlHnb2kuIY6e8l5hrhe6gnQHTG+vJIM5bevfvFQs+e9i6Fh6S3iZMIUAIDJW3FDwdd+eE3g0gAR1Rz0dDQHiOhVW+vSa/MKRzWCgMzh9/u5SGNcv8/vJ8L7NWOdPXu2pKSkpKSEYRh0Yxjtw5Ouh7ev34B+CxDl7NmzZ8+eFYvFYrEYvwuZhVzv04b7J3uQzs7O6L9+J3YQfiJdLMwEmIhznTQ/j4rnU4WcXjpFnb20YVWM7pwAMN2VSomIzrTT296h39+c66RPusfbVLf7fH/L6d7SW8Sbvn21+/WuV4/5VtxQ8A/bl05BxQAAsRUsyC2g3JrHvaE8N+RVW2vFvSU8VjV7SSQSoi6O840d0vpdZpVyV20rUdG6dSJXvbf+AMv67Q4TO1bYx/k4Isop3fqAWobvgGaoBx98cMSWNWvWaDQalUqV2saOM8yHJ10Pb1u//h8r/l8q8tylS5fu27dv8seB9LBYLF6vN3qLWCxWXcFXVZmMYZhZ8gmXzOXWLIm0U/B0lng7mZh7jv4UlZSUqFQqjUaTkl8G8PA/3Wc8HUe9kW6qh8uvS38NANNP/8DQ4twVhXTDMtqwijp7kecCzGTnzkculUZE7o/HG+m6X+ferG1/w952i3KRbK142bV5BQtyU1wkAEASbttc9N8Pnw0PWz7o7T7fj7+ReMDIGSJvwO1ykzrWz5J+l0nJ7qnrIiqpeMph04jsWlZV1dRQqWT9NrtZGeOiasS5XT4iWqnS/4cBi9UyVTjSDWVSoe/88ltS5gvnuX8+bEnJAZcsWWIwGFJyKEgDh8MRDuPKy8s1Go1Go+G1okzHMMws+YQHuxyDJyrDw/LyfVlPde/mAAAgAElEQVQlhph7Rn+KKioqQr9IS2ElPES653oD9W3d6X9eyARlkrxDUSF+Ma7llbyPOofCnbPtdLZ96KpoADCD3bqSalyRVLeZG7qEWtJCl5vvPt//4qGWhrqOinuZKagSACCxwmWiG+5c8O5L54lo3vzcNUm0f8lafTx8X5CDL4OniESuKKW6piaH00NyZsSDnNOoVO6t7yIq2XrYYVUzRKQ0O+0iVlnZ0FClYv02h2VUqut32F0BIrGclaXlFGCixGJxqIEjuiskI+V5LkxTO3bsMBgMWMwOkzF1nyJ8NQbS6qrcbLTdmKBz54cNkYYDzHi52VQ8n862D90pnk9zxvF/7dAiuPBQKMoWzs2agioBAJKypnxB36WB1eULkuyiKxCzU1zR7CRXsSUHmrz1FptHq2OiHuCceqXyQH0XCUu2Wh1WVfgxCWty2EWs8kBDU7VKQVaHRTVsnt1q7yISsioF2u1msH379iHMTR7yXCAilUplsVgQ5sJkTPWnCJEupJWzrXt73anw8P6yJboydHVMzidRa9tD+Q4AzHg3LKNS6cRarLQ3+6OHpWvxUxwA8KlgQe4/bF/a3uw/8dL5lg96mz/o+doPronTe2HgZUFkIC7PXu1IQ5GzgUKrLq060FRvMjq0ZnYoheUcOlZZ2RAgYekOq8OiGrESV8IaHQ6JUrm33lu9mfVfWcFLROS2GG1dRGKVRoX/zWSyWfJt6JRAngshOp2O7xJg2pvqTxEiXYBpYn4e9Q0Q10tE4+2nCQDTVb6QerrpvWa6GKCeAPUN0Kbrk5+9dGVee7O/zz9IRIXLsLQfAHj2hr3tzdr28LC92Y92ujyQ6wwV5m01XoverHPqZEQ+u1apqmoIkLD0Hpsjdr9ckij0Dgcp2b113iPbWL/fYdUwIuJsekN9gIRr9AYV1ujCTIA8FwASEuTLh7WHEjF8VcJDpKsrW4qFmQDjtmHV0J3+Aeq7zGspAJBG754btkg/aavLF6y+0q2yvdmf5DedAQCmzrJr80dEuituwG+p00+qNuqN9r0N9XqNkbXKzUpVVVOAhGvuGev6Z0NEcr3dIVIq99R5a3YqVH6HWaLX1nQRlWhMOvTRhRmgs63lNz/9HvJcAEggR5Ih7aF4uTxaX3NPX3i4btG89NcAMM30BOhs5EcgWnwVeukCQHzu17sudkZ66SLSBQCAITKdWWdlDzTU71XIKBAgEq7ZbXeY2IStE0Rynd0hUrG7altrd8llwkCAqGSHycDifzEwE7xi/a9y5LkAkEiwyzF4Yn14KFi+L6vEwEslPES6z3jaH2v8ODw8s+Wm9NcAfLkqN2dtYSTEL85DLpmcnj56tzkyvB69FwAggabXuZbTveHhzRsLeSwGAGC8BMv3Re7z95XGGUqkMNosbsW2mtYAEZXssCWT5w5NlWltDo6V760PBAIkXrffZh7Zehdg2jnx/vs3yWRFshv+gjwXIEkXuayOls/t+Abfdcxq6KULaVUmmWtlS/muAgAAAADSbeEyUcW9JeFh/Ea6fC14mTUYtdXuUbJ767rIa9Vp5BaLTpFMqut3W3UaY32AiISl91htejlW6MI0d+L995W7d69ZVfaXY3/iuxaAaeIil7Vnfa4g+MOvf5nvUmY1RLqQVo3cpZ81fBQefqVk4RZmIY/1AABkuhtLqH+A7yIAAFJAODdr6bV5Se4c/ZVGyl+TtdI0JTXNZiK53uGSaVXqqoammj23MpYKrU6vUyukY2S0nNtmNhpN1fWtREQlFU/YrFrkuTDdnXj//U27d9/x2dsPPYM8FyA5V/LcU685li9M8iseMCUQ6UJaXei/XN8Wuc4POikDAAAAzBItH/TWHPSGhzdvLLxFuWisnYNdjujRFJY1qzEqs9PF6rQ6S11rQ82BnTUHtCVrWAXLsnJGKpGIyM9xPp/b5XDYHfXertAk8ZqtRrNZm9SiXoBMduL99zfpdF/6/OefPnqU71oApgnkuUSCHAmJyyND/tpDIdIFmA7m59GGVZFh/hz+SgGA9HrbS59EfhNG29YmOe+2zUV9lwanpCQAAJg5RDK12aHSO8wGvdFa3xrwNtR6G2qPxNpVKF6j1BqMepVslv4UDzPKUJ57113IcwGSdZHL2rN+jiDYNIvzXCKifHn2agffRRDxEunqypbqypam/3kBprHcbFwPDQDGpXAZvg0LAADJETGszuLUmX0uh91uszvcHp+vpeV8F4mWLF0qlUoZuVKlUinHbMoAMM0gzwUYtyt57vuvOYpnc55LRD2uwdN7wiNB0Q5BkYaXQniIdE2NLY81fhwentlyU/prAJhmPummF05GhtcvoxuW8VcNAEwDNY97W073hoe7Hl0VZ2cAAAAikVSu1MiVGj0Rkc1mIyKVSsVzUQCpduKDDzbpdF/auPHp//5vvmsBmCaQ50YJXuaGtYcSlwt4qgSNFyCtFIsKEOIDAAAAzEJz5mYtXRm5PFrBgniNpLLvQP9cnjkcDkKkCzPOiQ8+2LR795eUyqf/hOuhASQHeW6mQqQLaXWhf+Akdyk8XJY/pzgPbWEBAMa2YhEtvorvIgAAUqBwmajivpJk9+6qi9zPEVO+fCpKgjjq6uoS7wQwrSDPBRi3i1zWnvXCrOCpvyHPzTiIdGFKdHd3xdzeyPVurzsVHt5ftgSNlQEA4rmmkO8KAABSo73Z/6qtNTwsvUUiWysea+eBE2xkIC7PkOuQzB4ej8flcoXuMAzDdzkAKYA8F2DcruS5p19zLFmAPDfjINKF1LtwgdPp1MXFJbff/lm+a5kpRlweLV/IXykAkF5ve6kz0hKXNiTbEnchLo8GABmm79JgyweRv9CimzBApgk10g3d0el0/BYDMHmhPPeflMpq5LkASUKeOwaBmM2Q9lA8RLpbmELFooLE+8H0dOEC941vrG9uPltX5+C7lhlkfl7yOQ4AzCidvfRJ9wTm3b65KOW1AADALFFdXR2+g0gXpjvkuQDjhjw3jssc9TREhqISEjK8FMJDpHuuJ1DfdjE8RLw7k0TnuXI5Wp6lTk+AzrZHhouvGrZoFwBgFPfrXRc7+8PDmzeigQMAACTF5XKFui6E7jscDpZlea0IYOKQ5wKM20Uua896UVbwA+S5sQR7XIMn1oeHguX7skoMvFTCQ6TrbOt+rPHj8HB32ZL01wBTIZk8tzhfeH/UO45AP1k9ffRuc2R4PSHSBYD4ml7nWk5HvuCMSBcAphfB8n2R+yKGv0JmI5PJFD20WCyIdGGaQp4LMG4XuazvrRdlBZvrHRIJ8tyMhl66kBoXLnBf//r6lpYE63OL8+bgemgAAAAAs9DSa/N2PZpsIym+FrwAx3E1NTXRW6qrq00mE36wh2lnKM/dtKn6yBG+awGYJkJ5rgB57vSASBdSIMk8l4icbd3b606Fh/eXLUHCCwAQD/poA8BMEbg02NHiDw8L5ucWLMgda+eBlwWRgbg8e7VjKkuDCJPJxHHc6I0Gg4GPcgAmCHkuwLghz51uEOnCZCWf5wIAwLidaafeQGR4/TL+SgEAmJSOZn/NQW94ePPGwluUi3isB0bjOK6ysnL09srKSp1Oh5/wYbpAngswbhe5rO+tnysInkOem4hAxAxrDyVh+aqEh0i3OE+4tnBe+p8XpgLy3DSZnzdspV7+HP5KAYD0OttGn3RHhklHurdtLuq7NDglJQEAwAwVc4kuEXEch4W6MF0gzwUYN+S54yJkMqQ9FA+RrmJxwdX5wvQ/L6Qc8lwAgIwmSLwLAABAmMFgCOW2Nptt8+bNRGS1Wrdu3cpzWQBJO9vcvPOnP/2nf/zHaquV71oApon+APLccQl2OQZPrA8PBcv38ZXw8hDpPuNpf6zx4/DwzJab0l/DLNfa2jJ/fmFOzqTe/YnluVfl5kSv0S7OQ7ifnM5eeuFkZHj9MroBX74GgHhePdbacro3PEz+kkQAABlBXB6+K8jH0gEASMpPqqq+8qUvIc8FSFLwcj/VP5e/9OoPnchzpx/00s1EweAUHvzs2VMffXTm05++Pjd3zOtRJDTh9bllkrlWtnTCzwsAAAAA01TBgtybNxaGh8uuzY+zM66HBpA5fvXHP/7qj3/ku4qkKG6+Gf0WIBMEPvqA1k+Pb8zNKZQiz52mEOnOLmfPnvJ4Tn3609evWMFM+CCT6bdwrrfvqKcjPFy3aJ5iUcGEKwEAmPluLKH+Ab6LAABIgYIFuclfDy344YORgbBEUKSZipIAICFzVVV3d3fi/TLAYHe3/Lbb+K4CgLZt27Zu3Tq+q0jK2930heuWIM+dphDpziK857lEdK4nUNnYEh7eX7YEkS4AQDzz8/iuAAAgNVo+6K056A0Pb95YGCfhHfQaIgNxeTYiXQCe3HQTOiUCjM/y5cuXL1/OdxVJYfkuYDoS5EiGtYcSMXxVgkh3tsiEPBcmLn/OsMvcF13FXykAkF4vnKRPopbGbFub5LzStZKl1yIOBgAAAAAASJ18eYa0h+Ih0t3CFGJhZpqF8tw1a+RXX1084YMgz+VTvhDXQwOAcZGtFfNdAgAAAAAAwMwS8ARbqyNDcblAzPJSCA+RrvOT7qPeSDdVRTni3amFPHcm6OyltyNfVKQVi+iawrH3BgCgV461drT4w8OKe0t4LAYAAAAAAGAGCPo90e2hBMv3zaJI91xvoL5terRXnwEyLc8tk+QdKr8uPCzOF07maLNI/8Cwb14vRuMFAEigo9nfcrqX7yoAACLmzM1aujLSEKZgwZw4O2etPh6+L8jBZVsAAAAAhkEv3Zks0/LcEAEJJn8QAIDZApdHA4CZonCZqOK+ZL8xgH8xAgAAAMSBSHca6+sLxHk0M/PcRq53e92p8PD+siW6sqWTPywAwIx1IxomAMAM0X2+v+mNrvBw6cq8OFdxHDjBRgbi8gy5DgkAAABAhkCkO1319QVOnnRJJAskkhgXwMnMPBcAAMbtTDv1Rv0C73pcKREApqvu8/1v2NvCw5s3FsaJdAEAAAAykCBfPqw9lIjhqxIeIl3FogIqS//Tzih9fYF33nltcHDgpps+M/pR5Lkz0OIC2raW7yIAgA9n24a10k460k3+280AAAAAAACQlBwJX9dDG4GfVbrojTUZ4Tz3tts+O3fu3BGPfvjh2Z6e7knmuX19AeS5maUnQGfbI8PFV9HiAv6qAYBpwP1618XO/vDw5o2FPBYDAAAAAAAwAwS7HIMn1oeHguX7skoMvFTCQ6TrbOt+rPHj8HB32ZL01zB9xclzg8FgW9vH77zz8s03Ky5d6jx1qnNiT9Hc7Hn++WcHBvqnIs8tzhfeH/WOKxYhl0xOTx+92xwZXk8zMNK9PEA52ZiY4okwizW9zrWc7g0PEekCwPQiWL4vcp+/rzQCAAAAZCb00p1O4q/PffLJR73eU2+88dzp0/WTeZbBQRIKhc89939TsT63OG8Oroc2yz1l/k11dXWd82+jH+rs7JRIJGNN3HPfd48fP97Q+PfRDwWDwTjPuOe+7z5z7NlzLS0jti9auPCT9vaYU0IMD+x99ImDF7q7R2z/1DXXnDp9eqxZHMfpvnNv9eFDox+687O31736cpyJ9+z81p9sx0Y/tPkLX3r2z/8vTqkAAACZb+EyUcW9kZ4wBQty4+zM14IXAAAAgGkBke60ET/PNZkMf/jDY7/5zZM7d949ySe6fJlypuxz0chd+lnDR+HhV0oWbmEWTtWTQeZ5yvybb+2656ff/9G/7/5+eGOt48WHqg7Gn7jzm3db/vD7f9d9/5Gf/HS8E4/9v5pKw8+vXhL5XcJDT/y69iVHf//lOBM1275u+8ufH/nJT1dcvTx64ouvvRpnFsdx6++486zXW7X/4WuZFdETX/jbK37/pfgTg4ODNf/19Lz8/NDGiz093/vZv3vOfdTT2zvWRJj5NqziuwIAgNQQzs1K/npo0V9ppPw1WStNU1ITAAAAwPSESHd6SJjnVlX9/NChP331q5sn/1xTl+cS0YX+y/VtkTWP6xbNm8IngwwTynN/95Dp7i1fC298+pk/PVR18Af/8p2Hf/ufAkHsLtuhPDfmxHu231116OmxnjGU575w6Ki87NPhjd/+0Z7alxzbK77iqB8znA3luS8cHjnR+c7bmq98rf6EK+ascJ4bc+I/3aXs6hm54Dd6YnBw8IVDz0iuEg9tvND1ue1b2s+fZxWfXbBg/lilwszX2Uv9A5HhzGu6AgCzRssHvTUHveHhzRsLb1EuGmvnYJcjejSFZQEAAAAkTSBihrWHkrB8VYJIdxpIZ54LGWp+3rCVevlz+CtlgsbKc7/1I93vfmkqli59+Lf/GXPiWHnut36k+91DlSLhnLEi3bHy3OpnjvzuIdOFnotjRbpj5bm22ueOHz76bO3/xpwVJ8+11T73gvXobw/9PmakGyfPPfvRRy8cfnb/QaxLmt3e9tInUZ+cbWuTnHfb5qK+S4NTUhIAAAAAAMDsJGQypD0UD5GurmwpuqkmD3kuEBHlZk/rpXnx89y7v/K1F199JebE+Hnu3Vu++qf/qRlrYpw89+4tX3u8+ncxJ8bPc1eXfTpmpJswz5Wv+vToWZREnisvK4s5ESChwmUivksAAAAAAACYWXpcg6f3hEeCoh2CIg0vhfAQ6ZoaWx5r/Dg8PLPlpvTXMF0gz4Uhn3TTCycjw+uX0Q3L+KtmfBLmuWNNTJjnxpkYP88da2LCPDfmLOS5kJlqHve2nI50Yd71KHryAgAAAAAATErwMjesPZS4PHYHyamHxguZy++/1NBQP8PyXMWiAoT4s0qG5bnxJiLPBQAAmFIFC3Jv3lgYHi67Nj/Oztl3oH8uTIbf47CaLTan2+PjSCJl5Eq1RqNWSMM7uMwak1tpMKmZsY7gNGvNHpXBqBprj5Ti3Darxe5wud0eTsQwMrlap1fLJel4ah75nSat2ac2GpXS0Q+6rVqj3T98m0gilckUSrVKNtNfmvHjHEadhdQmvRKvDcAsgUg3Q/n9l955529ENJPyXCK60D9wkrsUHi7Ln1OcN/3awkKSkOciz4UUWLGIFl/FdxEAAClQsCA3zvXQRuqqi9zPEVO+fCpKgpnJ7zKpVfoab4CE4hK5XOr3uGqq6mqqDIYdFptZLRMREXns1mqXRBsn0vXYrNUeqc6omnQ5VpPdz2o1irGSNs5pVKn21rWSUFwikzMin8tRXVtTbTbutjlMbCryucQ18HEoIr/bVl3NyfQxI12f3VZd3SoUF0mu9JLy+7murgDRHv2alL00mWS8r+3w/f1uW3W1X25ApAswayDSzUSDg4MzMs8lokaud3vdqfDw/rIlaKw8UyHPRZ4LqXFNYeJ9AACmg/Zm/6u21vCw9BaJbK14rJ0HTrCRgbg8e7VjCiuDGcVtVrJ76vwlFY9aLbor0Zjf57Ro1brqbSxHLps6Rn44ioQ1WI/5ZcykC+Kc5r17uf2qsXI6n1Wj2lvHle44bDermVB66ffY9GpNZaVaq3RbU5DQJaqBn0MlY43R5dIx0c/vMmuUu2oqNQa1x6RIRwnpM97Xdvj+EqXp2DG/PJkPNwDMDIh0M87AwEBnZ3tWVvatt66bYXkuTNyIy6PlC/krJSnIc5HnQsq87aXOSEtc2pBsS9yFuDwaAGSYvkuDLR9E/kJbujKPx2JgpvJZtLq6rpJ7nnOZo5NQkVShtTklKvm2Gp3OprSqkojMpArVZBfoJsHv0OtqWkt2POe0RBUsYlQmq8G5Yo/NaPUpteNO6fx+EmXavwNSVJNErjUbrDW76pxODymYyR8wYtwVTvaUxjE/iV1FjGJiTULiHjsTP0oAPBOI2QxpD5WV/qfcwhQeKr8ufEt/AZnM7790/nybQCC47bZbkedCxPw82rAqcsvsVXsTznPv0+6aFnnuwMDAxPLc/suXkefCuHX20ifdkVvSbt9cVHFfSfg2dQUCAABkDLfJWBcQV5iMsVa2StUmwzphq81k8w1t8XNOs4aVSUUCgUgqU+psnkjrVr9dp5CrzO7wBp9dr5IzEpFAIBAxrMbs5KKOzTnNaoVMEjoQqzE5Q0/B2bQK1uAkcptUcoXWFj1l6FlM1lbhOr1hdMGM2rD/Ho1ccmUO57pSq0DCyIcXS367TqHQ2nxuq1YhFQnmzhWIGFZrdfvHrGGM0/G7TCr5sPP2O41KuUJt8cQ6lM+qUSg04ReUiMhtVskVOsdQcX6PTa+UM5JQTRKZUmd1j+iPO24SiWT4Apd4b41Dr1BorG6XRcvKpaLQa6e3hz8Bdq1CobX73Ba1TDRXorIlPiAR57LqWNnQKUnlKqM9+vzjzR3v2xTn1Ru9P2fTKhQaqy9S5lgfmDhlJHeOALPcZY666iK3gIevQnhYpev8pPuotyM8VJQXxNl5Vgn1zxUIBAsXLhQKRy7DNJkMv/2tEXnuLNXZS297I8MVizI21Z1wnruyhPmD9fAE8tyVJczE8tzSFSsnkOf6A/5Lly6da2kZb54b6Otrbm6el5+PPBfS45VjrR0tkX+aV9yb6amux+Pxer1E9O6774a2nDx5sq6ujojEYrFcjjaaAACQiM/haCJhhWasVgWMSiPftctpc/o1REQ+m0ZpEck1GqOWXFZLdeVmuesJp0MrIyLyc25Xg+dKCuY2s4pddbRuh9aoYPxOi6l6F+t02Z1mVkLE2bVyVZWPqdAadTJyWY2WPazL53QZ5SKGVSk9vqZav0ypViqYUcsdnXZngGQqlolRrVSpNyuH7nMOrUJZ1SQp32HQKURuh8VSuVnuetTp0MnoSrX1HpPa5iaV3qyT+p1mQ2XVNpVE5jbEqCHO6cg1Wrlpk05jYp06GZHfqdfsdYgecKoZIv+oQ/l9rvp60bC0j3O7GlwU2uSzquTbamndDq2JZfwup81mrdymJMZtUkx85SfnsDsDVMoOvWhx3xoizu2qdxpUNg8nV2uMGnLZLNUHNsndh502NUN+n6e+3mfWKu0OEVuhVjKJD+izapTbaqj8HoNOIfW7rCbzXpVK5HLqZInnju9tivvqjf5o+X3u+nrO50/8gYlThlGe8BwBZr1gj2vwxPrwULB8X1aJgZdKeIh0z/UG6tvGsc5olgjluVlZ2YsWLQoGB0Y8Gspzbbb/2bTpLl7KS5XifOH9ZUvCQ8UiBPrJ6R8YtjovU6+VNOE89+Dvnzrt9YyR55rixLJ/rDna1tHxovXZ8ea5dc5X337vxAuHR05M0G/hQtf/PP/Xjs7zMSfG67dwoetvb74+VyRCngtp09Hsbzndm3i/jOHxeNavXx+95Re/+MUvfvELInrqqacQ6QLMNlmrj4fvC3JwsR9IjsflIZIpZGPGhVKZvIjqPR4fMUQUaCXVMadVJSUi0ulUavnmI3qDTT2qL4PPotPVUfkTLoeWISLSajVKlWxblc6sc+llToO2yiu95/iV3E6rkilke8wmh9HCytV6PWevrOWUWr1+dB7GeTytJFQk7NjrNuuqmkQbn3LZNdKhAhjFZw7odVaNXR0utsnpf/RK7KZWMRyzqdrp9Im0I2uIfzoSpcm8w7FJrzEpnVpOr6n0rNnvNMhFRCQadTqeuGVzDoujS7z1OYdFKSIi0uq0MvmqvQ6HhxRJhoOcw2qWSIfeUL+f41x2i6WWyh+1GkLhY9xzGTpIaxNXcfhKD+WhN1pncKgsLBERNdS4dx/3DF1tLdEBfXZzTWvRjuN2MysiItIoSKa02BwenYxJqpik36b4r97o92L4UumEH5jYZZBcGv8ck3vbACAteGi8AKOF89zbbrs1K2vkmzJj8lwiKs6boytbGr4h0p1JJpznfvtHe2r++tzYeW68ia+88foE8txv/3DPi397dQJ57ue2f9XX1jaBPPdz278qnCN0HDmGPBdgLCzLlpeXj95eUlKi0WjSXg4ApN7Sa/N2PboqfLtFuSjOzgIxG75RPn6pA8nx+/1EonitP0UiEZHfN/Rd+DU6gyrcp1aqMurXUJfd5ho5ibNbHYEilSGU04V2Vhu0pdRgc/jIZbV5aZ1Oz4ajVUZjNO3XKyWJGwz4/X5KUDERkdtmbaASjUETLlYk1+srhAGH1RH1JEKlThMODkUyOXPlCcZzOkQkUZos90jr9Rq1WmP2rDNa9fKJramVqKyejz1DieTEeGv27tp5xa5de/ZW1TaJ1mkM6lBJCc8lpFRjUI94o1vtVufQBuFGveHKu5fwgCKRSEic2+66cniFyc1xDi2TdDFJvk2TefWS+cDEKSPOOQJAJsHl0XgQDAaJKDs7OzSMznPH6rcwM/JcInK2dW+vOxUe3l+2RFe2lMd6IFUmk+dWP3NkYnmurfa50d0PkslzbX+NMTGZPPfsRx/G7rdwOEGeGwwOHj/yLPJcmIikr4c2AxgMhhELdUMb+agFMsLChQtZliUiqRRX8J4JApcGoxvCFMzPLViQO9bOAy8LIgNxefZqx1SWBjOFRCIh8nl8REzsHfycjyOSMaG/U8Ry+bC1ooxCUUQNHreP2GF/6bhd7gD5XSa12hx1KDdH5Hf7OInbR0VKefQzSlitnk2yYCEFOB9HFG8tusftISHLDvvdhkSukFGNx+0hunISUoZJZkV73NMhkhKRhDVa7rGvr6oRlz9hn8S37UUSqZTzuBwul8vpdDodDmdTK9GacRyhdPdxu46JlOlz201a/QGlSupy6mTJnAsRiRXDXztGoSiiKreHIzkRkVQmC79uCQ8oUem1axyVB25dYi7dqFSySpVKxYbmJ1dMsm/TZF69BB8YaYIy4pwjAGQSRLrpFgwGL1zoHBgYCKW3syrPhZkKea487sRgcPCFw0eR58IEnWmn3kBkeP0y/kqZcizLrlmzpqGhIbwFS3RnOYVCcfz48cT7wTTR0eyvORi5NsDNGwvjL9QFGDcZKxdW1jidHlIwMXdwO1xdVCSXS8lHMRhG7mAAACAASURBVFbHjrFc9sri32EPi+TKHXKJQkR+fyDxOtsxiGQyhmpcThdp2NGPOnUMayatw6P0+4lENPw5RCIREccNW96ZVBXxTydyJBER+TmO8yd53Bg8FjWrPeINCIvWsEpWqTfrXMbNleO5PJqIYRiGiYwZRmYxO+2bjlgdPp1MmtS5jHrpSCQREdGVpbHRkxMfUMSaXB61xWK2Wh32ytojlXu1JRUmu1UrS64YSvrlnMSrl9QHZuwyxj7HSSy4BpgxBCJGsHxfZChh+aqEh0i3OE+4tnBe+p83E4TzXIlEkp2dHT/PfeIJI/JcGLK4gLat5buI2B743g8eevRXP9LeW1JcXOf8W2hjbd3xh6oOxslzey9d+up3/rm27njsiWPnuV0XLmzfveuVN+of+fGDXRe6whMfqjpYW3c8Tp7b1tGh+f79r7wZY6Lz7bfi5LknP3h/87/s+Ljtk5gT4+S577pPfnXXt4NEj/z4wYbGv4c2Xuzp+f7PDW0dHchzIVln24a10k460q24L9OvhxaTTqfbuXNneIg8FwAAxkHEqpXimhqzyamNdf0tzm6yNFHRPWo5kZ2IOI9n2PJYv8fjI7Fi1OJFKSMlIrXRErVcNDLJJhWS0+MbFnx6HFanX6ZUyhOtbJSrlCUHKm0Wu4kd9QV7t8PuDdBGhYwkUikFPB7PsNXHPrcnsuB4POKeTgjn0GmqfOu2bvQdMWhMSud4Oi9wHHflnlWnPeKTP/Cc1aAcujIcZzERjSfSjUHEyBk6wnl8RNIkzoVivdFuHwnl0hjvTnIHlCo0eoVGT+T3OCx6re6ITmtROdik5iZrMq9eKj4wsc9Riy/NABAJGb6uhzYCD5GuYnHB1fkj48vZIDrPzc3NjZ/nPvmk6fHHDchzYUj/AHVGXeYofw5lxh+ituaPH3r0V0T0kPngQ+aD0Q/t+romzvrcD5uba+uOx5z4w3vui7M+94T7ZGjiPf/6wxEP/ex7+jjrc19+o772pdgT//qHI2PluUT08uvOD7yemBPf/PP/jZXnEtH/PP/X0MSKf9kRvV04R/jqs39BngtTrb3Z3+cfDA+XrszjsZjkqVQqnU7X1dUVGup0On7rAQCAaUWiNmiN9gOVGo3CblEz0Tmk32VWa6pbheVPGdih7QGH2erRhDuEeiwme0DIKkfFlzJWUUJVFqtbF7nGlc+slOncarvHrFAqhEccZhununKhMr/DqN5WxTzxsTJxG2iFTl9u3lWt1Sgdwwv2WfWmJhJXaJUSEikV4sojwwrw2822VirVKMYfscU/HZaIs+s0VVz5Ew6r2i2Sb4of6oqGQlzplXO32Yf+J04elztAcrVWGT4vv9vlid9jImmh5aYJz4WIiAJOs8WjCQetPovJHhAqlDFS/4QH9Ns1Mo1DYXaFrqEnYlitUWc5ssvj9pA2qWKSNZlXTx7/A8PFnRz3HAmRLgAFuxyDJyLN4gTL9/GV8PJwebRnPO3b6prCt/QXwItx5blvvfXqI4/oZ2See1VuztrCeeFbcV5G5JLTQGcvvXAycjvTzndBV8zJIaIXrc9ePtMSfSOi8lsVceYFKUhE7/61LnpW2zuNRLTxzhjXRxox0ffme9ETG194mYi+dNfn49YaJKIRddb9yUZEZZ8qjTctGCxcsGDExGerniKiOHluqNRV135qxMSq/Q/nzZ2LPBfS4NVjrTWPe8M3vstJlkQiUalUofsVFRUSCRq3AcxW4vLwTYDLo0Hy5EaraWNR05FtMoXaaLE53R6Py2Ez65Uyxa7a1pKtVmvkklEUqNeptFaXj+M8TotGqasLlGj06tGhlUKvLxc27GVVJrvb5/dzbptOqav1y7Ralkiq0qtLumq1Sr3N7fP7fS6rVmtpFVfoVFEH4nzcGKsrGa3FvFHsPbJNzmpNVofL4/G4HVa9UqGpaRWXG40qCZGI1WtLqcGg0licHs7Pue1Gpaa6VbxRrxvHH45wDXFPhzibVlPNlRstWoYkSpN5h7TBoDG4/DEPJZFKhdRkNljcfiLiXBaNxspd+RFPKmOE5LKanRwREee261WqSi8R50uQKSYgkUiurLxNcC5XBOr1So3F6Qm90ayuLlCkivVGJz6gSK5gOK9Nr7U4PZzf7/c5LXqTi4oUSlmyxSRw5bVN9tWL9dGa3Acm7jkCQAZBL90p1NJy9vHH/5WIgsFgX59/cDAoEgmzsrIHBvp9vmaBQFBcvOydd/46Ypbb/e7f/vbXGZnnElGZZK6VjRefAQDALKdSqaqrq0N3+K4FAFKpYEHuzRsLw8Nl1+bH2RnXQ4MJk2ntTsao0xmO7N15JLK5qPyep0xGTXQrhPIHnpLZtds+UxUaCkt3HLab2FirURmtzeFXq/bs2VSzJ7RFvOYeq10vJyKSKM32w6TSHNi86sDQc63bbTVfSQwlMlkR1VXeKrFsNLvtmtE5IqOxOUU6ja6qas+2qki963YfthjVoRBNJDc6nvOr1JU7b60OtScSllQ8YbfEOFpMI2qIczo+q0Z7hCt/wjK0eFmiNJl32DeZNAa10ygXjTqU2miyOHcd2bnqiFZIgYC4fL/FaN+sJyIiqcZksrK7Dtw6/4BQSIGAeN1u82HGsK2q8lYJ9xxnUSZX/ChSuayE6hwGo0ttlMd9a668llv363ymqNdu61N2i3KM3xonOKBUazHbWe2RnbceGWoUJSwq328zKyWJ5yYy4rVN+OoN3z/65ZzcBybuOQJA5kCkO1XKym7Ky5tHRIODg17vaaLgtdd+Ki9vbmdn++OP/2zOnNx9+34iFotHT7zllut1Ou0XvrAx7SWnw7nevqOejvBw3aJ5ikUFPNYDAJDpbiyh/gG+i0grlUolFou7uroQ6QLMMAULcpO/HlrwwwcjA2GJoEgzFSXBTMUo9Ta3zudyOt0ezi+SymQymXx4i1yVzR8kIjKqDS6nw+WTyBSK0V10IyQKnd2jdrtcLrdPJJXJWUVUlwSRTG1xKw1OpzPWg6zJ9ZrS7uJEMnaM44tkarNTbfS43W6X20cShpHJ5DLpsHBZqjQ5fXqX0+n2+CUyuUIuk0Q9LlHb/eoRL4LOGbzSvmhUDWOejlRt8w0/kERp8QUtY56OTGv3KJ12p5sTMQqFQiYVkT78vKEHHU63T8TIFQq5VETEylQOl18WSsM1jqBmrJecHfa80RRmT9AcKTDeW3NlF73Vo3Y5XS6fSCaXR15bicY+uoAEB2Q0No/K7XC6PD6/SMrI5axMmuTc8b1N0gSv3oj9pVpHUBs5cJwPTIIyEp0jAGQKRLpTZdWqm1atumlg4HJDw+ti8aJ16xQSibi52bt9e/mCBQtffbWuqKiI7xp5cK4nUNnYEh7eX7YEkS4AQDzzp0cP3NRSqVQcx6HrAsAM0/JBb83BSB+YmzcWxkl4B72GyEBcno1IF8ZNJJWzqsTLI0VSOauOtZufAqN2lSmUsrGai0kYhZKJ+aBIqlBp4vUku3IAmYIZ8/BXak3ilJKsIf7pjONQIkahin3moQeHvyxSuTLm6z0pSZyLiJGzTNJPnOCAEhk7dheCib6wNPq1TfTqJfhoTeIDk+AcAWYzQY6ExJF2kQIRw1cliHSnUCjP7e3tjs5z584Vzdo8FyYuf86wy9wXXcVfKQCQXi+cpE+6I8Nta5OcV7pWsvTa6RoHsywbuV42AABAmvlcNpvZ7CSSMVibCAAAw+TLM6Q9FA+Rrq5sqa5safqfN82Q50Iq5QvphmWJdwMAuEK2NkZvn+lCLpcj0s1MFy5cOHOyqetCV8xHu89zt5XfOV+6ePRD3PnOhrfeGuuwvRe6b92wPua67DgT+/r6gv2X17J3jnfipUuXhIOC9aovxnyUa+9oeOedmA/19PTkCeeym2JfjdN7+oznzJkJTASATON3GtS7aqhk435T7EtoAQDA7BXwBFurI0NxuUDM8lIID5HuM56Oo95IN9XD5delv4aphjwXUqyzl96OumD9ikV0TeHYewMA0CvHWjtaIldArri3hMdikuD3OO02q9Xu8vh8Pp/Px/lFEqlUKmUYOatSqVRKGbow8M7j8ay/szw3J+f9s7GDSyJ6sfav66Ujr+/69ptvbdy4sf18R8wpIcePH2dZdsTGV156+Uv/9CWuK3aCHGei/X+f27Z9W/yJwWBw9Mbf/ea3+n/d29YRr9SYE02/euQ/fv7zjs7z450IABlIpLJyl0SiWNdJg+lGZfV1+kX4RwQApEzQ74luDyVYvm8WRbrnegP1bd2J95u2RuS5Z8407dy5EXluSJkk71BUiF+cL+SxmOmkf2DYN68Xo/ECACTQ0exvOd3LdxVJ8LttBr3eXNM0MnwLtHq7Wr1NDfW1NVV7dwpLyjUGo1GjwA9lPAnluaI5c54/9Ix00ch1uN//j32/tjw5ODg4euLbb7511113lV37qT/XOefl50c/NDg4eM+//vD3z/735cuXR0985aWXN/3jpttuXnvU/KRIOCxZ8Qf8W7Tfrqt/7ZLfP3qi/X+f2/zlL39xw+f+YPrPnJxh/9a92NPzxZ1fb3A3dl+8OHri737z23/Zpd2xZWvVL36ZlZUV/dB5rlN5t9pz7qPzsdaPm371yJ4ffP/fd3//33d/f8RDvrZPPrd9i6/tE+7ChdETZ5s5c7OWrow0hClYMCfOzlmrj4fvC3LwJx/SDHnuzCGSSPBmAsCMlJV4FxiP0Xnu17+O9bnDCEgQvvFdCwBAxpufR4sLIrcZhXOZNXLpqs0HQnmuuHRdxT37n3jq8LHnjr/22vHjzx07/NT+3Ts2risREgW8dVU7b5XKVEaHj++6Z6Fk8tzf7P/V6ImRPPepP46V5x6qfGL0xIR57itvvr7/gZ+Mnpgwz2384NQv9xpGT3zGeiR+ntvS2vqrHz84emLCPNcfCNz9la2jJ85ChctEFfeVhG/x+8PgX4wAAAAAceDyaKkUM8+VSpc8/7wdeW5II9e7ve5UeHh/2ZLZ0FgZAGDibszwhgkT5XdbNCrtkaYAERWt26rTG7SqWL0V1Bo9kd/jsJiMRnOtt6lm73qnfb/Npsdy3bRJMs/VfHXrPz+wJ/qhJPPcL2/6wohjJsxzHc7X7E8fGRjoHzExmTzX/vSfui+OXDD7jPXItm9+I36e+/yho63tn4yYmEye+/yho08fPUJA1H2+v+mNyIL8pSvz4lzFceAEGxmIyzPkOiQAAAAAGQKRbsqMlee+9NKL8+fP57s6AACYnt72UmdU/4QNq/grJXU4p16pPFDfRSRes8NsNatl8b8SKWJYrYnV6GwGjfZAXWvdXlbusjqtKlyzZuoln+eOeGhK89yj5t/dfsstdc6/RT+aZJ574/XXj5gYynO/+eWvxs9zZStXjoh0k8xzmeJiAiIi6j7f/4a9LTy8eWNhnEgXAAAAIAMJ8uXD2kOJGL4q4SHSVSwqoLL0P+3UQp4LU2txAW1by3cRAMCHzt5hrbSTVnFfxi7v9VjUoTyXqERlNCXKc8NEjMpgdNrZAw2BgPeIWsk4nEYF2uNNpQnnue7GkynPcy9fvhzOczeWsyMmJp/njpiYfJ47YiLyXAAAAIDZKUO6QvGzSjdDTj5VkOfClOsJ0Nn2yHDxVTOupSYApJj79a6LnZGvpd+8sZDHYqL4nTqltraLSCgUBgLeapVCZHOYlcmst+WcRqXyQEOASCgWBroaDqjUcpdNjaW6U2Qyee769SxTXJzaPPcbuu8gzwUAAAAAfgV7XIMn1oeHguX7skoMvFTCQ6TrbOt+rPHj8HB32ZL015BCyHPHpThfeH/UO65YhFwyOT199G5zZHg9IdIFgPiaXudaTkc6NmRKpOsyaSubAiQuf8JplZmVysqGpioV67c6LAm6KER6NZRsPewwifTyzUdaa3R6u9KiRFfd1Jtwntt8rnn7N7+xdHGR/WnruPLcxvf+/oD+gTh57p9feD5mnvvWG2/++Cc/QZ478wiW74vc5+8rjQAAAACZCb10JwV57ngV583B9dAAAGYrn0VvbCASlhstWpmUTA6HSKk8UN9UvVnhP+ywqpkx5nEOPas80BAgYemOofTXbNnq2HSktVpn1LmN8nSexCww4Ty3IH/eD/Q/WlYktT9tXSAZ9g+h+HnuvLz8ieW5+Xl5P/7Jj7+44a7x5rlM8dUTy3OXFUmR507YwmX/n727j2/quvPE/5V50MXG6AZsLDCNREhrxSVYSQArTVpdfunU6m6nFlumiHSyFu10EJNMEO20Ebvtoqa/KWZ+6Vpk0iKmO0F0ZoNokiLvTgfRNMN1HoqcpIlMGiPSANctGJknyziYK4yt3x82V/KTLNmWrmR/3q/7h490j+5XEhzbHx+dw9Q+Hl8TpnjhnCQnyzXhBQAAACAvINKdOOS5E9AaufHDlj9Jza9oFm3QLpKxHhhVJBJhWcx6A8gNebIfWkrjRqDeebSLSGOrt2qJiIg11Pv9rMm0o7nt0CaOaNRUN8LbOdOeligpK7bE12hgTfVOo29r0ym30+fwmWfckJW5gXrCee7RJp5RKpemn+d6XjoUi8UeXlOdbp7b+Mqvb93qm0Ce+7L/38+FL0wgz933rwfOd4QnkOee/VPb2vseICBKffW1xI80UlFVwQpXJsoBAAAAyFMF458Co0GeOzHXem81X+qWjnM9UbkrglEEg8Hly5cfOHBA7kIA4Pb2aNKRq8xm8+bNmwVBSHIO7/G2ESmrHfaETc1Yg4PnG4wqorZDmwxmT0gc0ifstxkG8tyqbb7AkDV3tVaHWUXU5Xf7I1P7ZPJBKi/4BEwmz7V++2+XLVlyNP08d9vO//7QmrTn5/7D3uf2/e8DX3rkz/73nvTyXKfrmX964eePrd+Qbp67xfF3v/jV/5lAnvuP+//Xv/zypUf/8ms04105LzY+1yYdobeS/d+NdfHx43owa0UCAAAAJKFgtIo7d8YPlpOrEhki3WWFyrUl86Uj+wVMHvJcyLY7CumRe+LHXRlfE1MQBKvVOhDsRiIzMC0ByBnvttGrJ+NHyh5aX1b7uEY6MlegxOPxLF++fPPmzcHgqOFL0M93EJHBatYOvYPR2/2BvTVlRB2NmzmzW0p1w34bZ953KkrKqm1+3jV8zVyGs5pURNGAjx+aA88Q473gaZuCPPdfDk0sz/3lvufTynN3733uB3uemUie2/BM/U+ffWz9hn27nkkrz/1rx7f/+RcvTCDPffb5n23/4f/Y+b3vb/vWdgIAAACAfKfUFmic0qFQcXIVIkOku0G7yMtVSEf2C5gk5LkggzmzaHFx/ChSZueyUrA7hZEBAGRHSTmz9O5C6cjadT0ez3333XffffcN/4NQJBg4RUQVBm6UfdAYnc3H768pI+o4utVgcgVFCvusA3muqvopnndxoywywBhMBiVRVzAQytjzyXkDL/i6desm+Re4/Mpzn97zzH+eWJ67d4J57vO/ODixPPdb/+/Ond/7vvOHTxMAAAAATAPXg/0n1klHrMMjVyEyrKXram1/tvWC1DyzIZ9WFkOeO7UOHDjQ+Nav5a4iD+iXrmj40l9LzQO/+43nd69k7nLDQoFIJOLxeDwej1arNZvNZrPZaDRm7uozQCzd88+cObNu3brxT4TpyPXnW6qW3CU1U/+XsO7u7aXzPyk1fxH8mymubKiWlpbEZjAYtFqtRDQwaNTW1rKhoEBESp1BO/ojMDqrP0BmbnNjW9N2Tu9hT7W0Eamqd/n9DsMYi8ayOp2ajrb94Z8fMzaXzKy1pIa94DzP8zxPiS94Oivt5mOe+8KevVOY59Y8ZrlwcSJ57iOPbogmzXPvW1XFv/4axw1/IjPT4vmfWvfJ+Gxlj8fznfpfjXXyqz+Mf93S0vKtJ7lMlgbDXb58eeCLWCzdn1sAAACms9itSKyLj7dVxpR3Cphi2B4tDX19t95/P4g8dzIMpcUDIT7DMNEoFtJNWWU3fSneEgRh4Ff3LBMEweVyuVwulUrldDrtdnv2a5gGJvCb0fWPr7/13rsZqAXyQOSzG2lJvJn6//37SjaXJixuJMugQUQ+n8/n8xFR7UOfuEJELMsyY5+ttfp4xsJtOtR2qqWLSGVs4P12fZIOrJolauu//PvX+CkuPF9JL3hdXZ3dbtfr9eN2yaM81/XPP5Mlz/2u7YnR89xNG6I3k+W56tLF751oIbht0YKPeq7MlZp/OPf2h+feGuvk2Z9LbEWImjJYGQAAAEC+QaSbqlgsduLE2zdvishzJ+Ncz82XhStEtHL70319fUz7aeb8abmLygP6pUN+ydRqtRmd7xOJREZdZqGqqorjOKvVmkpGAGNRpP8nvKL5RZjhNWMFOk4LPVelZur/EoZN0sz0P6FgMDjyU/8qlWpg0ijHcWzQzq4bf9NFURQj8YVxxbAoEiWJdAct1D28Sj2zfqQZ/wVPbZZufuW5//3/+1H289xtX//mj77734bdNTg/N2mee9+qqgV3sBV0D0GCj+n30tdLVsxbsmLMz/3U/T9t0tfhTuXR90ZZswWyYPHi4SMDAAAA5IKZ9fvPhPX390WjN27c+Pgzn3kYee5knLse3dPaTkT0wCNEVFe5xF65VOaa8sLF7sRtkerq6uqeGf7r5RTieT7xw90qlcpqtdrtdq1Wm7mLziTpZrqKu+666+BLL2akFsg3dZTq//3G59raT/dIzWPHjmWmokEcxzU1xefQGY1Gq9U6sPbCIJZliboikfDYIa0YdJtNW492EJVVVzPB5rbm3Rwn+kdfSJeIiCLhCBEpP7vrFZ95/OR3Ohn5gtvtdrPZnNaD5GGe+/mRea4YFSezfu5Yea7d+b2BPPfH3/vBsLsG1s9Nvt4C1s8d1eXz4pu+DqlZsYbVrVWNdXLf6wnfLlXGHQ18JksDAAAAyDOIdMfX13frzJlT/f39a9asRZ4L8hjYHk2Sre3RRgllACDL3m2jzngyS4+kOuNvUbkMEWeyvwBp9VqitmgoGCLLaBP9xaDLxG1v6iLS1O7nfVbGb+PM+0617DFxos/vNo02QS8SCoaJSKvTzqw8VzKZP7nJlefqKz89tXnuV2zfCJ784D8OHp7C/dDszu/99F89SfJc7Ic2MTdv9Ld/FB/Qlq7I3s6NAAAAAFNCoeJmfTYnFpqXIdLdoC0xlBaPf15u6O/va2l5Kxq9MW/ePOS5IJs7ClPPcaaERqNxuVzpTvgCgKnX2UMXuyfQ7+H1ZVNeSxIsy+7cudNut4/5eX9Wb6igplOn+IBAeu2wOyOBepNpR3MXkWbjQd5r0RKRyR3wM5xpT0vLPjMn+njPiFRX5P3BKJFKz+mm/AnluvFf8KRkzHN/5XlhavPcN99569+ef2HK89y/tX4DeS4AAAAADHcrQtcTNktgNKTUylKIDJFu4GL3y21XpKbBmLvxbn9/3/vvv/Pxx9d0Ot2bb/7byZMtW7b8OfJckEFnD70bX1GOlpfSXSWZu5perxcEIXOPDwBZ8Mbhjivt8VVpax/XZPRyHo9nvGxRb+Y0u0+1NXt8gs2uTbgjEnCYTLubu0ip2ejlvWbpPpZz8X6GM+1uOXXAbCAv7zEP6ef3+ruIlJzZMPMm6Q7sgTYx2c9zvf+3Ucpz5xcVJd41JXnuw2vWDOuIPBcAAAAAMiF2Pdh/Ir5SpeLOnQUapyyVyBDpnuuJNl+ayISjLBvIc7u6OteuXXv+/Jnu7q7Nm2vuvFODPHcyKtnCF4yfkprLsrWAQN7r7RsyTW/xgoxebWJzvgAgp1w5LyaupZtpqYwbBpulYt/uU82uet7m5gZT2Ahv50x7WqKkrKjz8h7zsJm4LFfP86zJtKO57cB6Trw9g5eIKOSp93URqcxWM8as1I2b5+55/mf/a3fD1Oa5T3z/KeS5kK6CVfEVwBWz8b8cAAAAYIiZvpbu9evXjhx5YeTtsVj/H/949saN6ytWrPjtb692dLS3tv5u5Ur9r3/9b8hzJ2PBnFl5tOwGAID87phGa03q7c5a96bGNo/DbQ/YdURhv81k3tcSJWXFFh8/+nq5xBocPE8mbkdT26FNnCjyXquWoYjP4WyOkrLK4ZxhG6NNRip57v/83tNTnud++pMVyHOBiJbeXbi1IdWFpBQqLpO1AAAAAOS3GR3pLlq0+M47NW1tvx92+61bt44efTkcPvfVr371xo2CGzcoFqP16y3/9E975s+fL0up00bgUvejTR9KzScrl9grl8pYDwBArrs/swsmZJfaUu+o9+9oaXZY6zmv3m0y7zsVJWXVlrH2PxvE6B1+njGZtje1NW42mEXezTpsjV1EGqvLPvPW0Z2g5Hnuf/uHHw3kuU9+/a+G3YU8F3nuVIne6E9cEKb4jjnFC+eMdXLf64p4Q2WctYrPZGkAAAAAeWZGR7rV1Vx1NTfsxmhU3Lp1/dWrF1955VWj8eGBG2MxUiiGdwcAAMi4M5epJxpvriyXr5SpoLO77V5ud0vzDoOOolEiZdU2P+/ixv1QNaO3+3nGzG092nF0q16njEaJNHUuJ4cpuilJnuc+vefH/+B+Dnku8txMu3JebPxJfG+A1TUla0ylMtYDAAAAkC5FkX7I8lCMVq5KZIh0lxUq15bk6FzXgTz33Xff+NWvjkh5LhHyXJDb4mLatFbuIgBADmcvDVlKO+VIt/aJ3JzeyxjqfZ6QYVNjR5SINHW+VPLcwa46m4+PcPodzdFolFTVu3zu4UvvwqjGzXOf3vNj5LnIcwEAAABgfLPZHFkeSoZI17C4+BM5uSnWWHkugPx6+6gzYZujormUk/+JACB3XD4v3hT7pebSFbmzJq/W4vULJm5HUxe1ee1WvcdjN6SS6oohr91a3xwlImXFFq/PoccM3RTMhDx313PPIs8FAAAAgCyIdfH9J9ZJTcWdOws0TlkqkSHSfUm4/GzrBal5ZsMD2a9hJOS52bFgzuzEOdrLYSwVTgAAIABJREFUCpFLpqazh149GW+uLKd78/zD1wCQYW8e7mg/Hf9TUOpbEmUDo3fwQZ3NbNnXcqpx+4NaT63N7rBbDOoxMtpIyOeur3cdaO4gItLU7vV5bchzUzFD8twfPPsM8txpSGWUvlQU6WUsBAAAACAHzei1dCXIc7Omkp3n5SrkrgIAAGSnNbsDQc5us3uaOload29u3G3TVHEGjuP0WjXLMiRGIuFwKMjzfr65rWugk6pqY73bbUtpUi8gz0Wem2sWlTO1j8fXhEmyNxoRYT80AAAAgCQQ6SLPzapzPTdfFq5IzerS+YbSYhnrAQDIdfdrqLdP7iIyhNFZ3LzZwbudjnpvc0e0reVoW8vRQ6OdqlRVmWzOeodZhzQ3NZPJc+u+/befmBZ5rnDuT6+9+H+R5+YO5byCpXenughM4kcaqaiqYIUrIzUBAAAA5KeZHukiz82yc9eje1rbpeaTlUsQ6QIAJHNH7qyBmxmMlrN7AnZ3OMj7/T4/HxLC4XA4EiFGrVar1Wqt3mQ2m01jLsoAo5hknrtMPU3yXP/Pf4E8N6e0f9TT+JM2qbm6pmSNqXSsk2NdfGIrg2UBAAAApEwxmx2yPBSjlauSGR3pIs+FvFE0d8g292UL5CsFALLr1ZN0sTve3LQ2xX4Va9nUZ8PlAEatN1n1JqtD7kLy3+Tz3F//ax7nuR9fvy7lufevXDmsI/JcAAAAAJiUIn2OLA8lQ6Rrr1xqr1ya/esOgzwX8kmREvuhAUBadGtVcpcAMphwnnvs+G9lyXM5w4NTm+d+afPXkOcCAAAAQKZEhVjHgXhTZVSoOFkKkSHSdbW2P9t6QWqe2fBA9mtAngt55mI3vXoy3lxZjoQXAJJrfK6t/XSP1NzacI+MxUB2TCbPffRvt8iS57687/mpzXNbP/oQeS4AAAAAZEhMFPrbnFJTcefOGRTpyg55rowMpcWyhPgAeSrY+sFrzce/861vy10IAOSB5cuXD3yxrFo/6gmj5rl/bG//s69tIKJLV68svv/TI3vNmTNn1Dy35WTrX27bSkRv/u5t9t5PjtJx9mzfz34+Ms/d+y8H/u7vdxLR0df4+ffcNbLj7FmzfvPCL0fmuT/9uef7/7OeiPa/6N3/ondkx8J58/hDjSPz3F3P7Xnu588T0Z7nf7bn+Z+N7MguWPDOv/0GeW6mzZ1XsHRFfEGY4oVzk5w867NYPxcAAABgTDMu0kWeK69rvX0nIzekZnnR3GWFyX6aB5jJgq0ffP7RDZpPfOKbj2+VuxaQz7TfHg2mSn+MiB56YM0jD39u5J1Ngd82NR8fmecK585Zv/0EEVm+vP5Ty0dJV5sCv71169bIPPfd37//145vE9Gm2vWf1I7esffWrZF57htvv/Xjn/2UiL5m/soKjXZkxwMvHSpXLxmZ5x5t4vf+q4eI/se20f/KdeClQ1/9Uu3IPNfzovfnh19M3tHy5+uR52ZBSTlT+4Qm1bO7muJfz1ZR0eh/qAAAAACYmWZWpIs8V3atkZ5Hmz6Umk9WLsmFhZUBcpCU5/JvvM6yrNzlgHzuTzn+gBmuQEFEjzz8uVGDy6eJmpqPD7tROHfu849+hZk3j4i+afma0fCZUTvygd8Ou/Hd379v+q+WyooKIvqrjWl0fOPtt7709a9V6u4Rzv3p61/dNGrHpsBvR07OPNrEf8X29eo1q09+9OFYyWxT4LeMUjnsRs+L3r/e8Xf/5cu1fzh7JklHpXL4H5iR52ZC99XeU293Sc2lKwqT7OLYd4KLN1TGHNmHBAAAACBHzKBIF3ku5LE5s2hxcbxZNPxXVsisiX70MzbRjshzIe7dNuqML4lLj6S6JO6iciYj9cB0IeW5x15rWrJkSeodpTz3yG9eKS4uHr/DbQN57sOfeWj73327pqYm9Y4Dee6XvvhF2xOPN33+86l3HMhzn9z6N7UbvvKS73DqHZHnZkj31d63/Zek5uqakiSRLgAAAEAOUhTpC1YdizcZrVyVyBDpGkqLqTLbF0WeC/ntjsLUcxwY1fWenvFPGs0N8catvlsT6ChGo723eifQEXkuDNHZQxe7J9Dv4fVlU14LTBuJea5arU69Y2KeO3/+/NQ7Snnu4f/TGAgEUu8o5bkHX/zFG2+8kXpHKc9teO4feZ5PvSPyXAAAAABIQkEKuUsgkmuWbpaffDQq2mzr33sPeS7kretROns53ly8YMik3Tz0vWfqJ9Zx90//cQK9Ite6fuB6ZmIdXf88ykY6KXS8tv8XB4sK0558hDwXpkrora6PO+N/VFhdUyJjMZBT5M1zGSaN+eOJee7s2Wn81DqQ51q/9ljDc+l910CeCwAAAABJxK4H+0+sk5qKO3cWaJyyVCJDpBu41P1s6wWpua0yjc/6TQDy3JyyrEj5ZMI7bijN71wye67fpPfPx5srKa8j3W98d/urb742kY7f2f7GO83p9opc6/r8oxsuXrk8/qmjdPyLGNHs2XPS7Hjt849uIAXNmZNeR+S5MIVOvRVpPx2fnI5IFwbMhDz35SO/Gshzf+Z5PvVehDw3xyju3Bn/Wr6PNAIAAADkpmm+li7y3FyzrHAu9kOb4b7x3e2+Xx854Dnwlb/YkHbHV47s2fPsX31z+I7tSQzkuWfP/ekHTz/9ne98J82OfxEj+tZ3vr3r73+UTsdrn390Q0xB3/jmN3/5ixdT7ziY5975Cf515LkAkBEzJM/92ratA3luQUFB6h2R52bBonKm9vH4lo/FC5P94VOuCS8AAAAAeWE6R7rIc3NQa+TGD1v+JDW/olm0QbtIxnogywbyXP4/jikL502k4zH+2sdpLCoq5bk8z58+cybNjn8RI+LffN3r9abTcTDP5d94/bnnnku9I/JcGBPW0YapM7E8t/v6xxPLc7u6r00sz+2MdE4szz350R92/fTZ/7rpa+nmuYH3fvfr13jkudmQ8upriR9ppKKqghWuTJQDAAAAkKembaSLPDc3Xeu91XwpHslVl6bxmyHkOynP1T9w/8mTJ9PueIzX33/fa6+lumJDYp6rv+++1CPdxDw3rXQ1Mc9NqyPyXEims4d6++LNfF50BbKgqfn403t+PPL2V998nYiS5Lk//+WLTc3HR95+9LVj74dOGh5YPVaeO1bHfz/26u9DJ//skc+PleeO1fHDM6c7Ll/+L7W1Lx7+5ch7iWjUJ0hEodMfNTUf//pjdf/8c09aHT/48NTlzqvO7/+PnU//YNQTYKpcOS82/qRNaq6uKVljKh3r5FgXn9jKYFkAAAAAKVMw2iHLQ7GcXJXIEOkuK1SuLclskIc8F6abOwqHzNQrmitfKROUmOdOpOMxXn//fan3GohlpTw33Y4TiGWR50KmvNtGFxMmp29am2K/h9aX3bzRn5GSIFcZjUbqjzW9+/bIu2Yzyru02rHyXKPRKHRcEDoujLyLKSpae98DY+W5SToWzZ+/ZvXqUfNclmWNnxuz490rVmiWa0fNcwc6jvoEiWjF8rseeuihUfNclmWNn/vcWB3vvmvFn939Z8hzAQAAAGB8Sm2OLA8lQ6S7QZvZz9ojz4VpaM6svJ6aN9k8d0Kx7Nlzf0SeCzNZSXkan3OH6YHn+THv649RwZifeM9yR71ezzdlv2PTBDoCAAAAAAxxPdh/ervUUpTVKcqsshQiQ6Tram1/tjU+KePMhgem8MGR58L0dLGbXk1YqWBlOd1bLl816UGeOxbkuZBRjc+1tZ/ukZpbG7Am78w24cgSHQEAAAAAbovdigxZHkpllOtHyWm1li7y3NxnKC2e2hAfchzy3LEgzwUAgJmmeOGc1TUlUrP87qIkJ8/6LNbPBQAAABjT9Il0kefmhXM9N18WrkjN6tL5htI8Xk8Akstyntv98ceDeW5Tk16vT71jV3f3lzb/pRx57p38668hz4VxLC+lxQvkLgIAYAoUL5yTZD+0YWJ/TFjdWKmR6yONAAAAALlpmkS6yHPzxbnr0T2t7VLzycoliHSnq5/+y4GWkx9MIM/9h30/aQ6+yx9LL88lor9yfCt86SLP82nluUT01b/5q9lz5qQbyxLRxPLcW319yHMhDXeVjH8OAEA+uHxefNPXITUr1rC6taqxTu5vc8YbKuMsRLoAAAAACaZDpIs8F6a/YdujFSnlK2WIWCxGRAdeOsQff3PYXe+cCL75+htj5bkDHX/68/2li+KbJd4QbxDRm++89cbrb+jvT5bnPvNPPy2cN09qXum8SkTt4fBrr782VhA8cMWn9/w48cY/nj9PRDGFInkse72nZ1jH0OmPiGjcPPfSlSvDOja/9+7HH3+8auVK5LmQqldP0sXueHPT2hT7LcL2aACQY27e6G//KL7G99IVhTIWAwAAADABChWXI8tDyRDpbtCWTOHETOS5MCPcUUiP5OLWRnPnzjUajcKlsHApnHj7Q2urrd/4epL5uUVFRUajsfVPZ+lPZxNvf6Cq6u+eeipJnsuyrNFofPvUB8Nuf2BV1Q9+9PdJJvaWlpYajcam4DvDO1ZVvXj4cJJ0denSpWur1w7vGKNPV+iS57kajebT964cccXYA/fd98p/vIo8FzLt4fVlcpcAAAAAAAAwvUSFWMeBeFNlVKg4WQqRIdINXOx+uS2+mqrBOPF4F3kuzBSdPfRuW7y5vDRHPovNsizP8xPoqNFoJtZx1apVo3eMESXdZtJoNE7sil/+8pe//OUvj7hcjBTjbGv52GOPPfbYYxPoCDAl3jjccaVdlJq1j2tkLAYAAAAAAGAaiIlC4vJQijt3zqBI91xPtPlS9/jnjQd5bj6qZAtfMH5Kai7LmQUEcl1v35BPXmOvpJGyHJNOOJZFngvZcuW82H66Z/zzAAByUsGqY9LXitn4aAsAAADAEPm6li7y3Dy1YM4s7IcGAJCGO7DWJABME0vvLtzakOpCUnJNeAEAAADIC3kZ6SLPzV+BS92PNn0oNZ+sXGKvXCpjPQAAue5+LJgAANNE99XeU293Sc2lKwqX3j3mX636Xk/4XIvKOGsVn8nSAAAAAPJM/kW6t271Is8FAICZ4sxl6onGmyvL5SsFAGBSuq/2vu2/JDVX15QkiXQBAAAAcpCiSD9keShGK1clMkS6htJiqpxg31u3en2+f7l8uR15Lswsi4tp01q5iwAAOZy9NGQp7ZQj3donML0XAAAAAABgSs1mc2R5KBki3WVFygeT7mSkUNDu3d8a9a5IpOvixfNHjviR58LM0ttHnQnbHBXNJewsBwBJXT4v3hT7pebSFZgKBwAAAAAAMCmxLr7/xDqpqbhzZ4HGKUslMkS6LwmXn229IDXPbHgg8d7CwsLHHts0Vl9RJLV6EfLc/LVgzuy1JfOl5rJC5JKp6eyhV0/GmyvL6V58+BoAknnzcEf76fifglLfkggAICeojNKXiiK9jIUAAAAA5KCcW0u3qKjo0UcflbsKyJRKdp6Xq5C7CgAAAADItkXlTO3j8TVhihfOSXIy9kMDAAAASCLnIl2Y3lojN37Y8iep+RXNog3aRTLWAwCQ6+7XUG+f3EUAAEwB5byC1PdDS/xIIxVVFaxwZaQmAAAAgPyESBey6lrvreZL8X1+qkvnJzkZAADoDqyBCwDTRPtHPY0/aZOaq2tK1phKxzo51sUntjJYFgAAAEDKFLPZIctDMVq5KkGkC5APiuYO2ea+bIF8pQBAdr16ki7G/xJGm9am2K9iLZv6bDgAAAAAAAAYX5E+R5aHkiHStVcutVcuzf51AfJYkRL7oQFAWnRrVXKXAAAAAAAAML1cD/af3i61FGV1ijKrLIXIEOm6Wtufbb0gNc9seCD7NQDkmYvd9OrJeHNlORJeAEiu8bm29tM9UnNrwz0yFgMAAAAAADANxG5FhiwPpTIqZKoECy9AVhlKixHiAwAAAMxAc+cVLF0RXxCmeOHcJCfP+izWzwUAAAAYEyJdyKprvX0nIzekZnnR3GWFyX6aBwCY6ZaX0mIsnw0A00FJOVP7hCbVs7ua4l/PVlGRPhMlAQAAAOQpRLqQVa2RnkebPpSaT1YuwcLKuSYccNe7/cGQEBYZrVanM1kdVk7NpPsIfFhtddWb1Kl2EgXe6/b4AiEhHCFWrdWbLFarxRDvH3RbXSGT02XRjvUIAbfNLZid9eaxzpgaIa+t3i8OvY1h1TqdwWQx69gpuUaEr7d7yOJymKbm8SCv3VUidwUwYNxhisYbqabTMEWZHamy9BSmjbz5rtF9tffU211Sc+mKwiS7OPad4OINlTFH9iEBAAAAyBGKWCzbn2nCWrozWeBSNyLdiejsoXfb4s3lpZlJecI+K2c5cCqqqjAa9GomIoQCzae6lJqNHt47ZpQ6jOA26LY2MxVGS73XbVYTiUGvyy9yNqthrF80xaDLYnY0tkVJqdLo9WpRCLW0dREpK+o8PrdFxxAR+czM+qDtuOAyjPEoEa9JvUmwvxeqn+Q0nnEK5q3qdQc6lKoy9nbOLYqRrq4oEamqtvl4Fzf5X6jDbsOSrWLD2aBdO+nHgrz3bht1xpfEpUdSXRL3jcMdV87HM7E0ZsbBSCkNUzTeSDWdhinK7EiVpaeQQ8b/Xpns5Lz5rtH+UU/jT+I/z6yuKVljKh3r5L7XExamQ6QLAAAAMJQMs3QNpcVUmf3LAuSzOwpTz3EmLOKzWQ+cYjceDHgs2sFfokXBZ+PWH7DaTJzfmsqUWzHoD0bLtvAh9+1AIxJw79gR2WUe69fUkNvEbW8SNbUNXo/99jliOOCxWewHNnERCvosqVyZ5Zzew6JOm8KpyY1XMBFRVX1w6C/OkaDbatrauMfqtIydOqeMNbkOHxb1Kc9xhmmts4cudk+g38Pry6a8lpkKw9SoMj5SZf4p5JBU3tOxT8Z3DQAAAIBsuRWh6y3xJqMhpVaWQgpkuaqCFNIhSwEAeeZ6lH5/Pn5MKN8ZV8DLd1G1o17Kc4mI0Zrdro2qKO/lI6k9iigSsWzKCzWEPTZ7U5dmiy/osyf8HsuoDTZfwFNb1tFot/tSu7TaYDZzcn0el9Xb3E4jUVsgIEz+0RitwWzmtOksdyERxfTvgWkp9FbXO0cvS4fc5eQxDFNjmPBINeHBaMqfQlzaNU1qRE2vcwpnZ+a9wHcNAAAAgBFi14N9Jzjp6A975KpEhkg3cKl7T2u7dGS/AJDRsiLlk5VLpMNQWix3RXni+k16/3z86LiWgWuIIolEkfDwYILhHN6DHrs+4TfFSNBt5XRqRqFQsFq9ye4TBn7t4+0GgyMQJcFj0RssHoEiPpuBcwaIQi6z3mAbGXqEXPVNUVWtq3605f/UFpezWtnhc/nCt2uMBG5fmVHr4hcmIhL9doPe7A5JN4T9DrNeyzIKhYLRclZ3IPHqkYDbYtCxAw/EWV2BgUuMW3ASLMsqh9+WtIaBOxmFgtHqzQ6/wDs4g8UjDJZhsHrDCSeP9ZoPPHGDzRcOeW0GNaOYN0/BaDmbNyRKPb12TscO3KPWm+v9iY8L09eptyJv+y9Jh9zl5K80hylKMlKlN0zR6CNVjgxTNHKkmvgwNZmnkKx+3mEwWL2hoMfG6dXMQFkOaQgU/TaDweYPhzwWHTOPNftSeEHGGVHH7Jv8FRj1PRUFn8Ok1w5eitWZ7AOnj3rylL4XOfNdQ3HnTukoKLPKUwQAAABAzoplXcMH55e/+I50ZL8AgPzTcS32QnP8OHEuExe5sN+oJFJqjFv2Hjt7Y8zTOo9tqVASlRnrdu3d27BtY5WKSGVsOBmLxU4ebniqtoJIVb1l1679xztjN947uGtbjYaozLht166D7w1/1At7q4mUtYfHvFr8hMO1SlKWlamUGuOWpxoanqqrLiMilXHvydt1HaxRUsVT7w20Tu41qohU1XVPNezdu6uuuoxIWbHlWOfAqUe2aJSkrKjd1rB3b8MWY5mSlFVPvReLjVtwLBY7VldGVNVwdsTrcqSujOIFjFfDhcMby2iwhoan6qpVSk2FRklVu07GYrELe41DrpHkNb/9xI3GsjLjlob9Bw/u3WYsI6mSCwdry4jKjFt27d2/v2FbjUZJyuqGkzHIH79pHfLfP2W+fxR+am+VjswVOM2lMUzFYuOMVGkMU7ExR6ocGaZiw0aqSQxTo0nxKYzzGh6uVVJZRYVKWWase6qh4ak6YxkRldUePBuLxWKd+2uIqmprNUpVRU1t3d73xn/ApCNqsr7JX4FR3tMLB2sGH2zv/r0N2+qMGiWRZtvxG6N/n5rC9wLfNQAAAACS6Y8cu/UaSUefsFOuShDpQlZ90Nlj4U9Jx4tnL8tdUZ7ISqQbi509WFcxOP1Jqaow1m7Ztf/IexeG5gUnd1URqWr2X7h9w433nqoiUtYc7IzFYrEbQxKLWOz2L5q7Rv118PiWsjHvG3Bsy+Cv9YdrlURUtvGwdOGBtEG18fBgTptw5Qv7a5SkMu49G6/iYK3q9qWOb9MQaRKCk7MN1UpS1R0bv+DYYNCgqd21d/9te/c27NpSU6GkMmNDPF1JWsONY1vKiCq2Hb99+o2Tu6qURKNHuslf886DNUoa8hv3jSN1ZUTGvRdisQv7jURldcekso5vq1ANqQqmLUS6UyONYSoWG2ekSn2YiiUfqXJgmIoNHakmMUxN/CmM+xoOvh21B4e9HQODYuf+GiKiim3xxHacB0w2oibvO/4rMPQ97TxYoyTVxiPxb8And1UlFDL8H8DUvRcZ/q4h9vSd/+i6dFy7cjPJyYm/LN1qMU5NBQAAAACTkzuRrjxr6cKMda33VvOlbuk41xOVuyJIpLV4QpGzxw42bNtoUIcDjft2bP7ifUvUOosrePvDoyGft4U0Vmd8rzRG73DUKqO8l0//I7SiKBIxTJLV/xiGIRJvrwZRZXeapQurzfWOKury+4LDO0X8Xj5aZnbatNJNaovTVkEtPj5MQa+vjartjvh+6VprvWuXw8Sm/gTaGnds3Xzb1q3bd+w7eoqptjot0voUyWsIeH0dSqPdYbh9OqOzObgRH4gekMprrjTZrTrpbp1eG39xlRQJ+YO3PzZrcIUiET6hKsh5A9ujSQdkWbrDFKU2UiUfIogmP1LlzTA14acw7ms4oMLqtAx7Ozr83sDtqmocztuv8bgPmGRETaWYNF4B1uwVLgge0wSWVJ/ke5Hh7xpXzouNz7VJR+itdBYOAQAAAMgBCkabuDyUguXkqmR29i+5rFC5tmR+9q8LkMfuKKRH7ok3i+Zm7lKMlrPYOYudSAyHeL/HXe9uPLTdEGZDvFVLJIQEUnKcPrELqzfoqFEICUS60R90LCzLEoWFMJF29BPESDhCpNMO/Gaq0uuHXEBrMJRRixAKEzdkm+9QMBQlMeiyWNwJDxWKEImhcIQNhanMpE+8IsvZHFw6hVdsO+ZP2IddDIf8Lptjt8msDgbsunFrCFOog9QWQ2LVrJ7T0tHRLjbOa64mIlJrtaPuuMSaHbYqfs/uB5e4K2pMJs5klnFzJpiYd9uGJLmb1qbY76H1ZTdv9GekpBklzWGKko1UCf+Lkw4RROpIaLIjVd4MUxN+CuO9hgM3qAxDy9IaDGW0LyREBt4OtS4+Io77gElG1HH6atN9BRhWrY4IQT4YDAYCgQDPB051EFWl0HOS7wW+awAAAAAkp9QWaJxyF0Eky/ZohsXF2z9dLh3ZLwAARiEKAZ+PDyXMl2HUOpO13hcKNFQro0317oEpZqJIxNDQiUMDc9Qi6c/S1XF6ZdKty0N8sIvK9Hp1/DojLjzKcxmcVTcEqzfV1ZkNDIliNPmUuxQw2iF0BpPd4zaros3e29OxktYweGdKT4ZSfM3H6MxwrqBwfP+uOgMT8u/ZsXndPWqt2T2RTYkgHykSDpiYNIcpSnGkSj5MEU1+pMqfYWqiT2Hc13DwosOfBMsMFjz8KY3/gGOPqKkWkyrBY9Gql9+3zuLwBEW1yeH2bqtOsesk3wt81wAAAABI6nqw/8Q66Yh1eOQqRIZZui8Jl59tvSA1z2x4IPs1gFwWzJmdOEd7WeEYH+GEYTp76NWT8ebKcrp3qv8cIgaclk0B85Gwd/gHPXUms3Z7c2TgV0FWraaoIAhDJqyFQ8KQOWopYziLSdXY6HYFbC7DyF8wI36X5xSVbbHoifxEFBGECFF8spAoCGFSGUZMNlJr1URkqfckTO+Kd/KplRQQwmLir7QC7w2IOpNJP/GZSIxWr6VDEWFwbljSGiJetZJCw2tImFY2xKRfc7XB6jBYHUSiwHscNvshu81j5m3pv1+QV9483NF+ukdqbm24J8nJMKY0hqnbN6UyUiUdIoiIYZONVBN9Lrk7TE3kKYz3Gg4Y+XaEwqTUq0cZ7VN7wNFHVC553zSXF4h47bZDYf1TR7xOk3bg9Y94XESp5KpT8V7kyncNlVH6UlE00X/2AAAAAFMqdisS6+LjbZVRrvkzWEsXsqqSneflKqRjg3aR3BXBbazBpFd2+epHTsUJ+X0CKfUGHRGR3mRQUbPHG4rfL/rdvg6qMBgm8Msea3HaqpSn9litXmHYdcWg22I90KE01ju5wUAhyru9QvwMwePyR5UGk354yqLjDBpqGVIkhd0mltHaeGIMJoMyyrt98d+wRb7esmmTMzAFk5AitydBJa2BNXB66vK7/Yk1eHwdoz/mJF5z0W/VqrWW28+V0XK2erueokJISPupAcxQ6Q1TlOJIlXSIIMrkSJVjw9TEn8J4r+GAaMDtERJOGHw7Ronnx33AZCNqasWkSgiGoqS32G7nuURiKCgk6xE3ufci0981ihfOWV1TIh3ldxclOXnWKl46Cla4pqQAAAAAgGkDkS5k1bmem3taL0hH4BK2+skdWmu9VRNt2m4wWF0+PhASwkIoyHscJtP25miFzWlhiYgYzmGroBan2eoJCBExEvLXm6wHOlQ1DnuyCTSR8FjLMujrva6aslOHNuk3HUEbAAAgAElEQVQMlnqPLxAShCDvcztMOsPWox2ajV5vfIsXijbbzTZvMByJCAGP1WRvimqsDsvI31ENDodR2bKDM7v8obAoRkI+u8l+VNTZbByR2uywaLqO2kwOXygsiuGg12bzdKhq7eaEBxq74DGxLHt7Pti4NWitjo1lXY02c70/FBEjAu+yWH0RJY38nDNN+DUnImL0Bm2kzeeweQJCRBTFcMDjcAWpzGBKc9VjkNHyUlpZHj8g+9IapijFkSrpEEGpjFTTZJiaxFMY7zUcEG12mKyegDDwdnD2pmiZebRvHOM/YNIRNbVixnH7PVXrtEoKet2BCBFRJOR3mM172ogiCbvwjfUPYHLvRaa/axQvnLPGVCodS+8uTHJy7I8/iB/yfaQRAAAAIEfFsq7hg/PLX3xHOrJfAMjo+MVrie9+wwfn5a4oT3Rci73QHD9OnMvQdS4ceapGM2w1DFVF7VNHzg49a1u1Kn6CUlO7973OwftuHKxRUsVT78XPvnFsSxkRkVJVs//CGNc9e2RXbcWw65YZt+yXHjYWO1yrJONT+7dUxU9TVtQdPHvj9gmdQ6/cebyhpizxaVRtOSxd/sbJg3WJ1yur3nYkfmfygo/VlRFVNZwdec/xLRoiZcKTT1pD53t7a+Ovtcq4a/+2KqLqvRdisdiFvcZh10jymncerFGSZlvCSx4721BNVD3Q/+z+2iFvqbLMuOt4ZwymP98/Cj+1t0qH3OXkvRSGqdh4I1U6w1Qs2UiVA8NUbMRINfFhahSpPoXkr+HhWiWVbdy1y1iWUNbG/ScH3479NTT0+9W4D5h8RE3Sd/xXYNh7enLv4EMplUSkqt528OCWCiIiVd2RUf4BTOV7kdHvGpfO3fA9J0jHyeZIkpNvvUbxo8U4RSUAAAAATEp/5FjiTyl9wk65KlHEYjHKLldrO9bSnbECl7ofbfpQaj5ZucReuVTGevLG9SiduRxvli2gxcUZu5goBPlgKBwWGbVaq9Xr9epRPp8qhoOBQEgQWZ3eoNexSbd8EcMBvz8YYXScmdOOfebgQ0ZERq3T6XT6MfbjFsPBAB8MszqDYcjalBGvSb1JsL8XqtfHTw0Fg8FQmFHr9Jxh+KUjQiAQGPXOFAtOSdIaBp5ymNFxnF4dtKkf9BgOR3zmMS6Zzms+VCTEB4JCWGTUWr2e02ER3fzy6km6mPCBhk1rU+wXequr++pNqbnGVDq1dc1IKQ5TNMZIlfYwRWOOVNNumJqEsev3mZn1AeuxsNsgBAPBYJjR6fV63Wjf01J8QCIaZ0Qd9w1Ndtmh76koBPhAKMxo9QaDXs0QhYN+PijqTGa9OoV/AJN6LzL2XaP9o57Gn7RJzdU1JUmGpr7XExamUxlnreKnrA4AAACA/CdDpHuu5+a561GpaSjNXDIFOQeRLmRMxGO6Y7PwVGJWkrsiPoveLli8gXrD7ZsCdt2De9iGs4Gk+/LADDTRSBdyD4apLJMiXU7uSmAQIl0AAADIe1Eh1nEg3lQZFSpOlkJmZ/+SgYvdL7ddkZoGIyJdgPF09tC78V+BaHkp3VUiXzW5Jxz0+dzuwJTvrZ4xrMFiENfvtpjIaTdpKRzyuZ37TpVtPGzVyl0aTBtvHO640h5farP2cY2MxQCGKQAAAACAaSAmCv1tTqmpuHPnDIp0z/VEm7Ep1kxVyRa+YPyU1FxWpExyMsT19g2Zprd4gXyl5CIx4LRsbSRNzS7X6Fve5B612cMfVNudbtsXd0dJqdLouG2HXfXmMT/FDZCuK+fF9tM9clcBgzBMAaSrYNUx6WvFbPzDAwAAABhChkgXZrIFc2ZhqQ2YcozZG7nBjLIJey5jdBaX3+IiEkUx32qHrLoj2Y7wkC8wTMnB7A13igyiwByy9O7CrQ33pHiyXBNeAAAAAPICIl3IKqylC5mRl2HDoHyuHbLhfiyYMD3k83/1vK2dYbO0RRukqPtq76m3u6Tm0hWFS+8e869WWEsXAAAAIAlEugAAADnszGXqie8pSivL5SsFAGBSuq/2vu2/JDVX15QkiXQBAAAAcpCiSD9keShGK1clMkS6htJiqsz+ZQHy2eJibHMPMEOdvTRkKe2UI93aJzC9FwAAAAAAYErNZnNkeSgZIt1lRcoHSTH+eQAg6e2jzoRtjormEnaWA4CkLp8Xb4r9UnPpCkyFAwAAAAAAmJRYF99/Yp3UVNy5s0DjlKUSGSLdl4TLz7ZekJpnNjyQ/RpALgvmzF5bMl9qLitELpmazh569WS8ubKc7sWHrwEgmTcPd7Sfjv8pKPUtiQAAcoLKKH2pKNLLWAgAAABADsJaupBVlew8L1chdxUAAAAAkG2Lypnax+NrwhQvnJPkZOyHBgAAAJAEIl3IqtbIjR+2/ElqfkWzaIN2kYz1AADkuvs11NsndxEAAFNAOa8g9f3QEj/SSEVVBStcGakJAAAAID8h0oWsutZ7q/lSfJ+f6tL5SU4GAAAAgGmj/aOexp+0Sc3VNSVrTKVjnRzr4hNbGSwLAAAAIGWK2eyQ5aEYrVyVINIFAADIYe+20cX4X8Jo09oU+y0qZ7AXKQAAAAAAwFQq0ufI8lAyRLr2yqX2yqXZvy4AwDBf+MIXXnnllYULF165ckXuWgCm2JXzYuL2aAAAAAAAADBZ14P9p7dLLUVZnaLMKkshMkS6rtb2Z1svSM0zGx7Ifg0AAAAAAAAAAAAAqYvdigxZHkpllOuzkTN94QXB53D6wom3MKxap+fMFpOWmfzDh7z2el7vcFt1o90bdFtdIZPTZdFO/kr5wlBajBAfAAAAYAaaO69g6Yr49mjFC+cmOXnWZ7F+LgAAAMCYZnqkGwn4Dhw4pVSVsQMBrihGurqitHu7o3Z/wGfVTvLhw7z3gDdiGSPSFfzeA0HWNqMi3Wu9fScjN6RmedHcZYXJfpoHAJjplpfS4gVyFwEAMAVKypnaJzSpnt3VFP96toqK9JkoCQAAACBPzfRIl4iINDZecMV/SowEXBbz9kab1c3xNq18ZU1LrZGeR5s+lJpPVi7BwsoAAMncVSJ3BQAAU+PyefFNX4fUrFjD6taqxjq57wQXb6iMObIPCQAAAECOQKQ7Emuwux3e5dsD/qBoG7n8gigSMwVrMkytnCwKAAAm79026kzY5eyRe1Lst6gc3xYAILfcvNHf/lF8QEtchAEAAAAgLyhUXI4sD1WQ/Utu0Ja8YPyUdGS/gBQwDEPEsAkpqSj4HCa9lmUU8+YpGFZnsntDYrxDJOC2GHQso1Awah1ndQXCozwqRQL1ZoOes/sT7hUjAbeV06kHuprsPiHxYYO371OwWn3inaLfbjDYfOGQ12ZQDxSl5WxDaiKisN9h1mtZRqFQMFrO6g5EJv3SAABAVnX20MXu+JGyK+fF9tM90pG5AgEAAAAAAGaKWxHqaoofUUGuQmSIdM9djzZf+lg6sl/AuMJ+pytAGouVk27xmvXrdwcYzubav7dhm0Uv8ns2mRyBgQA14rfpua2+iM5av3dvvVkd8m7nTI7gsEeNBBwm0w6eLK56kzp+LZ/VZOeJs9Y3PGXRRo7uWa83uUMDHXibwbD1QEhtcu7d22A1UGDPer3JNXCnGAkFm3mXhbOH9A73wYN7txnEpn2bzM74ZUNuTvfF3TzD2er37t1lUYcObOUMNh6pLgAAAAAAAAAAQLpi14N9Jzjp6A975KpEhoUXApe6n229IDW3VS7Jfg1Dhb1WQ3BgfzRRjIRDobYu9caDfhd3e5JuhPfwXaqNR3iPiSEistltOv09O3heIIOOAk7bvjb1lmMBN8cSEdnMOoNuu9vF13ukS0QCDpNpd0i/i/c79IkfhY12kPlwwGtWExHZ7WaLfv0hh9Nn8ZrDbvu+U0zN/qDfqiYistmsWsN9ux12r9VvYYmI6FRAbAgG7DoiIotZG9F+8UAgECa9mojCHru9iYx7g4PrAdtsVpNZt2mf3W0POkbdrS0rlhUpn0x4xw2lxbKVAgAAAAC5SnHnzvjXjFa+QgAAAAByEdbSJSIiURSlFQtYNRvuavM7nV69x6pjiIhYs1e4QKx61GUJg15fG1U3OAbyXCIirbXeJQZYVqQIEZEY4R0m8+5mtu7YsDyXiKjK7jRLk3bV5npH1aHtfl+QdAFvC2m2Oa3SnYze4ah1bfJ7edFiJiIipcluldJZRqfX0oHbTyTi9/LRMoszYX83tcVpczbu9vFhhy4+TTjLlhXOxX5oAAAAADPQ0rsLtzakuiB4gcaZyVoAAAAA8hsiXSJSW7xBlz7hBjHoMnPbN5tYbcjNMUTEsGp1RAjywWAwEAgEeD5wqoOoiogoEgqFqcyk1yb0ZzmbgyMi4omoy2czRYlRURvv4SOciaVEKr1+yJRZrcFQRi1CKCyEBFJyXGJZxOoNOmoUQgKRmohIrdUOfbS4UDAUJTHosljcCc8rFCESQ+HB7nIIXOp+tOlDqflk5RIkvAAAyaS8HxoAQI6L3ui/0h7f+KH4jjnFC+eMdXLf64p4Q2WctYrPZGkAAAAAeQaR7mgYvd1pdR3d4/cFiTMQkeCxcLZDbVFlWRVn4kwOtz1Yv37PwE+kohgd2E5tLFHWfJh3iXbdpgM2hy3kNiSeO6KndIMoEjHEjLwzEon/KDzmZUVRJGIYZsjjM3pTnZ41YA90AID8ceYy9UTjzZXl8pUCADApV86LjT9pk5qra0rWmEplrAcAAAAgXQpGO2R5KJaTqxIZIt1lhcq1JfOzf930sGqWSBgITyNeu+1QWP/UEa/TpB3IQyMeF5FIRMSwaiUFhLCYmK8KvDcg6kwmIiLVRrfHrGXI5fLwm/dZnbZgfcLqCxFBiBDF59qKghAmlUHLsmo1RQVBINLGqwqHBCKdNoU5tmqtmogs9R67drxTAQAgh529RBe7401EugAAAAAAAHJRanNkeaiC7F/SsLh4+6fLpSP7BaRADLg9LaQ0cDoiIiEYipLeYrud5xKJoaAw+CVjMBmUUd7ti8R78/WWTZucgcHJtINTbbVWt7NaecpldQUTrhTl3V4h3hQ8Ln9UaTDpGb3JoKJmjzeUUJXf7eugCoMhhUhXxxk01DKkO4XdJpbR2vhUXgEAAAAAAAAAAACIi3Xxfa8rpKO/zSlXJTLM0n1JuPxs6wWpeWbDA9mvYahIoN7u0ErrHUTCQb+vqU1Zvcs1sDeZWqdVEu91B6z1BpYiIX+93bqnjYjCESJSmx0W5xcP2EwOxmM3aSnkc9g8Hapal1lNoSHX0do9To9+h9PmMgfst1fQjTbbzTbW4zRpxZDPabU3RTVbHBY1MZzDVnFot9NsVXucZj0b5t0264EOVU29fcj6umMxOBxGz9YdnJnx1Fs4LSP4nRb7UVG3y8ZN0cs2IQvmzE6co72sUCljMQAAAACQo1RG6UtFUUo//gIAAADMHFhLl4i6mg/taY43lSqNjtvidLmsg7Gr2upyebmtux+8Y7dSSdGoqnqb+6DWuWnfngfZyJGIx+T2HySzdff6e3YPdCir3uZ1W9Q0LNIl0tk9ds99u502t5m3aYmIjE/t1/ltm+7bN3jtirqDftfAlmz6ev6IaLbs2fzggc0Dd2pq9/o91hS3NtPafLxoMW/f/sXG7QO3qKq2eP0OeX8irmTnebkKWUsAAAAAABkUL5yzuqZEapbfXZTkZOyHBgAAAJCEIhaLZfmSrtb2HJulmxJRCPCBUJjR6g0GvZohCgf9fFDUmcz6gYw1IgQCgVCYUev0nEGb1hZkYjgY4INhVmcwGLTsyPsCIUFkdXqDXsemu7WZGA4Fg8GJlZUJ53puvixckZrVpfMNpcUy1pM3LnbTqyfjzZXldG9uLlqSZ77whS+88sorCxcuvHLlyvhnA8iis4d6++LNxamOmY3PtbWf7pGaWxvumdq6AAAyKvbHH8QbSo2izCpbKQAAAAC3xbr4/hPrpKbizp1yLa2LWbqpYrQGk9aQcINab7Ikznhlh5+QxmOr9ZxljNmzjFrPmSc+s5ZR6wwm3cTKyoRz16N7Wtul5pOVSxDpAgAkc0eh3BUAAEyN9o96Gn/SJjVX15SsMZWOdfKQlelUxlmIdAEAACAHKGazQ5aHYrRyVYJIFwAAIIe9epIudsebm9am2G9ROUOKjFQEAAAAAAAwQxXpc2R5KBki3Q3aEkzMBAAAyKgr58XEhRcAAAAAAABgsqJCrONAvKkyKlScLIXIEOkGLna/3BZfttJgRLwLAAAAAAAAAAAAOS0mConLQynu3DmDIt1zPdHmS93jnwfTUSVb+ILxU1JzWZFSxmIAAAAAIGvmzitYuiK+PnjxwrlJTi5YdUz6WjGbTXImAAAAwAyEtXQhqxbMmYVlNwAA0oDt0QBguigpZ2qf0KR4sgLLgQMAAACMDZEuZFXgUvejTR9KzScrl9grl8pYDwBArrs/1fgDACDHdV/tPfV2l9RcuqJw6d1j/tWq7wQXb6iMObIPCQAAAECOQKQLAADTmeAy6B2C2Rf2mOQuZWLOXKaeaLy5sly+UgAAJqX7au/b/ktSc3VNSZJIFwAAACAHKYr0Q5aHYrRyVSJDpGsoLabK7F8WAABmJrErGhHlLmLizl6iiwkL0Kcc6S4qZ/CpZQAAAAAAgKk0m5VrP7Rh5Jmli7WxAAAAMurKebH9dI/cVQAAAAAAAEwfsS6+/8Q6qam4c2eBxilLJTJEuoFL3c+2XpCa2yqXZL8GkMuyIuWTCe84tkoDgJwhhkPBUITV6XTqETurR4RQSAgTq9bqdGomvXsBAGACFHfujH8t30caAQAAAHIT1tKFrFpWOBf7oQFA6lwul9ls1mq1mbyIKPjsZuu+lsE9e5SaWpfPY9MPBLuCz26xuZs7BpezVVXVuX0ey+16kt8LAAAJFpUztY/Ht3wsXjgnyclyTXgBAAAAyAsFchcAM0tr5Mampg+l4yXhitwVAUBO8/l8y5cv37x5syAIGbpE2GvRr98X0tY1HD7+3vEj+7fpI41bDVx9kIgo5LJY9gRZy94jx9977/iRho1sywGr1T1YS/J7p8j9GnrknvgBAJC3lPMKlt5dKB3JI93+E+vix2l71ooEAAAAyAuYpQtZda33VvOl+D4/1aXzZSwGAPKFx+PxeDxms9lqtdbW1k7pYwfrHY1dqo2HeY+ZJSLSGzgd6R7cU1/vs3kNvK85qtrocttMDBGR3u0Wws6gIBBpicJJ7wUAgKHaP+pp/Emb1FxdU7LGVDrWybEuPrGVwbIAAAAAUqaYzZLKGG/KtzwUIl0AmLkUCgUR9fb28jwvdy0wukgkIn3t8/l8Pp9WqzWbzXV1dXq9fgouEPLzbaTZZjfH189lDHZ79Z7tvC9IJjWrpK6A283rbJyWIWJNLt50+0Q26b1T5d02uhj/SxhtWptiv0XlDPYiBQAAAAAAmEpF+lmreLmLIJIl0rVXLsVqqgCQC2KxGBF1d3evW7du3JMhRwiC4HK5XC6XVqvlOI7jOKPROPHFdsMhgcig1w25UavTqag5LEQYa727Nmhr3L6u0VFWxXGcyWKxmAyDe6Ax5mT3yu3KebH9dI/cVQAAAAAAAEwj14P9p7dLLUVZnaLMKkshMqyl62ptv+ul30lH9gsAAIBpIBaLqVSqgVx+4kQiUtLwEJYhhkgkkUhn9YVCxw82bDPrxKBvz/b1D2p1Zo8weF7yewEAAAAAAGA6id2KxLr4+CEKclUi/8ILgUvdhtJiuauALDGUFp/Z8IDcVQAMeuaZZ65evSp3FZCM3W5vaWlJvEWj0Qwsqjs1Cy+o1WqKCkGBLAmPFhaEDlJx6oHFGBitwWI3WOxEosC77dbtjXaH3+I1MSncCwAAkuKFc1bXlHRf7e2+2ktExQvnJjl51mexfi4AAADAmOSPdGFGCVzqbr70cSU7b8Gc2few8xbMmSV3Rfmp95bcFUwTq1atkrsEGAfLxte4ra2ttVqtZrN5Ki+gM3Flu/d53bzTzd1OYUMeVxMpa0x6xm9hv+jT7xV4m5qIiNFydhvnbDwQFiJE6uT3TlWF92voXCcR0cVrU/WQAACyKF44J8l+aKPoaorditD1IM1iFeXbMlYXAAAAQMpuRcY/Jyvkj3RbIzcwS3fmeP4PF3/THv/X/9p/undZYbIJGjC6ju7xzwGYRurq6pxO58QXzKVo0GWz+4dNnFWbHA6TmrM7qj3b91nMWk+91aCOBH1Oq7OFNFscFjVFzAbVoaNOa7223mrQMqLgr3f6upRVJk5NRPqk906J3j7q7aN7y4mIqHyqHhUAQBb/8UL72d93l5Qz5XcXFS+co11ZrJw35ipwfe/q6Xr8UxqzEOkCAABALpjNkspIXU0DLQXLyVZI9i+5rFApfV08e9Y1zDecMa719jVfimeRxbNnIc9N1ZxZNGcW9fYNNiM91NtHmOMMM4DZbPZ4PJMIcwedOrrv1NFht2nI6jCpSWf3+0WzZceOLx7dMXCHqnrbYW89xxCpLW6332Q9EL+PVBV1Hp9DRzTevVPiT53UfIbmzKKyBbS4mJbdQUXK8XsREdGi8sEI+/J58abYf6Lp6irjwikrDAAgfe2ne27e6G//qKf9ox4i2tpwT5KTFSoulhDpxq74FIum9FMaAAAAAOlTFOlnreKJKNbFxyK8omgq1gOcWCWT3VhmQv7TK62VbOEXytkvLGWJ6FpvHz6APxO8JFz57juC1Pz8UvafPrNCvnLyzbttdKoj3lxZfnviHgBMATEcDARCQoTR6vV6vZZNvC8S4vmgEI6QWqvTcwbt0Nm+ye+dpFdP0sWEWfmP3EOL0/hcy5u+jrPvdw+sWTl3XsE3flQxlbUBAKTj7Pvd/ufPSU3tyvlf/MYnkpwf6/D0f7hZaipUXMGqYxmsDwAAAGA8sS6+/8Q6xSKzosyqWFQrbzHyRLqSl9uuuD5oX1akPGj8lIxlQHac67np+qD9l21XBpruz6wYyPQhJZ095P99vLm8hAx3yVcNAGTeuU56/Q/xZuFcqk3vL8CNz7W1n+6RmqtrStJbxRIAYOq87b/0ztHLUvMhc9m4Hx3o+y1LfV1EREpNQYVHoeIyWSAAAADAOPpPrIt18YMNpbagYr+MP5+MuXxVpr3cduWz//7+d94WzvfcbL7U/ZJwRa5KIDv2tF64drPvmTXaF4yfWlsyv7xwLvLc9NxRODg7jy2kR+4hw11D5u4BwPQzd/aQ9VXuSjuNHRaXvHP0cvRG/+TrAgBIV/fV3jWmUtPXl82/Yw4RzWUKKtaO/3OgosxKSk3Bp/bPWisoivT9Z7bnzoYkAAAAMNP0tznjeS4R3eqUcdUFknF7tA86e8733JSa331HWFY0F/ukTVfP/+Hintb2Pa3t36/6xOZPLvZyFdekZWEhdfcuo87rVKEmIvr9eXr/PObqAkxPvX30uzZ6QEO1ejp+ms5HaM4s0qW96drye4sXLVVeaY8S0VymoPYJjXJeQffV3uKFczJQNADA6EJvdR072L7GVLq6pmTp3UUnmq4QUZKN0SQFGietcNHAhxxPbaao0BfhZ606RrMxLQAAAABkpii3y/sziWwLL1zr7fvsr97vvjWY6xXPnvX6f76XiLCo7vTznbeFl9vis7CrS4v3fWYF3uiJ6+2j1z78/9m7+yg1rvt+/He1kgZZlgbJDyDJCfghBru2wU5tsJsG7HwTkPsAjpOwctyCnXPKukkNrvML69PTXzb5JgEnTlin6Vl8mnRR4gTcJgalzgG1cRelbRYlzW+RnXhRGxsU2YaN7cDalgDbEr8/eNhhYHgcnlbvl87R2WXvXO7cuXNn5jN37qwP0b1kF1FfhlelAWwcpwrkJ/9LsqeJ8Dzyf64iWybJC6+SrZPkkl1dZPbqS/l/fiSx9/Lz9J94F7Vt07/7Xk48+4bhk5IL9/E65y8AAIf/Pvzqz8OvlH6+9Nodtx7Y204wl6n4m8+dPTG7/vt25eTvBQgl5a2IAAAAAE0Vf/M5MklP7LOvz/W/XTF5XWS4Id2hTbywc8vkV26Sln7esXnSp5URQv7o3547cOR/nsvmhlUq4FdpU548Vaj5MHMaQ3R78uPa1yW9mCEnMwRVCrAxvJghPzxGsqcJISR7mvx4hWROk8su7C6eSwi5cJ/A8ElJaXzuv/tePv6ztbdyZ//5kcS/+17GJAwA0G8v//p0NZ5LCEk8+8ahbyQ7zaT45nLN7/kEIYQUkpiEAQAAAPqt9D60sydmz77wQHHVOyGybLpukUzSkzLv0B8bGvLr0b6ffO3/xk76tLKrhduYYzmvorf96INXv3j6rZdOrU/OoLrofNYnVwm37dwyefSVN6uf7NgyebVw23PZ3BuMCJfqovNff/vMCiNSvG/71kvO28pMVlqQ3/zrF2yZf33BesyfENJ8xRvmz7Xibeb/gxOvPZc9/a8vZV86/dZPbr+WEPJH//pcaUR2KXx/tXAbga5lTpOnV9ZjuBfvIB+4ijz7EjmeJpddVJ5ydztVE/bdMkl2nUdOFQhj85Fd55Vzq9q+lWynSOZ0TYD44h3k7TM1yXadR7ZM8pl//YIN829ZsMHk386K9zt/0tWG4z3/NleclWxYG46ZbFgbjpU/s2CZU+S3bxCZmGzfSn54jDCV9vGeleK5zE/u/ZLs5V+feu3lwt4rziOEbBVsunCf4NWX8m/l10O9ey8/r5A7+9rL+eonO3Zt2bF7C/Ota6UF3/jd229k3q5+eMFeAbVtEzNZaUEe8yeE1C9Yn3/Lgg0m/zZXvN/5j9GGY+U/rA3HSjasDcdM1uaG471htF+xr76cf/nXpxPPvrH38vNuu2sv6z2Nhk9KSn1OB97JnnlGS06V+8ZNl7kn9tnPPnNr8c3YxIXGie3KCZGZEFJNQAghAgmhpORUjLzD6PdoDSkkSf7E+ifbFWSzkKwdWf9kM022Kxss+E62Rf6lBWCDxsoAACAASURBVPnNv37BlvlzrXjX+ZP2KpaVP9eKd51//zZcP/LvYsPxnj8Zqw3HSjasDYc9upp/dxsOe3T/8ifYoxn5D2qPLr6TJZvpie3KM0s1Y2s2Xbc4QWvJO9mhx3PJEOfSLfmI9IIP7RPu3DL5ry9nmc/ml8LMn4+d/PHL67ffX/jIe7+ffPXrz6Wqn3xPc6X6oh0HjhyvfnLThef7tbLPx37zs1ffZC74XPb0XUf+p/rJ/VfvsV+9l5mstCC/+dcv2DL/+oL1mD8hpPmKN8yfa8XbzP//+Xmy+sncr15+5Eap7ff2fuHYyR2bJx/7g8sRz+3VrvPIB64qR3W3TBL1ZeTtM+R4uvw/IeSafeTafeTplfVFSiGhF14lv3xp/cNSkIiZrLTg/3eiJup04KZyEJm54MU7+My/fsGG+bcs2GDyb2fF+50/6WrD8Z5/myvOSjasDcdMNqwNx8q/vmClPfrSC0mi8lL4fUJy8+WEF7U3cGU30tS2Tc8c+V011LL38vMMn5L8V2CVGXy5z33Vay/lD/39+tnP7+suvFF/0aFvrH9SWjD+syzzXfalqA0zWWlBHvMnhNQvWJ9/y4INJv82V7zf+Y/RhmPlP6wNx0o2rA3HTNbmhuO9YXRRsYncG4Xc2dvu2vtPX3nhrfzZrYJNf3CHuON4LiFks3DyukgpqjtxgWFin724Fim9nKS46i0Ssul8BSHk7DO3VpeYePdnN0lmzzxvZ16qTf5h8WzaW/zN56qflK7KzjyjXf8uWjN5XaR+weKpWIv8ac3kdRGe869bsGX+XCvedf6kvYpl5c+14l3n38cN14/8O99wvOdPxmrDsZINbcNhj67k392Gwx7dv/wJ9mhG/gPdo2nN5HWRiQsMxdcOVVOd/dUdkzclRiGeS4Y48UJVaU7V/xs7yfyw9J601996Zzhlgt7cdOH51Z+fPPHai6ffuvc9F1uuuPhHH7oab8Djx67ziEFJLt5BZGKynSIvvIKJFwA2ghcz5O0z5Np95V+v2UfefyVfM2XfdtfeWw/srf56o/6iQu4sMxYDANA75jzdb+XOPnPktR27t1yn2X3BXsrwKYn8JrrLfDcLJ2+ITey1bbrSSwg5e/we5h8nRuOyCgAAADaUtSOEkAmRZf2T7YpJxQi9pnX4Id2SH33w6vuv3lP9VX3xDkIIcyQpjK+5X71MCPl/le+65Lytwy7LBrJlknzgqnLopzQ4t0q0cyglAoBevX2GnMyQ7RS54d1Ef816bJcn8pvou//2CtmNtPSa83fs3pJ49o3WywAAdILaVnMX6vjP1wghN+ovMnxK2vtbGTddPkc2C4urXlJI1vxhu7LHnAEAAADqFdciExcYCSUhk/TEuz87eV1kpM46hjzxQtXOLZP2q/d+RHrhv76UXfjf1Q/tFeINWuPrauF5pXC8nN5273tEH9o3KncwNqa3z5BrLiEv/o68hJeEAIy5LZPk7XcIIUQm7tM37Ni95ba79pZejJZ49vU+fQsAACHkgr2U/CZhIXeW2raJ2sbbOJIJkWWTQFpc9RZXDxJCyGS3I38BAAAAmipmIxO0dpPMO7FdOTqDc6tGJaRbcsl5W+99z8X3vudiQsjrb59hjtstUV+0g1zNSL+dIoQwk11yHkUI+Yj0wtI4X2bKmlHAF+1gJSstyG/+9Qu2zL++YEPJn2vF28//Q/uEmGNhQLZMkssuJJddSAghv32DvFkg27cSQsg1jPF92ylC6kbv1icrJbj0InJxXcqa3PjOv+WCpfxbFmww+Xex4v3Ov80Nx3v+ba54/bDxoWw4ZrIR3HC7ziPbqfK76fqvFFvZ/4l3vfG7t1/69ek3fvcWIWTH7q2EENlNQtZMlzt2b/l93YXVX/ddsZ0QwvyktGDpc+ZSrGSlBIPPv+WCg8m/zRXvd/5jtOFY+Q9rw7GSca34IBtGmys+xIbxB0bRhfsEF+wT8BjGZZmgtRO0llzpJadixXeyhJAJgXTi3Z9dTyDUEkI2iSxFWluzoLD2V4GUEFKzoEDaeMFW+Zez4jX/+gVb58+14gPOn2PFu8+/bxuuH/l3s+Ij0jCGtOFYyRoUDHv0gPPvasNhjx5c/tijB7VHTwi15WS13zg6JorFYutUAAAAAAAAAAAAADACRmUuXQAAAAAAAAAAAABoCSFdAAAAAAAAAAAAgLGBkC4AAAAAAAAAAADA2EBIFwAAAAAAAAAAAGBsIKQLAAAAAAAAAAAAMDYQ0gUAAAAAAAAAAAAYGwjpAgAAAAAAAAAAAIwNhHQBAAAAAAAAAAAAxgZCugAAAAAAAAAAAABjAyFdAAAAAAAAAAAAgLGBkC4AAAAAAAAAAADA2EBIFwAAAAAAAAAAAGBsIKQLAAAAAAAAAAAAMDYQ0gUAAAAAAAAAAAAYGwjpAgAAAAAAAAAAAIwNhHQBAAAAAAAAAAAAxgZCugAAAAAAAAAAAABjAyFdAAAAAAAAAAAAgLGBkC4AAAAAAAAAAADA2EBIFwAAAAAAAAAAAGBsIKQLAAAAAAAAAAAAMDYQ0gUAAAAAAAAAAAAYGwjpAgAAAAAAAAAAAIwNhHQBAAAAAAAAAAAAxgZCugAAAAAAAAAAAABjAyFdAAAAAAAAAAAAgLGBkC4AAAAAAAAAAADA2EBIFwAAAAAAAAAAAGBsIKQLAAAAAAAAAAAAMDYQ0gUAAAAAAAAAAAAYGwjpAgAAAAAAAAAAAIwNhHQBAAAAAAAAAAAAxgZCugAAAAAAAAAAAABjAyFdAAAAAAAAAAAAgLGBkC4AAAAAAAAAAADA2EBIFwAAAAAAAAAAAGBsIKQLAAAAAAAAAAAAMDYQ0gUAAAAAAAAAAAAYGwjpAgAAAAAAAAAAAIwNhHQBAAAAAAAAAAAAxgZCugAAAAAAAAAAAABjAyFdAAAAAAAAAAAAgLGBkC4AAAAAAAAAAADA2EBIFwAAAAAAAAAAAGBsIKQLAAAAAAAAAAAAMDYQ0gUAAAAAAAAAAAAYGwjpAgAAAAAAAAAAAIwNhHQBAAAAAAAAAAAAxgZCugAAAAAAAAAAAABjAyFdAAAAAAAAAAAAgLGBkC4AAAAAAAAAAADA2EBIFwAAAAAAAAAAAGBsIKQLAAAAAAAAAAAAMDYQ0gUAAAAAAAAAAAAYGwjpAgAAAAAAAAAAAIwNhHQBAAAAAAAAAAAAxgZCugAAAAAAAAAAAABjAyFdAAAAAAAAAAAAgLGBkC4AAAAAAAAAAADA2EBIFwAAAAAAAAAAAGBsIKQLAAAAAAAAAAAAMDYQ0gUAAAAAAAAAAAAYGwjpAgAAAAAAAAAAAIwNhHQBAAAAAAAAAAAAxgZCugAAAAAAAAAAAABjAyFdAAAAAAAAAAAAgLGBkC4AAAAAAAAAAADA2EBIFwAAAAAAAAAAAGBsIKQLAAAAAAAAAAAAMDYQ0gUAAAAAAAAAAAAYGwjpAgAAAAAAAAAAAIwNhHQBAAAAAAAAAAAAxgZCugAAAAAAAAAAAABjY3OTvxUKhXQ6zftXbtq06V3vehfv2QIAAAAAAAAAAABseM1CutFoVKvV8v+Vmzfn8/nJycn6Pz377LNPPfXUrl27Pv7xj+/YsYP3rx68VCr1y1/+8rXXXjtz5swFF1wgl8ulUumwCwUAAAAAMFD5ZHDW7hW7gnZ55wsnvRZ7TO9yTckF/JcMAAAAYAxNFItFrr8lk8lvfetbhULh9ddff/nll59++unTp08zE1x55ZUf/OAHd+7cyYrPFovF0lKZTObZZ589fvw461tOnDjx7ne/m/V1hw4d+uhHP/r2228TQi677LJf/OIXQqGw1/UbkldfffWxxx7zer2//vWvCSEURb311lulStizZ8/U1NT09PSVV1457GICAAAAAPRdNuoy6h+KKd3RsL2rqGzSP6U9EBY7gmGXdlwvEAAAAAB41Cyky3Ly5Em5XM6M6r7yyisXXnhhywXX1tYOHjz4yCOPnDx5svTJkSNH3v/+97OSyWSy//mf/6n++sgjjzz44INtlm2kfOc737HZbBMTE5/4xCc+9KEP3XjjjTRNnz59OhaLff7znz98+DAhZPPmzZ/61KdcLhdFUcMu73jJ57P5bD6bzwvEUnEbVwSdpocxlU/Hk3mxVCrERu4H7Ec9OhfaZ/uN5FyojZGUTSfTyWQynU6mswKxVC5XyuXigUTG8tlsNptOp9PpbDabJ0KhWCwWlv4fXCPI57PZUgnS6WyWlEohlsqlTaogGwtH8kqjWjywUm5Y2Yhdq380LndEIi51960u6TWq7wkLrcGIRz/4rZJPRsPhYDiaTGeJWK5UGy1TahwShyOfzWazeYF0MF3YxrdB23Y+n82m0UwAoGcjfdDpIKRLCFEoFM8880zp523btrEG7TaXyWQ+/OEPRyIRQsjBgwf//M//nJXg/PPPP3XqVPXXBx988JFHHmk//xHxpS996W/+5m8efPDBv/3bv6Vpuj7BV77ylc985jOln9/3vvf96Ec/2rlz52DLOECxOf20P0sIEQgErP8r8vl85f/Sj0Q67fdbpKW/xj3GqblYthQpWCsUqotROl82PFV3stFpehh/+Zh3esp+8PgaIYSS6Ower2sIF3obS9SltXiT+fr9iDYvZr3a4RVsDG3Y9tlVZ7tha2Ok5eNhz9ycNxg5tlpg/YmSGeyuuVmjtB8Hx2wyGgkHw+FIOHL0xFrjNJRIodWXaOV9OEvOJqPRSCQcDkci0frVLxWBlim1WuPUtGVKWdMY83HPlP6+QycoUyjv1zP+EJlR28P5LkojEAgFQqFQKBCKlUqlXKlUKpXNAsobSNyjVd93RGgORL3GHnf5fHRGrX04rnRGIzPKwZ3VZaOe6emZJ46tUSKFVquWC9OR4KFjWYnBEw5auphFAjoUnTPOBqv3ZMrHHM18KjKNY0iPNlLbjnstdm+8cuduba1ACCEy50p8ZsxWBACGbLwOOsVOqFSq6oLnn39+R8sWi8W1tbV9+/YRQj73uc/V//XOO+9kFiwUCnWa/9CFQiFCyJe+9KXmyW6++ebqat55552DKdtwLFlFnbdJmXOlmsGyQ9Y4EaXz5Rp8YafpYdylAgZWG6NUzmVs694smhvcjiKEENq8OOyyjZcN3D676Gw3cG2MqlwiYFUx92ZKojHbHE6bjrElaN1Cgt+vTS0t2HSSumeQaJFEptLoNCqFTCJi/5USqczziwm+mkNuJeQ2a+q+pRlKpDK5F1Ol5TOLjkrFUYZAbakCBv4er6IlGpNjPrSyoXeDTMgqI4TIbEvNVjOz5DbIaIqiZTrnYqZphol5DU2IxBxK8VtQ7i/0mSSEEEJEOvdyplgsFlM+U2UfkjmWB1SMc9qiTSYRiejafU8zP6gmsGFtsLa97FTVNxPmdSU/cis+s0pEUZRIZfVt7O77nNPBkQg2dnWN1UGns5CuWq2urlEXId1isfjtb3+bEHLvvffW/+m3v/3t/v37Jycnd+zY8fDDD3eR+dBde+21W7du3b9/v9PpLBQKXMm++c1vMtvG4uLiAMs4WImQ08ZkVjWIFIk05ppE1UuqYrGYCrltVqvZpJGxFuSIGnSafgzlVhZ9Pp8vsDSaXUrXuluvhmEl2hTaIBubJx3XbSLgsFmtZoOKHZRBSLczG7l9dt7ZbuTaGEm5FbeGsXEohTVQvvRkbwoet0Iq5GAHc2mFwTYfWmGf6+cSSz63VcNKzMMFciLkMLBbJSGElqgMVud8YHF5JZHKlL4il0mtLAbmHeb1vo5WmBcC8yZGsepCuis+R6sTG5Gq9rzGZrPZrFazyWTQaRSNAs20wuQM8RbQHimJBR1NWgd0Q2bmbQZDoJ2gLq1x8x2qaSC3ZJNRpV2oegsqs6BbL63Kneh/KaAkl1pyqqp70KheXY+Ljdu2M8vz67eQeQ/prjgVjCOEgveIMQxNh0eic905UV3jcdAZdEj39OnTO3fuvO2225okOHPmTBc5D91zzz3HPD0/cOAAV8pf/vKXzJT33HPPIMs5VCtORf2VTFs7R2ZBU3MR1CpE22n68VG+FqdMgWGXhF9drVeu8WipsT0H7ZPu2wx7j0VItyPnRvtst7M9N2pjdOSWbMy4La1bqB5p64/E/IzFSi06NLXRTVphXlhufoqfWwnYNLWjtymFNdBddDOXCFgV7AArJVJZ5xdTLTLMLC9YG910bhDSZWl0YtPiGj+XWFyw1o8hphXWQKLjlR5tpdhrq4BusbhkkzCrQmRdbJFxKahCqfoe1K1Gb2rufCyuP4SG+1K9yK2EFnyd3ctnxBxH9ep6THTatrvYWEMUqj5vxndItybqTQjRLIxFIGu8Nt+QdHwkOreNZXVtzIPOpkanr320bdu2D3zgA8lkskmCTZsGXSpePP/888xf/+Vf/uWdd95pmFIkqrl6WVlZ6WOxNgqhtLO5/jpNPz6y6fSwi9AXXa2XQCptMJ8N3fDTc1j3bUYqFeMFjt07N9pnu53tuVEbIyMbnPUcX/9VYpm1VCtaKGTP3yro/W0Pca9ReevDRxhz5tIadyTqtSibZy2QG+ci0QXmnByFY4/dodS6oh1OV5sOTivldzx2jDltLyUz++LJqGda2+pFP0KlxRNNrk+30FcCqdbiicTDNkVNB7t27LE71EZ/cgAlGJCs3z5zZI3QutkZdfMNIFcrmUPKlepWM1/K7a4pESkcnZn2JHsuZxMxj+dYgRBCaL1Fu74OWlfQbdIoFBqTMzin36Dnm4OQDs/eY/fGO1lEKBTgxIQPHbftLjbWENUf6HjLWalk3jCVKVsc5UbEeG2+Ien4SHRuG8vq2pgHnSEET6+99tqTJ0+eOXNm8F/dV7t27WL+evbsWa7Y9FtvvcX8deNVRZ90esq8MU+xk7EYx2tmxluX66WcmdWxH/tWTM/g+oppo7aZMXCutM/21udcqY2RkA16I4yXgdFa4/pDVkQ8NWNmjqwQGWanpL19XWTaeM+hVeZHMls4bG/37VVSiz9SM0sEWTv6kHGqg+BmNmLXTz12vOYFaCKNOxL1TnVwf1eodUXCjCfs+kuonfPa2bORrB6yGF2xwRSg3/LR2ZlDa4TILLNTre7cCKc8/vIwaVph9XssLW/1CPSzsyqKFI7MzoSzvJS3kXg4cqL0k1Jb05yFars/EotF/DNa3JXqQTrZze18/stxDuq8bXe1sTYi5azfXZphiJLo3H6XctgFags2Xxs6PxKd08ayujbmQWc4Id2333775ZdfHvxX95VKpXrve99b/fWv/uqvuEK6qVSK+eu73vWu/pYMNpB0JLghb7B2vV5iiz/sNlSnPRSpbP6ga4AvwR4DG7XNjAW0TybUxuAk40lmdFMqrznPFuo9kZDTrFMpVDqTMxD1G3s6DU96poyPHa/5SGL1uFoMy6wlkNu9s7Wx1NVDFuNMW0N187E5o/HRYzXxXCKx+oN2dceDpwTqGb+Hfe+hb5QWS92sDYVjrtlg/2KUg5MNznpOEEJpZmbUrVMTsd4TzeYymVw25jFK2/kC6ZRdSxGy+sSMp28HuerFHyXsfSg71EnHYyeGXYZzVcdtGxurSqC0h5P5XCaXT7Z/63LIsPna0/mR6Jw2ftW1QXeEPoZ0X3rppbW1BmPDrr32WkLIiRMbrTo3b9585MgRt9ttt9ufeOIJl8vFlfKFF15g/nrbbbf1v3SwMSSD3mihdbKx08t6CdX2YDKbWlleWk5k0tG58TiiDM5GbTPjAu2TCbUxKPl8bShUwLrmFEj1M95wNBYN+2eMvU1TlPRM2Q/XnuxRmtlZbceZSqddltpJdQvHHra0DurmozNTDxxhnW7KbP45bZchOKnFO6cb0EhduVJeHz5eC3s2QEw36XUdLhBCaac7uGMgEAo7aDhCo91IE0KOzbkiHU7T0bbqniRg70TQu3w0uEGGpI+jDts2NhaboJPeatiw+TrR2ZHonDdO1bVRd4Q+hnRvueWWb3zjG/WfX3HFFUql8vXXX+/fV3MpFot9neVg+/btdrvd7XZ/7GMfa5LsJz/5SfXnCy644K677upfkWAjyUdcriMbMDrHw3oJxHKlWinFGBq2jdpmxgzaJxNqYyPJBmdmjrK6GNpo72rYr0A7bWHPQ3DcM+NNNl0qPjf96HHWZ7RhdrajQcIs4qkZVnS5bxrO91iIRcf92Yp8dG7uGCGE1k/r+7evC7TTRhEhZDU4twGC4OeebNAbwbxQYwIba6xh8wGQDbwj9DGk23CILiFkcnJyeXn59ttvZ374zjvvrK6u/upXvzpy5Mj3v/99j8cTi3UQQ//Vr371+OOPf/WrX/3mN7/54x//+JVXXmH+NZVKPfTQQ7fccsvOnTuFQuG9997LHr8yQGfOnPnhD39Y/fXzn/88axJegMayEfv0YxttcDvZuOs1ClC3ANBPSa8ryD7Xo7TGbsfHKo16CeujwhHXXJR7iWxwxnWM/aHIOG3sLYwo0NrtdTMi9AdH5HloZ6n8yEfmvCcIIZTW0seILiEC9ZSeJoSshb2I6Y6dmMd1aENeXG9E2FhjDZsPgGzkHaFfId0zZ8688cYb7aQ8ffr07t27t27dKhaLr7nmGq1W+9GPfvS+++47evRoy2Xffvttj8dz2WWXXXPNNdPT036//5FHHtm/f//evXsNBsPKygohxOPxXH755SsrK3/xF3/x1FNPiUSihYWFRx55pNc17NaTTz75m9/8pvTzDTfcYLVam6dfWVm54447fu/3fu8v//IvM5lM/wsIIykbdRnZkxVuBBt1vUYB6hYA+ivu97KH6BKi1HY+g211Wb26bh6CE34P51P1af9cuO70nNYaO5/2gU1u1LNHDPdFPtsgEknJlePw3mhu+Yi/tF3U+l5GS7dBoNVrKUJIIeJHTHes5GMzltm62zEwkrCxxho2HwDZ4DvC5j7l+4tf/OLs2bPtpJyYmJDL5adOnfr1r399+vTp9r/ixRdf/OhHPxqNRicnJ7/85S/ff//9FEURQl5++WWbzfb9738/HA7fcsstzz///NNPP33zzTcTQv7jP/7j+eefJ4T813/9V1er1avV1dUHH3yw9PMtt9zy1FNPTU5ONkn/u9/97tZbb11dXSWEPPfcc8ePH3/66acHUdBzRj6bTKfzWca/fL70g0BumdazHx2tT15ZQKC0TDd963E+G49Fo9FILJ7OZvN5gVAoFErlSrVWq5aLSTri9/qjgimXvW5wUz4d9btmZz2HT9ReOKeT0ViMfakkEMvl4toP8+lkMssocLb0C5FP2fXSSqJsMhaLxWLJrEAslyvVWnnzC/J8Oh6LxePxaCyezeaz+TwRCIQCoVAqlcuVSqWynWeqe12v+jWr/pMaZ4z1l8P5bDKdztYvQKRGe23yfDoWicaTyXQ2T4RisVgslsrVym6mm8wnY9FYPJnOZrPZvKCUl1gqVzJXJp+MBoP+cCSeTOcFcuXU9Kyl+3hIZQV6rdsOvioejyfjyXgy3WNdEZJPRiORWDydTCbT2WyeCIRCsVypVirVamX3JWzyfbUNqLLrs/bmfDoWjSXT6XQ6nSVCoVAolsrbKlBn7bPPhWlWzoFU+xjsrYNvgQ1lk9FIJJYsF4IQoVAslUqlcrVa23K18ulYvPS+m3w8XRMEzcdj0ViWubhArJT3/GrieNBff3ZMy5XSrnMUSJVS8gQr09WwP0q02gbJk0Fvg4lllFo+wohyvVr08PHV3jNqKh1P1o8YobSW3l5YN3TRckRXpm96YsQln82SdufmE2j1SnLoKClEg5G8xTg6E/rl0/FYPFnqrMViqbytM6OaDBrUQns1w5Wq3XrNZ7P5hjOC8CYdmTEaHz7Wl1mh8uXeu8umkI2XjrJZIhSLxVKlusUJcfeyyVgsnsxms6UWIpVXT8aSkWBablS33Hd6bmNt6efGaqF/K5jPZvP8TACaz2fzbXdXPLSumjqRSqViqVTa7NuHsfm677sIITztg5xbOBuPhMPhSCxNhEr99LRRzl2mTo5EvLRVji/MZ9N5Iuy4ufbew3Smp8NTl+vYvg1/0Cl2Qq1ef2nt+eefz5Xs7NmzBoOBEPKFL3yh/cxPnTp14MCBav4ej6dJ4ldeeeU973lPKeXBgwdZf33nnXc+8IEPlP7qcDiqnxcKheuuu46iqH/4h39ov2B8+c1vfnPTTTeVSvUnf/Inp06darnI9773Pdb2Onny5ACK2jcrzgZPMmrmU20sumiumdiO0vlyPKRfNHO911pkXapPHjBxvTFFYlvmKEhm2ecwyJq8PpuiRXQpW8oUqll0yaGgO3tFS30xMgu6hilp82IpQWrRbZDVfgsl0dh8Kw3rN7M0b1aJWhWKlums7lCCawvxsV7FYsbXeM063daUKVBJklsJOA2Ny0aJVOb5pXZaarFYLGaWA05Tk3qiZTrr/GIisbRgVdVN2CizLTZv283wU7dVOV/tS4KqzaaYSyzOWzWS3uuqWMwlQm6zStJsH5FozO7F9nNsC9euQYjMsVwsZlYCTrOGa8+lJSqTM7CSaZJ9R+2zz4VphL9qb6OzHeW9dWgtsFZm2ecwNO9caYnK7A417pqLxWKxuGRtf/5XlTvRe5kXGr1ETOFc6SHPnM/Qfp4ZX6MCiKyLPRSAUZQlt0mnM5gdoeZbvtGJTbuVkJjX1K0BpXAud38MGAnLjtII5/UjRhOZRafJoNNoVAqZRFI5HVJ00D6XbKXZOkTtfFs7ckvzVnOZrnqUk2jMNazzHMfO1NKCzaAQUYQQSiSRyWSS0krREo3JGeDagRM+q8Gg06gUMplERFMUIYRIbOUT0Vwi5DAoyvlQIpV5YXm9w1+eNxt0rCUZO0EuEXKaNQpJpXOhaJFMY3bXHzIyKwGnSSOrnpHSIplKY3L4ljs8tjSRSywuuB1m9qkDJdOZ6zgCCa5s1s/F1y8gKqWv5kzRMlUnSGGOMwAAIABJREFUpc8lQm6zpnQcoEQSWaXCKImK596/fMShCKFFEoVKozMYdBqVTETRMoPDtxhyauhWl0bdtbFiR22bp43Vna5XkKHSMRAiK/fHmZXQvK26I5W2tEJndi4scl6w1MotuUs7W6W3oljNkHNBHlpXZnnBZlBVNwdFVX+SaMzuAKulD3Dzdd93sfReS7nE4rzNsH46R9EShcZgrXR3qZBDJ6EILVHpDAaNhCKEUs1X1r3bI1H3bbVl1x1wmjSMU9N2+zQeepjW2qyufq1j286Zgw6fId1CofDCCy+Ew2Gdrnzx1lFIt1gsMidbaB7SvfPOO0vJbrjhhpZZ/du//RvzT+3EUnnx6quvxmKxH//4x9/97nc/+clP7ty5kxDyh3/4h6zyNPHkk0+SWr/97W/7WuY+O9dCurmVBVO5E6EVJse8L7S0kkhlMplMKpFYXgosOM3MiB4jXFEsFovFEGfpuHQa0k34DCJCCKEkKpPVqmNOYkjrFhLsvAJmRgpKYXK65xd8gVAoFPItuJ02VhCTkuicS436NT7Wi/cgUWbJXV5/WqLSmawOp9vpMLMCrhJToGVjTQRsKsY3USKVwepwuufdbqetUVSOVhhsbt+CdX3XoHS+ro9l/NRtVeOQ7nq77rGuirlEwMqsLUJJdFbnvC9QalMOEzNTWmZeaO9Evi3cUVSRzmqqbihKJFNpDCaz1WpinEtXi2Ra4Ai+8BXS5aUwLDxX++BDurztrUNtgVWZ5fma+2q0TGd1zi/4AqHFUMBXdzJKK8wct9wGHdJdbPh9PV4oNNz2lKFxO2lYgE6igXzoOqSbW1nQ1a2AxORL9L3IfZaa13TQylILBhHNvjnTyUasRvZ7u5uwLhcwSyoYBaNFkhrWUH1Pt+Q2yShCCK2yzoeYQdPUss9R2s1FKlugQQBpyaGoRoiqjcG2VCwWUyGrjKJkBqcvtLhgKp+FMU7RQlYJzV6yfM2cCtlUIkqisToXAovLiVRiedHnNFROSzXu6hEjFbIpaEqis7oXAosriVRiOeRzVM4JRbp5njq+lM+0Xn+ME0aKVbUSiUSicXNuTfbVdWbRoaIZq5lKLAUclX1LpJtveWDMLDlL8U1KYnCub7dcatlnKx0DKJm5jQNKO1UQsiooQskM9cGeXCLkrJ6Hq7j60R7aWLGjts3TxupYbyvIUBPSzSUCNpWI0DKDzV1qJKnE8lLAXR6aQIk4h7LUlC1gqt/ZWh30eGhduZUFs6J0ZBSprPOhlVSukkliOVS+lqQ1zGuuAW6+7vsuXmsptejUlC9pNWbnfGBxeXkxtOA0lSpOpDKbNSJaYZ5fKlVeyFSq0OqxposjUY9ttWnX7dBJ6G76tJ57mDa1WV19WceOynmuHHS6D+lOTEyIGS688MKJiYnaDdtxSPeFF16oLtskpPuzn/2smszpdDZMc/bs2eprx2688caOisGLfD6/bds2VoVcfvnl3/zmN9PpdJuZnD59Wi5ff8j07rvv7muZ+2/kQrq5xPLS0mIoUO6TGRqGdDPV5Ow3uDSMOS5ay8kkTfbKzJKzElFgh3RzmVRFwmeqvcyldAuJVL36UGBmZWlpaTHkc9ZeOtLmxcyyQ0ERQmsci6lig41TvcdaLg376pnW+dhrlVtZqK0aSmFbrCsTL+tVXbOFmghq59uaMgVyuWW3iiaEkpncrHv1iXldTe60oW6lmVKBmvUXGeoiQKWD7fq3q0rjsaqXwIT0dKDlqW6r2dWHdMsNtve6Kh0QmelVjgaNJeFjVqmo4algdzIrS4uhUGChfu8vl0dRP5AptxKoa28cB93O2mefC8P8Jt6rvZ3OdhT31qG3wGKx5r4fIYRQElPjqHFmyc3swimFtdGGru7+iUDtRiEq51Lt3p/p/WSZ40ZED7ekikWuuHTDYB1XARb4G1XYjq5CuqkGz2hQMpO74W3QcVO5tUibQ60TV+RSS05NdX/sKC5fCd1wRP57sn6LoWWREj6zjCKEUAobx8Du6ilSbfClJkli0VntxyS2pdyyW0VX4vy5EOOozo6XZxIhm6rSl4isi7lUyCqjFWZfXTgh4a6kk1gXc6UTF1phrR+gtOIsn65QMsdSH6u204H1NVfXqYCZs/TlVDJbs9InAqXtRiiFo8FWya0slDeIxBzqdfdccasoQiTW+iNNtTTlkRaNzwN5aWMVHbTtHjZWZ/hcwfWQrkRnUtGUxOBu9PQOY5AC55fWLZNZCTDO5Ztcx/LQujKLlROnhucoxWIxs1yO+NKGQMNMBrL5uu+7eKilVKg85ohWOVl7e27FXT6yUMwD88q8iiKEKvWBzOTtHol4a6t1XXcmZJV12af12sN0rM3q4nMde7CRDzrdh3QnJyf/D4NWq5XJZNu3bycMnYZ0X3zxxeqyTUK6f/3Xf11N1mTE6/79+6vJnn/++Y5Kwos333wznU6n0+kXX3zx5z//+de+9rUrrriCELJ169Z77703kUi0k8lrr732mc985o477nC73W+//Xafi9xvIxfSraqJqJV29gYh3aqEW1WbvEFId/2BylYDVSrVwg7p1q4PKxLSJG1jlSchS2jzgltDEUpRPU8P1Q1Brr0wrt94lClQX6m5JZusJpXEzH1k4WO9ijnW4OkOtzVlmPeZRJzjUHIBVmC0yVEw5auJKHGMts2tn2YSQghROJaLxWIqYC6dU1LNbgB0hI+6ZYd0dWYDP3VVXJnX1CQWmRqfiRYrpyiVtVDxOBqknH99v0SruB+2zi05FLX7CmM3apC8s/bZ38L0pdo76WxHZ28diRaYCTGffGiRNatvbb6hWb1Mz8/YNZJodEAnlKHBcaED7JKXt06jI3LDM4q+xPWaalQMicntC9Ty+Rbm591Oh82sq5/lg5bpHNyTFY2ZxHz5BKnTUbOMA05HId1qNyFz8H10aDvslVm0lnbPFnd9cpXehNbMcxR2PfghsfnmNTRjIg7GDY9GJxiZhUp/KTIvLOhEXJeDmer0JpRuYWleJ5JxRADW51bp5ekhDnxcXascTp1IZm28mqmFylk4ZeAq/fohlNJUn8Cuy6hybtfkKNGO8hGqxX6RmFdRDQ9ePLaxYrE4giFdnlew5lgiMTR7/CFRiaAQrl2hQWmrexvn8ZWH1pVbP/3gan0ZxokP1bgog4rId9V38VBLqer2a7xzrVQu2mtPsjKJRMMabeNIxHNbrem65zV0l31ajz1Ml9o8cPO0jj3ZyAcd/ufSfemllz796U+X0vQppPvBD36wmuzo0aNcye69995qskCg41hGP5w6dWpqaqpagd/61reGXaIBG92QLjt01SKkyziSlzSY8WB9RkCZo8mj7cVisbhUGs7Lnku3dn16Dc8l3MzKpyQSUe1dpLqNw+rvUvOsMDbXCBx2vJvSLXBvYR7Cjr1ua5GIbnY/jV0v3L30Sk3QnBAN13qzCkybSo9v5lLLi4vLKd6u6vsQ0iWE8FNXy87aQCRjOqtGxag5M6d7u6iqV7trkMrIpSaW63qyJot01j77Wpj+VHtHKzgqe+sotMD1q5DyyrXa1BnWPLMi7vv3gwjpLrN6vEqd9yOk2/Bow1mAXr6/c40jy22iFSZngMdufxRUr907Hi8d6iDGxFC9U0SZ6udC6FF7Ya9UeeATodqYa6LaxLl6smoCkUIhEZmZ65QK2TQSmhYpzA0DVIFqqFYkopscOxi3Y2iabjKeaH0f62jIdVv4uLpuNMpu3XK1M+Eofa76MF3zE/X1p9R6mtyjfPhr1UZS86oGARd+21ipOCMV0uV9BRnHkpbnUcVU9e6FqMXjPVWNZtdk4qF1MW7k0txnM8wDYeNvGlRIt4u+i499cP0hUq79c/3ClG7nINHqSMT/zthu1928T+uph+lemwduftaxJxv5oLOJ8G3v3r1f+cpX7r//ft5zrnrjjTeqP1N1M9pUbdmypfrz2lr9K4WH4Lzzzvv2t79dioy/+eabn/jEJz7/+c8Pu1DQH9l0uvJaxeMey3QwmedOK5+a0igUmqkGb37vl8KJE6uUym5ffzG4fHrOxnjIWWLyzGqZS4iN07XxB5lluiZBhVStrrkkL0SC0SYrP3Srq2si09ws1yvS2a99LiTT2YYJk+HIcebvlFjM8TJRsbgmy7VIMEYIIQKxUqtVikfnhd0N8VFXaf+sq/ato2qLUcr9nQK1xbjeptaCnmDjTcAXoVzafCsop2dY73A64Z31Jke8MKNe7e3gaW8dharIR2ZnDzPPTGi9kWu9yoR6o5a5qVcPznjiPRekawKOt/v21t3n842WF5AG38VZgOEfcGiVyWqrYbVazab68blrx8J+bziWHn6ReZNPl/c6Wiju8LXNXR79BOLyjl9IJ4fRSeUjszOHVgkhhNLbLdJWydXTU6UQzHGP3ZNslnL12DEyNa1nVItYPxdJZrPpmHeq4fdUkhZWV+X2GS1XhQrXz07W8kr7DGfPI5ZWEq6lOU59hkzZbDWrr5xvXPqkd8Z7ovSjzDil5P4SgXZKX7q8PubxxLotaj6dzRJCSMwfTDZLJ5bL616U2bc2Nir6uoKUUt/i4ErEUzOW0iZePWSfCfPQIfPQupLeGU/5ukIyZTdydKdyvXY9dq3VD+5Cspl2+y4+9sGoP7ha+omSyqWkEalSXo6PrYW9rbdu88bSl7babtfdrE/rpYfpRbsHbj7WcRSM5kGH/5BuyX333dennAkhl1xySfXn06dPcyV7/fXXqz/v27evf+XpyJYtW7761a9Wf/3sZz/7+OOPD7E80C9CobDaYa4de+wOuVSpn3Z5g5FYMss+mgi1rkgsFuE4Re8bVhBDqJ2LxRcXnA6Hcz60EvcbWQFJscUfnjerJDRFiWQ6WyDs4jhFYl/GFdLJNL8l55lIP63lvPIUsFcyy3HNyF5LQd2S1b+wwrbZdLOA/2jho66S/rlDtTfZZGo1R/i7TK5Xr0dCCpFgZMgVJtRP6WtPiApH5rq/0htIYTZAtROycVpg2u+qnNdVvkIpb3ViLFQqpTUfHHO5+Lj27E7jLq7QOCbbNo6QbqPoLTuCz08BeCE1znrmang8Hq8/HE2mE6Hame3Xjh16aL9cafEnh1VYnmXT2dLtko4jul2rtoRsdggXgEnvbGVfVmrVbayzXK8utYDCUdds8x1YpDWqm/2dm8Kol3L+USAQVI8ZSqOeu/Nj7ORDqduWWqxmdWs0Kn10znW0fGdPojc2ubgmhCi1ylKNnYhGkp0Xs1Sc8u38wtEH1Pq5KHd1Ki0z9trjXD/b2Ejo8wpyn4+vJ1Eb9eWD/Kp/tvc4OA+tK+pyHSlnIdJPcQaRBNq5SMhtM5tt7lBkjjPZoLXVd/GxD2bjyXJElwiEHPd5ibB63bUW7/GStN87Y/d9Wg89zID10m8P3YgedPoV0pXL5Zs3b+5T5lqttvrzysoKV7Lf/va3pR+2bdvGnDJi6G655Zarrrqq+ut9991XLSpsHEKtXskMsxRWjx1+7KF77rj1+kt3bROIlVqjxe7yBiPDG53TIIghkGotMy7XzLS+YWxBqJ72RpPZfD4dD88ZOccO1p07jcIVdhOUuuX9+3bUXb5yrjX7D9wnISOHj7pKl0clM4g5bqxXCaTMUFYhHh3i2ERCCCFCtZY9FOJ4ODykUrVVmA1R7RunBWYj/kjNMGFCrY+H41aXZi3sH9pDEGKpuNFAj96GVeSzdfc8CeHYQGKplD0nLSEjehFQJZDqZ8KxAOsdq4XjBw9opyOjXPC25fPV1RjUga16mzTfsPX0VzLorcRdaHmrjqREqq4kWw16m94ekmubX/Rx4hyuxtZumUcT1UPpY8Fw5a4aJVe3qGehtNLG4rGuO3/1lLF8N2f18AM3i8XqKfucPxytu/Eo1NpdFuZZeF/b2CgYhRUUqLWVUEHhqD+c7C03HlpX1L+ehbJpRyCQ6u1zXu+cXd/ioa5Baqfv4n8f5GwI638Qto7vN9PvttpLn9Z1DzNgvazj0I3qQadfIV1CyM6dO/uU89TU1I4dO0o//+d//mfDNK+//nr1T3fdddf555/fp8J050Mf+lD15zfffPORRx4ZYmGgP6TTLkujOQEJIaSweuzIoYOPPnTPHbdev0esNLrCgx+mScnVPDyek03GIuGg3+vxzLlmZuzTFsuU0TLMZ4G7IBTzMtmBXKut2d55zsBCtvYWMaXWj9Atp+b4qKtYOFYbyyKUuOVortoU6fTQx31L5XJ2OCsejQ3puqmdwmyMat8wLTAWYZdB0M51Rv1g1dVYNNlbUbomkFevU5h6eyojnU4W6j+l5fJG8W5lw1PiUX8shBAiNnq9Vvb5wYnHpl1DGunPq+o9y94unDtTCekO/v5xNhKubjWhsPVtGUIIEQurd0PWouEmG10klbbqmTi03VO2W+YeJ1TpE6GwzdWsL30yuj5XllAsyDaXzlcGX+XTXd83EGhnPabqEP3C6tEnHn3gwP6bL90lEMrVeot9zhuONzpt7GsbGwWjsYJCqbi6cWLB3m6w8dC64pFI9UEeqVI+xCGVXWmn7+JnHxQqlZXJhCszD9Rb/4Oo8dlEu/reVnvo07ruYQatl3UculE96PQxpLtnzx7mbLY8uuCCC77whS+Ufj506BBzat2qH/zgB4VCgRBy0UUXffGLX+xHMXrx7ne/m/mr3+8fVkmgfwRaT2TBwBXVXVd67FJt8Q82rCvuOjSST8fCnhmLXikVTuy69Ppb999x4J777nvgoYcffvSxgwefOBRNjsTU1R3g58JTbberGIG1QizcePhcPBJdZfwqmprhmiFrFPVcV9l0mt0+Ck/sn2hh1z1HmEuMwGG+/qHvwvBCnq0Ls1GqfYO0wGwyuVr3YRtrJiCEHbxPxpO9laV7crVaVP9pNtnLfKbJeIOdiFI3Hu8j1qobvCAtHefpoiUfnpaLhWLtXB/iIQItc3rmsuNeT4T/rzqXDOGJoGQsXr0J0e6lHvNRphPNmmv3c1e0HU9vP/A+io9b9XDbIB1LVn9ePXjHnl1N7dn/WDm+xjWFd1vERm9kwSBh9+KFteNHDx989IF79l8llupnwqxOsK9tbBSMyAoydrdCD4OxCeGldSUZJRB2e2tneNrpu3jaB5UWS/l1j4VYpPHROh6Jlk/7JFMWbccrw9D3ttrbrdDuephBG+TtXt6N6kGnX3MjEEJ++ctf9i/z+++//9ixY//4j//4u9/9bnp6+vHHH5+YmKj+NRqNlt7PtnPnzqeeekokanDR0Q+JRGJtbe3qq6/eunVr85SsuX1PnjyZSCQuvfTSfpYOhkBqCcaU3tmZWe/hE83DnIVjBw+o84JY3Qy2fdPNaWk+HpybnXU9cazmpT4SjVav1mu1SqVcKhaLhek59aUPHOWvpGNDOu2Z9asfqsyTs+qfmZ3WsmccTnrtrmPrv0rM3tGZ+mogGl0WihSaDt4LJxDrp0dgXHP9YX2IM4y0LMyGqfbejUJVdN9U6jf0EB41r1AbtfTBJ1jHtkI8GidTXdZPPBqtj3VTaqO+8dWh3GKRPfzQ8doPC7FojPR21VYuTCRyfHWNZKN9ufyRKqWE1E6nTFYj4Tipm0ZlzFQvXwfZH+Yr3z24ryzrap4PZjGz2SwhXNGPsZmUafxkGe1T5liKzirbqus2ZmVtvrzcEoyrg3Ozrrng0dX6RxIKJw4/vF8edUfC9mqB+tvGRsCIrCDzsqjxDEBt67115Zl10vD9oCOujb6Lr31QPu0ye/YfPEHIatATdmnZ5wv5qMdfOk0QGeZmejt5G5G22uS7uuhhYDD6etDpY0i3r4rFYjwe1+l0//3f//29733vhRdesNlscrk8k8mEw+FvfOMbp0+ffu973/u9733vyiuvHEB5CoXCnXfe+aMf/YgQcskll/zTP/3TzTff3CR9/evaXnrpJYR0NySh0jIXtrjS0aDX6w9HotHjDXrYktUnLNNTyeCIDtnMxuam9A8crhlfqrK6XDNT2hGavGm4BMqZoDcqP1B+9VLh2MNaedRit+jlUrGQZJPxsH/Oe+h4JQJCK6zeoIcjVrFhCYUCipCanYDWuyJe/bAK1KV8/XmdoOHbmgahdWE2SrXzYBSqouEZWhtXkPn6RD2NGeuRQG8xip44yArCnohE4qS7eX2y0Uj90ChKbeG81Smfsqtm7ztae1BdDQdjpNs5SNflywOgW8/K0ZXSK1RZpwPJeCxPhjjFHR/WG/fAYrrVWySCgb2RbZ1AQEj5oJ5v92K/pmLGe3OPLSFjw7U58Q1fBHLjjN84Q/LpWDQSjUYikWg0eowx8GPtyAPGaXnMWzk93PBtbDRWkHl/tMfmwEPrYi4yggPk+cDbPijUe4KOmPrhY4XVJ6anjRE/823j6bDd4jlBCKFUjmDv46ZGo60213EPAwPR14NOHyde6Cu/3//cc8898cQT//u//+tyuYrF4vT09PXXX3/bbbd961vfuv3225988smf//zng4nnEkK+8pWvlOK5hJAXX3zxrrvuap5+0yZ2zbcc2AtjTSBWT814gpF4Op/LJJYXAwtum1knE7GejVgLu7p+63Uy4vV6vd5wvB+H/mzErlbXxHNplWMxHvVY+h7P7et68S4d8UfWiEhjNqkkFCGkcOLIYw/cc8f+W2+++db9B+57tBzPpSQaq3sxFvUYpcMs7VDqViCtm8eK441II61Bmemupz3sVRuF2SDVzodRqAqhVMx+sVc+20YALJ/Ns28JtnyzWz8J9HZL/dQHx4JdvlomHWa/NI4QIjLOTHFfhEkts1N1D2KdCHp6f11OPhKMFgghNMesD33R6+O+o0AoFpbObLJtX/D2KluZ60M8+NtqzFcW5ttcY2bNUGLxoJ7NGisxj8Xi6ecUsMw3XmZ7eqdj1wRipXZqesbjD8eS2VxmJeQ2KSoHhhMH7dWptUe+jfW6sUZkBZkDMNt9vSCH3luXgFkp2b5OEN/3fY0Lj/tgNh5PC1UGjYQ68cQBuVQ/PTPn8XrnXNN6uXz/Y8cLtMLqi0XYj012YUTaanva7WGAEDLuB51xDel+5zvfue2222ia3rVrl8PhiEaj2Wz29ddfz+Vyr7766j//8z/fcccdzKkY+u2nP/0p89dkMvniiy82SZ/JZFifXHLJJfwXC/qlnadmk0GX3T7jjbL3WYFQqtQaS7OUp7OJxXmzYv3avhALd/uGpZhn+p577rlntg9T5OSjM5ZHjzOvtGmDJ+jSDuTaqY/rxb/Y3OyhNSIyznr90WQ2tRxacDsdNpvVbDIYTGaz1eZwzgcWV1LZZMRjH/7o5uHUrVKvZkWzCslkcpAl4EO87vVWlFI/rKeY2inMxqh2XoxCVSi1atYNvUI7z/PVpxFp+XjPZfeUMy5TXUj1qKer0+Kkf+4wO6JLqWZc+mb7lUDvmjOw4+MnvC5/j71aNugJrhJCaP1Uf6bGafwobTLe0R22dDzi98x5/OHY6BwgBZVJFNc4X1XDs+o7cdp4zyHvpGpldQdIt3mRlk1nKw2dUut7jzJsRMmI39/XFweLlerqbNar6V4mAG9XPmwRiy1hjnUSCOV6uz8WD5llpWPD8aC/fH9n5NtYrxtrNFYwy2gFImXDl3+2jYfWpdQqqycJyXg/d4W+72tc+NsHY3OzYbHdG4wkk0s+55QyG/G7Zu0zLk8kKzU6FhYT6ZhnipfnX0ajrTbWdQ8DhJBxP+iMa0j3mWeeqQ+q7dixo9c5jrq1eXPNFBZbtmy56KKLmqRPpVLMXy+//PK9e/f2pWTQF+lGb3CplQzOPvToow/fY/cmm6QSSLXT3mhw/dXXhWFOjMghH/UEa2f8k1iaDZvasM8ItRQPh4+T6tOmArFSb7HPuObmPF5/MOj3ej1zrplpo1be7YvpNgaBdtrIigHFo7E2D235ZNjr8Q7l5LNGMhJlzYJJaS36IQ22aqswG6La+TEKVSHUT2lZMd0k48UJnF/OTiPSdztrLV+Exrk5Azuoe9wz4+00xpiPuObYc7BTqlmPXdpiQfGUx2tmvWqscHhmupegbjZsnzm0RgilmO7b6ysbxnQL8dbNoCwdnFbKr7r1wH0P3Hdg//VSuaXrZ3x4Vh3fNpA4GSEkm02XLpil0sHfKBWop/SV9t/mIOt8PFpNpjQO67hxzlNPrb+hMBpp/DbbOtl4PN1t55/PpldXw/7m3yTWe/320sueqncaN3wbG40VjEeqL76SGKd6fDaj99Yl0E7pKycJhWg42l4Oye7b5xDwtQ/G/cHj5QOPWD014w1G48l0OptOJ+PRsNfF5/Oko9FWOb6o2x4GBqSfB51xDemePn16aWnp9ddf5zHPQqHw93//9zab7cknn+x0WdYMD/fffz9FsV83yBSN1vTNJpOpH6WCDnR0M6A+glKvcsuhjeFKAu30VOXZVZrrBZrsArLnVKzc4+jDbY1snP1ydrmy2biwhq8s5zLE9eJfOd6yFp7rdYQYL0a1bgXa2VlNTQdZCHvDbV37x2b1+++57x7LbHtnt30T93hYwSfZ9GzT2xzDL8wGqHa+jEJViKdmp2vDkCciDeaRZX17MFLzLjJKNTMz/Lcriqf8QYei9pRn7bDd0lEvmI3Ypx9jHVclJn9wpp0La7HRE57X1Q7VXT1k0dsj3YUUk16L5eAJQojM7pnt26wLjWdBbjRMNx+bm9LqpzzMZ3iSXovlMcabSgvHD1qm5kZizI1ULi9ti/SALhgrdzooOeOxxoER6GfsleYfD7fzLr1YuPL2ddpgt0j7VrJR12zS5Xw+3/eXQqlnqseBtXCwncvrtHdKqZzmGgXXltVIsNU1gdIypSCEOefmCLSx/m6sEVhBEgtGykcgXg6svbcuoXGmepLQMlBHCCEk67co1fZG7XPY+xoXnvbBZDJJCum+zk5RNQpttZmuephzxrB3hD4edDoL6RaLxYY/86Ve+sEzAAAgAElEQVT9PC+77LJMJvPJT37yzJkzvHz1mTNnbrvttk996lNf//rX77zzzk9/+tMdLf7xj3+cELJ7926LxfLd7373y1/+cpPEZ8+effrpp6u/CoVCu93ej1JB+wTsx/WaTK2Qj87VjSVqMjD1uGem6UDdGpRS2/jZbebsPYQQUmDP/ZhMJguEEFrM/3Sepbe4MKXT3AexfMQbrH9lOZdhrhf/Kpfoq4cs+qm5cCyZzmaz+aoBl2aE61Y6PTerYjaqwuGZmZbHtnx8bnruOCFEpO11AEVzca+naWHS/hnP8ZpPRKa52T49TMVjYUa82gdpBKpCoJ6dq52y4Jin+abOBudq+1bZtGt6qLMuVAjUrqCXNVR37XD7IdVsbM5ofKy2GVMqZ9Db9ptMBPJpf9ihqonqFo49qldb/B1OFZ6PefTqew6tEkJr3P5+7daE1E6rtq4Qi9Rdj0U9rieOHH5ijvGUZDLoObzGSlY46vGORExXqS7tHqvxTu7vdi1buY0sVyuHcp4gt89ZSqGXwpG5lpsgH/b4S6EjSjXrmhqDM5s+WT9FaTCZeTqdJn2fdFJsmbOXx1OstjNXS9w7d5hojb11Cif8nlaX5+Xb7MweYthtrO8bq68r2MZoynx4zls+BMnsHj7ibr23LoF61lWZVeiE3xVsdThN+ufCRGtsEI0e/r7GhZ99UCAUEnJ0brbLm7gdGvbO2EJ3Pcy5Yfg7Qv8OOp2FdE+dOlX9OZfL8R7VZY66bR7/MBgMhJDHH3/8uuuue+ihh77whS84nc4vf/nLX/va1zwez3e+850f/OAHoVBoeXn5rbfeauerw+Ewcz7cr33ta+1Ma1d1/fXXGwyGTCZzxx133HXXXfVvP2P64Q9/yBzr7nK5uGZp6LFU0AGlUV9zPZrnmiInHZ6eevQEexR2sw2zdnjaOFM3pS7zuyIef+lMgtZPc1zCyvX62pfQxMI1F//JcPAYIYTq9WSzEYF2Sl87/unY3GywcT+Ujdin/au0qObFb00mkxjmevFPrpaX17tw7IkH9l9/6Z5du3Ztq5ooEQgEQqFQLJaX5lT2R/v0OPtI161yJhiseVb6xGNTU94mwZd0eEavfeBogRCRYW6uv29pLRx72Gj0cMxqnY/NTU0fYgZTaJUz3L/3xvJamJGu9sEagaoQGr1BBzOwfMJj4Q6CJoPT9ieYb6jUzAfnhj9Et0I6FYyFbDUx1cKxR2+V612R5ues+Zh3Sql+4AizFVMy00IsMtPZ3NRCtSsaC7CKcPzgAaVcb/dG2nluLR8Pzujl6vsOrxJCq5yRsL2vs2NL9aWRMiwngn7WEPB4NLpKCKFav1ojmx2F50OIWK0s7VqdvuyNsZE6uAeajJael+51+suG2iqSQDvnLw9UP+ZqPttWNjpj968SQojI4PHbG9+SWf+mzmbiYj6J02LBtvPt371oubYyr2AhFmU1lGwsEidKjnnCO1jNVpSu4LyGJoSQwuEZO8d5bVl8zjIbV9hdlh6v+Vf9M82H02dL1aGYMjLWn+82Rjrb3breWG3rwwqua5VjPjY7U8qR1riDszx1/L23LuGU118+T1k7ZJ9umkXab5+NSRvPFNT/zVfRed/Fxz5YekHCiYN6tXHG4w+Gw+FIJBKNRmOxeDyeTKbT6Ww7759dXwvGj43GPPPeVnns07rtYXrQXk/C6zp2aUMfdIpt+8UvfrF161bmsl//+tffeeed9nNo6e/+7u+qmX/sYx9rknJtbW3Pnj3t1NzWrVvf9773LSwsnDp1qkmGBw8eZC34wgsvdFT4V155RSqVUhT17W9/u0myTCYjkaxfRtpstr6WasgyK6EAk9vAmu+OEEJk5oWaRIsrOUYGi+VPHZraoKLC6iv9IbScKnadnmnFWTNoi1LZFlkpMysBh05ECJGY5x2q2rWgFCbnvM8XCCwmcuXsai7WKInO4VtK5djfmlr2WSuXoCKDL8FdmamF2udKKZk1VC5garE8OkliW2J/Q2qpXCPzptrKFxnc1ToPLWe4v7hYLBZX5ln1SSiFeWGJuVQusxxwGiQUIRJzaLF27WmZweacX/D5Aosr7G/qcr3a2Na1mzqzXG6MPivrMprWOevbXqqSfMHKeqG7aD15gl2qjK/uPT3toEQa60KrbdCFrut2EHVVLBZTIYem5k4KrTA5fayKyKyEFhzVl7TSGudyg5x6knA3CqwQSmZyh2rba2qp5m2GhBBKonMvNdpynbbPvhamFj/V3lFnO5J7K29V0ZPMklPHLEKDQ0Uusbhg09QmMi00KkUuUann2kxrj7PMYyzfEgGrgt0H0gqTY2ExwW6ZudSSz2lSiVjPgFAS03xPNZwKOTTsTAkhtMJgm/ctLteVo5hLrSz63FadrFJwWmULNGou1W9YDjA1OrGRmOaZSTjOO3KLNlmDObpo3XxiPVGi3I3TpgCj6LmAqf5YQ+l8/B9GupELmUulU7kTHSyWmtdUVkVkXWy3EaTmS6djlKEPa88skinUtEipgLW0NSlF9UDLkll2l3dMkcZdf+StZLSgq7QK2hDoZJ0S7uqZafPaWHZUe0raFOBerdySrdq4Je1vknatF0NiramOxLyG4l73tlezpvSc9Z2pnA0RSmHj2HK5lQWDhKI17pW2Vozji3y6SrFl1hBXuXNLDkXpRLo+BW9trFjsqG0Xi11vrM7wuoKVzS8yOJ0amlLYFhuXMbc8X86RVjk40jQSMFX2U808x4UlH60rt7JQeQSGO4tEwCyjKIWDs0IGsvm67rt6rqXcko118tcIJVJoDFZ3oO5ClL0a7RyJeG2r/PRpvfcwXWnzwM1zv92ljXvQaRbSXVlZufvuuz/2sY/dfvvtSmXjhwx37979/ve//4/+6I9MJtPdd9/9xS9+sb3vXffcc88dOHDgIx/5yHvf+97JyUlm5pdeeumf/umfmkymV155pX7BZ5999uKLL269A1fs2bPnJz/5CVcxXnrppZ07d1YTX3/99Z2uSCmT6667jhDyvve976c//Wl9gpMnT/7+7/9+6Ss2bdr02c9+9uzZs80z7L1Uw7RkrXsTdmsy53rrZZx2cqFNoWLX6WslAtba+QApkUyl0RlMBp1GIaFLf6IV1kCqmJhXNcx9/QqGEdJlDOmlJAqNRmcwmUwmg0ZVyZMQQivMzeK5xWKR2QVUs6MlCoWsfPVKqxqEGjILOtKayLrYalvmVhbMdZfqlEim0hhMJoNGUS2ELZQorl+F1mlwzdnNerWzrWkzc1MvmlsHWxXrbW/9XI1bo6vVRF3wu12UzByoz69H3dXtgOqqWCwWi6lFt0nF7icoWiRTKBQyxh5CCCXSlBoX3+qiqDKTw1opU7WN61QSVk2KVOZ5zkB8p+2zr4Wp13u1d9TZjujeylNV9CyzNG9mhzYpkaS+BIQQSqKxNQznFoucNwS4a64vcisBp6nuaEEoWqKoHlDr1osQQkl0tgWue64dSi37HAYZRyuiRRKJTKFQqRQyVjkokcrsZt/MrRMwtG5vrFUzBTjyyiy5dQ3Ok0Qqs3PB55t3mssdeP0d37qDLKXqKd7Eq1ygdHeznSBzIjTvdDodNrOuZoOJFAarzeF0+loE+HPlzUHpFniL6HIUiZKoDFabzeF0Ot2BhnGF5XlT6SqfVphrAge5xOKCTScp/U1la3CsTy02/k6RymAufydHVSRCbqfT6bCZNBJmw6QVOrPN4XQ65ysteiXgdjqdDqtJxUpoKCVcKCfMLfsqCVl3vHQms9XmcCy0ceuwLeXgAiGESEy+0r2mXCpkVVD1rbnd1WSWnmqz9LkVX+UEl1aZa26fZlZCpS0n0rl7vJtXCbhINAYFTUl0TnZoKZdYLJ1oizSc39VLGysWu2/bnW2sHvS6gutKwRVa50sVi5klp0ZUX+eZlYDTUPk2a9M7efXaCukWeWldqcXq3WeRyjrPvEOaWQk4zSoRoRW2piG6Pm6+7vsuZvl6rKXccsNDaWOUzOCsC953fiTqfWfkt0/jpYdpV5vV1c9+uysb9qDTLKQbiUQmJycFAsGOHTt2794tEon27dsnlUrf8573XHHFFVKpdN++fSKRaPfu3Tt37ty2bduWLVtuvfXWdr+Z8S2bN2/evn377t279+zZU8r/0ksv3bNnz+7du7dv37558+ZkMslaKhQKffCDHySEXHDBBQaD4e6777777rs//vGPm0ymD3/4w3/8x3+s1WovueSSiYkJ5i68efPmH/zgB1wl+clPfnLDDTfs2LHj9ttvP3HiRKcrUlIoFGZnZ7dv304Iede73mW1Wh999FGfz+d2u//sz/5s27ZtpZLccMMNTz/9dDsZ8lKqoVmySgghhKIoiqJomqZpWiQSiUQiiUQikUhKP5c+L6UhpPZyc9kho0hl4cqClYVKC7BDuh2lr5NLLS7YDOxwSXnXlOhslaGUqZYh3VIKSqJzhhK5XGLRbdXJGowcomiZzlw3LIxbasnnZPWfhBBapnM0PhfJLOgoUlclNXVCtRXSLeW2ElpwWg2qBlfKlEhlciwsrZ/W5BKLbpuJde1O0Rw3kTtdr+bburypWUEiUX1F1LYNih0kapG8QZAol1rs4KyirhIVzuW2NkRHOq/bwdQVQy615HNaDZpGuwihRAqduaZt8awuDqZwJ4rFzIrPadY0aOq0RGUwO30tytNp++xrYTj0VO0ddbajubfyVRU8aVYEQokUGpPNHWh+qEi4VRw1wVFzfZRLLC44bSaO9WG1YatjPtRq4ExXZVjyzTvMHId0dvU62t2PKjFE1okNx3kNIc1CusVisZhZCbgb7t6VGlKYfY1GVudWAjadQkJTtEShszVMMjSZckyXbj38L2SmCVlvs+VKLNcfoZpHS4q5xdLQAUq3wN8OWikSxd2hcMeqU0sL60O+KZFEJqmcA1EihcER4NhOi1ZRq+/kqIpK/8fY6RkLEiKxLRWLxWIx49PVdMPsXpiS2UonIKl5TfOEfHYhmeX14QIUXaorutHApXZXs+vSZ5Z9Np2scr5KiSSVOz6UhJ/nqHI+A0VojXslVywmAg6dhCIULVOodAZDaeAIKd+dbXlXqcs2Viz22Lbb3li96mEF1/3/7L19bBtXfu/9i9+GduIMnaQeJt4smd0syBRtye3eXbIvz0PuTXHJLRaQtriFVDwPHnFbtOICFxUXcCEGaAqlQJdMgFZK93kk+sKAaGzXopttRCOtRWc3j+hmb0W5SURtvOJ47ZijxDZHsS0O/SIOLclz/5gZvogz5JAcvtnngyyWFg/PnPM75/zOme+c+Z2FET1g9uIrD5mF8SErgfGbdZxOq7BVR8ix/vZVKunyF2+6d+WSs6N94vaZshwI84BfSRu0qvka912VJWzMSvxzZEL8kdlahtlsNuorFiIVG1kbnIma6Ktq+zT1PIwCFJqr5X67AR7OSecxrgWnnLWUBw8e/NVf/dU//MM/PP744xMTE3/2Z3+2Q7ctZWNj41e/+tW//Mu/TE1N3bp1CwCeeuqpX/7yl62Ofnz79u0f//jH//Zv//Yf//EfmUym8PcjR464XK4/+qM/+sM//MOWFgDRNCxDMwxDMwzDMABarc5kMpUcT81SiTjFaDQajUar0ZT9f+E0RTqRoHUWi05TlitN0zTNsAAarVanMxl0jYVsYmmK4oMDabQGk6Xt51vxNWEYhmE1Wp3OYDBIHt5df74drlcTsGTIM+g9UTiCHNdbLSadhFlYlmUZiqKo1bX8zu8w5zQVbTZSm1wBe8K2LE3RDEPTDAsarU6r1RoaHSOKoSYsL3x/ueQP5vFUwmsQC8TQNEVRDKvRaLU6nU4n1aY9X5gOmL1b6QJTlBVBy7d0S3tda2EZMpGg+KmPoSma1Wh0OoNOp9VqdQaLzdIW87I0mSApmmYYhqYZmi6UQqczWGy2rnCHYhmLhtIZTCaby2XrwcHIRgZ13zmVBWJ4ngq2LuYzG/MYvnlsDfCBWSosFUSyYzBUPB4nKZqmWNBpDQaTydamvt6DsHQiHidJimJYjc7i6neZOteULBWPCQ2nMeh0BovDoVa7UdFg3OAeNBVuE6hEPEGSFEWxoOMPWKirj3Smj7WxsVpRQYaMxeIkRTOsRqszGCy2hps3Mqj5zqk8AIB9Kh3zKFq4N9+7WDoRiyUKOehMFoetnhboprEmR31WosJul/vExTxhHw0Gff3y9WGoRCIeDU1MnFjkjyUghuZItQ7C6AqHr7aHeZjppoGgyqTTe5LuX//1X//d3/3dY4899u677/7BH/yBwl+l0+lvf/vbH330EQD8zd/8zWuvvdbKMhbhOI5hmPX19T179hAEUZT7EAjEQwUVclm+K55ATjj9kbDPVnN6YKh4NDjmmzi7WtB2MfsUpXBpiFCJ6irqo1wYBAKBaAw27jH9zrFVIIbmqJCrRYtfNuY2fPPEGuhHFqgJW2uugUAgEJU0IukiVIZN+Gy215fzmNWfiPlMiiYaJu5zOV5fzANg9mkq1qJdNAhEW9nV6QLUB0VRb7zxBgAMDg4q13MB4Nlnn/2nf/onfj/v7Oxsq8pXwWOPPXbo0KEvf/nLer0e6bkIxENLPOAT9VzA+iaU6LkAoDXYBgPRRGSoeLpOvt4jwhEIBAKB6DI0Nq/XjAGsRYJRpkXXYGPByBoAWL1epOciEIg2wgJb+Ixu8DsEHfZOLOcB8P4xrzI9FwC0tkBozAwAkI9H4myt5AhEL9Bjkm4sFtvc3ASAl19+ud7fvvTSS1/60pcA4NKlS+qXDIFAPMIwJLlW+IfBVN/rG1rXoKMYRZFhWnX3i0AgEAhEmzB5AoMEQDY6EaZacgEqOBbJAuADPrehJRdAIBAIliETCZLeof2xrPgHrJcDI/U2ZJzMAwCYHIoFXQAAMNlsBABAnqboVpQLgWg3PSbp3rhxg/9w+PDhBn7+1FNPAcDu3bt7LtwEAoHoZrQGQ/FMNCqeqG+JQCYS2cI/DBaTasVCIBAIBKIzaFxjATsG+XOBQEz9rVBsLBBYzANmHQt0VRBdBALx8EBH3CbdS1/96ksG02C4dG1PU7QQMs1isyBJtzNotbzvp8n6brsYmmIAADCdDk0eiIeCHpN0v/rVr/If3n///Xp/e+vWrQsXLgDAb//2b1c5UQ2BQCDqxuF1m8XjVPPnfO4QqfQGlokH3GOF2KmY0+dGki4CgUAgeh+DOxSwY7Aa8gUplbOmgr7QGmBmb9BjUDlrBAKBAAAAKhw4wZ92kV89FQgVA6OxZFz4h3nQZehE0RAAFrfHigHAaigQVi7qsolgIJYHAGLQo9LpaAhEh+kxSffll1/++te/DgBTU1PJZLKu346OjuZyOQB45ZVXWlI4BALx6GIJhINOcafu2tnv2mzuYIyqrusyZCTQb3G8sigejqYfCodQoP62wfIwTEUzsQwjfPloFgaBQCBUweANTtjx/OKYW1VRlwq6fYt5zDwWGkMb5BAIRMuQXnkxkVAsDwBADATQRozOYfKEAnYcIHva7fJEatx0AQAAkwgOul5ZzgNmHAoFkKKLeEh4rOdCEKyurv7+7//+1atXn3/++dnZ2a997Ws1f7K1tXX06NE333wTAF599dW//du/bX0xEQjEowcdC3g8Y6cvihItYITZZjOZDAaDwaDT6bQaYFmGpelEIp6Ix85dLMZbwI0DgVDQo+hUNYQaMCHXoe+erZHIOZ2JutvQJl1VGAQCgVARJuq2fOsEbR9PxLyqiB9U0GH63jmtczoeRVF0EQhE66CCNtP3FvMAuHUkEp1waAEAmKjH8q1jq4AZh6PxoAOtyzoKS4Y8g94Ty1nA9E631+t1u6RONGHpeCQUnJgIL67lgXCOhkMBB9pDg3hY6D1JFwCuXbv2p3/6p+++++7evXv/+I//eGRk5Bvf+IZkyrt37544ceIf//Eff/WrXx08ePDv//7v//zP/7zNpUUgEI8UDBkJTYTC0djiarZmYgw32hyuQY/X7TKgrUZtpatU1K4qDAKBQKgKm5hwOL6fMIzG4gFbk1MdG/c5HK8nTGrkhUAgENWho97+wTcTYHT097tsBqDikVD43FqesI+Gw0gV7BLoeCgwFgidvZgFwAijxWQyGHQGk0kLFEXSFEWSieXVLABGWAd9Yz6Pq77z1BCILqcnJV2eM2fOvPHGG//+7//OcdzXvvY1s9n8wgsvGAwGHMc/++yzVCp15cqV9957L5vNPv3003/xF3/xl3/5lzodcrwIBKJNsDRJkiRJUhRF0yzDMiwLoNFoNVqNTmcymAwmg8lk0qFVRYegEzGS0Wg0UPo/lmVL/6c1OSxtmTa6qjAIBAKhMnTU4+g/Rtum4lFP4zfTLBnst33vrHZgJhYeNKhYPAQCgZCDpePhUCgapyiaAY3OZOt3ewYdaCdG18FQ8Vg0FosnSIqiGYZlQaPV6QwGg05nMFksNofDgu66EA8jPSzp8qTT6TNnznzwwQcXLlxIp9O3b9/mOO7IkSNHjhz5whe+8Pzzz9vt9t/93d/dvXt3p0uKQCAQCAQCgUA8ijAxn6v/dcoxHY80Fi+BjgzavhPRDEdiQRd6vIVAIBAIBALR+5IuAoFAIBAIBAKB6HJYMuT1hE3BaCNBdalgvzvumpjwWFAAGgQCgUAgEAgAJOkiEAgEAoFAIBAIBAKBQCAQCEQPsavTBUAgEAgEAoFAIBAIBAKBQCAQCIRSkKSLQCAQCAQCgUAgEAgEAoFAIBA9A5J0EQgEAoFAIBAIBAKBQCAQCASiZ0CSLgKBQCAQCAQCgUAgEAgEAoFA9AxI0kUgEAgEAoFAIBAIBAKBQCAQiJ4BSboIBAKBQCAQCAQCgUAgEAgEAtEzIEkXgUAgEAgEAoFAIBAIBAKBQCB6BiTpIhAIBAKBQCAQCAQCgUAgEAhEz4AkXQQCgUAgEAgEAoFAIBAIBAKB6BmQpItAIFoFS0V8/f0TZIsvQ4Xc/d4wybb4MggEAoFAIBAIBAKBQCAQXQGSdBEIREtg4gGX5TtBxuEytPhKBodLE/kTm8MXY1p8JQQCgUAgEAgEAoFAIBCIzoMkXQAA2N6C3H3Y7nQxSmAZmqaZntl2yDJM7xRXTdv2VMXbCRPzOhyvxA2j0YjXpGn11QyD4di0g3rdZfNE6VZfDIHoBCzD0BT9qD60YNlHufYIBAKBQDyMPNprm0eKze387a38ZqeLUT+9pMn0lC6hsmF7qu6q8xjHcZ0uQye4fh0uZ4HdBnYTcpvwAAAAnv0yOJ7uUIHIsHcslKBomqYZhlnL5gEAiOEFOmjrUImqQkcDvmCUpBmGpmlaKC7mnKGjg9pOl60CNW3bUxXvHGTQYfveOe3QbDzUr2vXRdm4z+Z4nbT44zGfpeUqMgLRWuIT/WMR3mnRNJPN5wEA7FPpmKdtQ6qDkCG3N0QKlWeyvKc1+pOkz9TpoiEQCAQCgWiIR3tt80ixkbwZ/497mTvb929vbdzZvr8FALDb9NzQMI51umxV6SVNpqd0CZUN21N1bznds0v3AWRuw1quTVe7dxdu5+H2BtwT9VwAONg5GYilEwmSokjy4uqa0CcBMJPN0LESVYeh4gmSosjli6uF4oLOZOrGIaSqbXup4p2CiXr6v3cuaxwJB6vouUx8ot+k1Wi0JlegerwEpSk1tkBkwq5ZfKUfbdUFqMfCiG6EpUiSpCjq4uqacM/zKMHSJElSFHlxdS2bbV3tWTLstuk0Go3O5kHRuHsf5PQQiN4CjdmaPGwmerTXNo8U+fXczc8376zlmYyg5wLAgcNYd+u5PabJ9JIuobZhe6nubYDrCja5Dz7mTi5yJ89zv9xo65VvUNzJRe7kInfyA+7adlsvLU1mtg8X2sbsT3a6NDXJLYwYheLiQ3O5ThenOmratqcq3k5S004cAIwjC9WMkpkbIopeCO+bzTSfkr/8lB0HwO3j3T92WkuddkN0K7n0gt9aWP/ap9KdLlB7ySxN9RU6slHtKTHpNxdvLbBemHERVUBOD4HoLdCYrclDa6JHfG3zaLGZSp/0rkx6Vya95Hsr3SC2KKSXNJme0iVUNmxP1b1VdMcu3dw6/GoDAAA4yLR3o8y2GEB31xPwTFdYg2EFCxA2R/e/YqphGeGZMWZz2Lr9bXcVbdtbFW8bVNDtPZsF40goUNUoZDS2VvxXNh5NNJ8SAAAMnqDPjGXP+dwTpNJC9wYsGQ2F44q3H9dpt4eIOg3VbuotnkZn83gcrStPl6O1eDwuvHa6hmDiseXiHqH8cjTeEzuguryHd45H1+khEDwddw5ooaI2PWMitLZByLJn64Gw1tqz/3lDV4gtCukhTaa3dAl1DdtbdW8R3TGudu+FvQAAsEsDxlbdvUlz667w4RAO+9p6ZWnYeDTO+z3c4bJ0uDAKIONxYbFhcTm6fKe7qrbtpYq3DSbs9Z3LAu4c89XwqCabpWSgYxabrENXnlL8gTcwSEB+0ecJUgrK3DPQ0bHvekOKdeq67fbQUKeh2k0DxdNqNd3+mlor0Wpb5WC1Foux5J9Gi6UnXHmX9/DO8eg6PQSCp+POAS1U1KZnTITWNghZMlROCKx55Alif2fLUg89pcn0ki6htmF7qe4tozsk3X2HwGUC6wvwrd9o71bZ+5AWNwU//UQbrytPIhrPAgAAZnH1wHMGOha9yH/S27ozyEwJatq2pyreJtj4mO90FsDoHhusdciBdjAYHrbiAAC4eTgcdMv+QHlKEY1rbMyKQf7cmC/aE5vulEFTde28qd9uDwt1GqrdNFS87p8KehPLWHjcqccAANM7x8OBbl+x83R5D+8cj67TQyB4Ou4c0EJFbXrGRGhtg5Bj6zp5n/90UH/gyc6WpS56SZPpKV1CZcP2VN1bxp5OF0DkiSeh/Zrq9j24yX/aDc8eaPvlJSBjsVX+k8ll69Z5uwgbj8b5T7it+7rbNMcAACAASURBVJ9fqWjbnqp4m2AiY8FVAMzu8yk5uFLnCsaZCYYBrbaGN1eeUsQw6HV4/+Ts2ilfcMzl69YtDfVBk4nV+n5Rv90eCuo3VFvp8uI9amgs3ijlZRlW0zuDBHUheR5Rp4dA8HTcOaCFSgvoDRN1vO8hupbN3KdC39j1nKkbXohWSi9pMj2lS6hs2J6qe+vojl26neImAw8AoHsC6TLxmPDSSvcHbQEAKGycx2xd//xKVdv2UsXbBBUKnM0DYA5Pv3L3rFG8QlWeEgBA2+/txwFgeSIQezhOsWfjkYYCqNVnt4eARg3VJrq8eI8oPaTnoi5Um0fO6SEQPB13Dmih0jK63UQd73uI7mX17toWAPRcIN2e0mR6SZdQ27C9VPcW0kNDqwXcuiN8eLJLAunGeihoCwCQcTFqv6nrY5eoatvicQXdX/H2wMYnJpYBAHd5XN1gEI3D008AwFpkIvIwBF9gIqFYttOF6AW63FBdXjxE94O6EAKBkKTjzqHjBUB0CtT0CFky5EZvBtLtJU3mkRVkAGkyIo+ypFsSSPdwlwTSjfVO0BYoi13i6PrYJWralo7Fe6fibYGNTYRWAQBzuLtC0QXQ2AZdOABko6GHQNNNBAOn0WpZAV1uqC4vHqL7QV0IgUBI0nHn0PECIDoFanqELFvXqR4NpNtDmswjK8gA0mQKPMKSLgqk2yQ9FbsEBdJtJWwsHM0CAHTRKw8ah8uBAUA+Fu5xTZdN+Nxjy50uRQ/Q5Ybq8uIhuh/UhRAIhCQddw4dLwCiU6CmR1QBBdJtAz2lS6BAui2i/uPRtrcA9sDuhr6V4AFs71KUvmbO9V5aUSDdB3AfYF+LhG+2PNo9HY8KsUX0jcQWYdWJna88G9nYJSzDsCqFfWo4K3VtW45MxRmGaabWTVit6k9V6hdViQuKrtHlaMQ7Ky9iPZXROFwWOL0I+Xgkxrr7VbUAQ8YTFE3TDGh1Op3BYjMp3ZvMUIkESTEMw4BWpzMYTCaTji8aFYvQpv6d0xsd8/X3v76cb668iu0ml1BpBizDsFptgxu1GZqkKIqieLMaTBaLQXlO6hgKoJnGbUvxKmEZhm0i0F5L6lsJS5MJsnCdOlu3SraqzTYsy7CKvYsKRisziMFg0BkMhmpXb2UXKiuXxFivw/Gq0p1kW5UhY9FoNJagQWtxeTz9Jvky1TNZqNI5ZS7IMjQL2hbNwZ1sLMnrNLeOaaYu0M55WcVLgxo9RyXn0PgU3OaFipC8+4Zt0x2pweIqTqi+O3rE1zab23nYje1t6FsJHuQ3d9WTvio1y7b1GLZfRt9QsV7NBtJ9kM9xu/fvrl+uqhcVdQMkyOz4YcsEGeg2TaajggynnOxN7uxH3MlF7uQid+YSR28Wv8pvcL+8xJ3+QPj29AWOzNbO7WdLXHiRO7nIvUNy1/IKrnueO3OJo8tTrt/kfr7CvS1e+q0l7tw17s527eosLYt1SUt8e2ONm/9YKN7bF7jP2NoZKiSXmp8acZr1OAYAgOFG5+hsMsdxudkBnG8TfGA212xuHMdxXCajMJ9ccnZ82GkmMKFXYLje3Dcys5Sp8pvkqFFIbfYnJfLACaN9eLpqFjJklmbHRwasRhwrlsY5MpOsnZW6tpWhvOK59PzUsNMoVhs3943MJJVeIpdemPEP2Y0EXrC83jowqtBqudT8+JBdqCxghHnAP5cqXDqzND1c/FJvHfLPpRqprgKWBIvgQ/O1E2fm/QN9Trvdajbq9WLFzeMSZVOeUoaFET0AABBKyqWIXGpufMiux3mD6416omjf8XkpR1L2S6seA8AJvdlqd/b1Oe1WI4Hhxr7Rmfk5vx0HsE+lC8nnp8dHh+x6sWMI3cPoHKpgdDZVdinldluaGupzOu1Ws9GoJ3AMAwAghudLyuwfspvFSgKGE0b70PhsxUjMJGf9A8VujOGE0WofGK3uQEpsk56fHukz4sJgNxpLu+34bNXh1IyhKrJqtHFbXrzZAfH3xS4iGr2QM4YbrcqN3pr6SpFemB7p4ycGjNAbC82L6+0D/uqtyyOOYwCjP8lxHMdlknNTI32ioxfcn3PIPz2fUuZ7cwvjfNcXBwm2w7qyP1TBaJml6ZE+a6FLYFjR+9uHxmd3NKCKPVyK1MxwX98OH6AfWSjUdrRgZoywDlWZmpq3TC41PzXSZ9XjhQ6tN9v7hkWHk54bdeoxwPVWZ1+fXY8BYNYpsb6NThaNd86aznPWP2Av1KX+4SlFBxsrNTM80CcMGEI0sDgec6n5qdEBuxEvdUb2gdGpOXkLqlaXhqpT9kvl87Iql1ax56jlHBqegtuzUKmg+4Zt0x1JEhXXcqq7o0d+bbNJM7Hxi8e8K5Pelek3ri5f2ip+t8Fe+enVn7xGTnpXJr0rx1678l7s7r2qubE08/4PLx0/ujLpXTn+g9WFlc1qqW/dvfDO2vIvWLlEJWVLTr9xdflSMeFm9u6Ft1dPvprkyzZ59OKp4+lkakvqtyrUi+O49XcuC9cav1VLGCrCXr29/PbVn/yAPCaUk/zRG6vvf8iqp8WIqKgbIEGmrB7tEGS4btFk1BRkMksz/pGR0Rp3vxIolnQ31rm3F7kzV7h1lqMucScXufCyoOreSHNvL3KnSe6TDHcnz62vc2c/4E4ucj+7xm3J5EZf4cLnuZ+vcVmWu3aFO7nInVzmbkjpsFWuu7XB/XyZO/kBd+5T7tod7k6ey2a5cx+VpZElz/1sUZB0P7hT/hXLnf+YCy9xH6xxNza4OxnuzHku/DGn3BXJk54ftRMAAIR9ZGpuKZVOLcyM2gnA7VNL88OE0IPs08qmnCq5JdNzI2YcANMPz9Xoipl5v50AwIx9o9NzS8lUOpNOLc1NjdgJAMI5Jdej0lN2ocfrh+dTc6N2AsMI+9D4zPxSMp1OLcyMWHEAANw5lVRsn1xydrTPiIF4c7uQTKfTyYVZf58eAyD6ZqoYRl3bVrlOseJD0zPDZgxw8wBf1OT8VJ8eADDj0GxtaWB2hC8vbh7wz8wvpdKp5LxQU8Cto/PV2y01y196aHxmfimVWprzOwkAwO3jSzmOS88O6AH0Tv/sQiqdSgqtoR+oWaxGKFjEqmQ1np7uI3C8fBUovUhVnlKGzIwTK5njmiSz4Hfq+b7Z558rzGe59NLMiJWAau2enhs2Y4AZ+yrvNnKpOb9TVKyshTVtemZAX6C4sgWM0FdgHy+vnXK7zQ3rcRwrTyncBqTnRqwEprcP+6dn55dS6dTS/IzQOQu9TKjbiBnH9M7h8enZ+WQqnVqamxkVa1TFgYikZoaMGEbYh6fmltLFtJnknDCeAdP3jS/IjYZmDFVCE41bFZWKt/O2JzM/asVLWiedWpgddRIFoy/VWge0qr4VlxkfMPIObXhqrnQNmF6aEVw9YR2ZrS7Elkm6udTsiJUA3Ng3Ms7XPZ1aWpgdH+ZvLTHCrmT9lpkdqOz6tW65VTBaLjk9ZOZXs4R1eGouKXb5XDq1NDftH7ISALjdX9LfVepCciyMmomdhuCVtfTcsBHDjH3+mbn56QGhCXDndKoVlknzyxB+5vdPzc4vLc3PTfsHeGMR1qEhO4Gbh6YWeIPNCbcEBbfWwGTRZOes6jxHnXq8ieEpRwcba2HUXGlgoz+ZE5V2o3PYPz07N78wPzc7Ndon9HIgrDL3karUpeHqcBzXyLysyqVV7DmqOIdmpuD2LFTKjd59w7bZjiSLSmu5lrijR3xtk7397qsrx964fuVqfv3Dq9Pelcmjl2OXtjiOY1O33nl15dhrq+8v3qFvbWav3n5/nJz0rhz/4Y0b96UzYy9dP3k0efLE+lU6n125ftK7Mum9/H5KZmva/Y33f7Ay6V2Z9F5ZvqW0bO9f2uI4LvuL66eOrhz/wdUPP7x749Ymm2XpD9fOvJacPHo5trKler04juO4zQs/5Eu78qO3N5SYdpO+vXD88jHvyuTRS5Ef37qSYu9lN9dTtz88fumYd2X6OFNTRFaOiroBEmQUWkNVQaa87h3TZNQUZDJzQ+KMAZjZX5d/VijpbnMLH3HhFU4QPzPcW/z+1k+5zz7hwue5c2tl6u3GTSGB5Crgzhr31iJ3Xvxqa13YDPuzNaXXfecat5Hhzpzn3rqwc3tvfl1Ic5qqVqHCRU9+wF0r8ZtbG9z8R9w7nwj7fLfucGfOC8ov2eTDocyC386PKeto2WPC3MKIETBCT4gTthL9qUZu+kJu1WW23MKoGQPA7RKeIjXtxAGzF/bBlP9wtk98ZGO02wnA9H07s0j6zfWM2lxyesjIP2m3j1Y8R01NO3EAfGBWclCpa9vqxSxUHDAMA8w8MldxQQBZu/GJktMDvDhGOMd33u5k5ob1tYZyenZAD5h5uGzZmpnpwwEAM49Oj5oxIAruIrfkt+JKekODzA3xueNDc8p/lEuLbSa7SK07ZQWiFoT1zTT5KDA1K3ROzDwq4dVyyWknLswpFVN2ctyKAeiH5SeE1EwfASC74p8fEqtfsu2iJsrtlknNjVix4iVy6blhI24emqm4K0qNi+n0w/PCTIWbhyu3YCT9ZuFxpHF0odqemVEzBphxSFqFy/DuCQAwa9VsBBozVFONWw8NFo/bcduTnh2SNbqQyjhSzVptqm9qhr/MTh9ZdiVesSkXMXdSlHT1zgErjun7xhckMiy6VVz2ihW/ySRnh82F29Eqkq4KRsvMC8tq2eVhZklQfPE+6Zmu8S5Ug1xq3u8U89aPLOSWxq24fmAmxXEclxMVVMk5pHnLpMUlLG717+i4ueS44MSw0sk7OWXFADDeC5UmV+r0VOucFc4zMzdsbGp41qaTjZVJzgwU7jf0fcNOPWDGoelK/51ZEER6/n4qJZFXk3VpsjpNzsvNW1LtntOYc1BxCm71QqVLh23TC7yaNLGWa4M74rhHbm3DbV/98cXJo9QFQVG9865vZdK7MvnG2uovrp08mvzR8fUylTPLnPGtTHpXfvTjOxI6wq31iG/lR/8sfnX/9pmjK5PelWM/XJfWLi9dnxY2rq7+SkIjlSnbD9ZWf3HtR97kyR/fLtmftk3/9Mrx4hZaVetVXp1JL/neSs33p7fXF6+d5Lcq/3Dt6s6NdPlkkJz0ku/+Qm63YF2oqBsgQaaUNgoyXDdoMuoKMplpe+mjubp0FYWSbv5zLrzI/bxQz4yohy5yJxe5czcrfrDNneOV0MrNrXlu/gPu7U+KEvDGmpDP21cUX/cj7vR57m2Sy1Y6CJY7y6dZ4m7I14i+Ilw0THJFTXiDm/+IO/tp8S+frIjVPM99Un3bb3WKjSg1k2SmncUm1A8vqJnbSJXccvPDegDAnVJDPD0/3qcHAPu01KAtPGbhnYjkamZ+iFDqQooLR9w+Lrm0zM30YdKv0Ktr21qUVlxy1VCIQjAwJzn6C94O9APS9zni5lJMxt+lpuyY1KaV1JS1UDSi6GszMwWH1xJJt3DZet1zbqbQNDWEWuUpyyk8vTOONjNz5Iq3NfKzQnpGWCsS5dOc8I5JDeOkpqyYypIuV4/dMtPic05iaHraScjehhY6E+acXphyEtJDv3TcYc4ZubVzyR07Zpa+YVwqvFJD1F6DN2Kophq3PtS47bGO+p2EUeZRf7qwFsD65Izepvpm5of5hiPkdtcJxUkKTwlwu+zugaKkCwD6vpkq+aXEOzaQ65gSRS30fVlJVwWjFSoqb9TMbFHAwqSL0jJJlysdjfqRmSk7XrJ+XSjOejuGswqWSRfaTNpJJseFCQazlu71yqRSklZU4PTU7JzcDuc5ZcebGZ5K6VRjcVzxGS4AAODWcdlHz7klf0FeqiKhNFSXZqvT3LyskiXV7TkNTX9qTsEtXqh057BVYYGnhAbXcm1yR4/U2objuI3MO0dXjp+4I4oCd94VVMuVSe/K9HGm4p3e7SvH+UAHn3xI7/hqMxkkJ1+9drUglWbXf8Jn9er1q1IXX//pJ8K13rixXk/ZjnlXpk+Ub3HdYM4USj5+K6tmvURKBOhkjU26W/Q7n/BhFo7/8Na61M7fzQ8/PeZdmf7x3eoZKUBF3QAJMmXftFWQ4TqvyagtyJSZqDWS7icr3MmPOFrUTwsi7MlF7qxMdAXyghjWoHzs3aC4k4vcL0tGNnVRSPnOp3Vc96RcaIVCRIXzHCX/RKgYSPea+CeW+/kSd6ZEz+U4jiLF6MCfcPLBfmuSFp7RAphHJZe/xY3jCmKLqJZbmu85WJ9EmsIuO2kPUoxdUuWNuIVhvejGlqpVKJecEp9Ay8+yggepWC6oa9ualFQcd0quGnLiEkVy5VGoKlblYXOhyMRQpQtKTdsxIPokduyX1NQ4WrR4MW5N9RclGqVw1+WUnGuqULw1rCXUKk9ZRrEtZHy5okzmxX5cZlapdGJPLHX7wjxaS0xPT1nVl3TrsFvxIS9B4BWb34qkCrslAMfxKp24eCMoPyUVt16A7GInXZgXZVSuEuo3VJONWx9q3PZIbU0sslQQP2WM3qb6FrwypuAhUkGxletNJZJulbqLly6shxS7O6lofqWoYDRxpwAA4LJ3pEsls6rMlVop6RbtTJjN+vK5Jz03YtfjOGEeKhPU1ehOxQW5XFdLiZqu7Jq8jFpOT93OyXHKnWfN4VkHnWms8ktDydYTGYrvdcgvFBuoS/PVaWZeVs+LqtpzGnEOqk7BLV2odOuwVWGBpwj113JquqNHZ23DcRx3b5E65r0YuyQqDNn1iKh7Hhu/IalFZmNXxOADZTXcTKV/5F059dPiJlf2w0+F6LGvpaW2pdWIY1ClbJOvXl3d8Yv74j5c78UzH26qWK8CN5QG0t1e/zl1XCznFRnxV5B0/7lZSVdF3QAJMmWVaK8gw3Vck2mBIJObHzEW9h1b6wumpuTwwS349C7sPQjPiIlv3xW/0sDXn4PdUj/aJSa+da/krw/g4k3YdRBe2F/MfDUrfHzmoOLrArxoAELy/MNNyNWs0X24xQofDz8JAAB5+F9JyODw8vOwrySh/stgfwH+y5fB9aWyv9cFHXZ7Tq8BABADAZ9F6qg7nUEnNDJmKT+ssOncHLK5MdFwLA8AOoOh8lRUiqTyAACY3e2oPCOUjsUvCh9x50TIbZDKn6Vpmv+kqVYjNjHW/71zWT6vwES/9ImkTDQSzwNmsVnKC6KqbWtTrDjuDIY8BokkGq1Q3Xw8RpZ/xca9/V6+qkZvOCBbGJ3BwBd5LRqJ78giFhg7lzd7A/2VB+dSJCV8MvYPFu2k6Q8l5qfHp2YWEpHBZo/brYSlaQYAAHCtrs7TZJU3RoPNptFp+SLlaYppLAugQr7QKv+xzKyVF3MMuvjJbDkYTIh/ZWmGAQBIhCNUtcvoTCYCq5agIeqwm5g0v7Zm8vpk3YZWV+hCWdbi9VXpxGLCrNhDJNIYitsSDSbJzqmz2YSFSD4RS0ilaIImG7cjWKq1TuHAb2mjt6e+bGzMx3tlzOWVnhxKsXkG+TXZxaA3SFVNqsCF6wZ9br7ka6e9vihbPbUSVDAaFfIFhYlDP+iVmePA5HIUtWuHS4WDgBtkbXkZBj2uEkvrXBMximHoRGjQUPyrGt0pHo6s8Z8wg8kAUhgsJuEuIRsN1W7R6h2kJZ1TqfOsMTwbop2NtRPM4ZZYiJRi8ATcQqfOnvX5otVrrbQu0NF5WU1LdrLnAHTBFMxTc6HStcO2bQu8FqzlWtWpGqb71zYAALD96VJuW/P4C3pRmvg8lxE+7futP37m0F6J3+zZIyS+s5rbKP75wfV/z97Zc+C3vlHoG9ufLt3b5vMyPCGxUtjMXb/Gf9pFmCp7VJWy7Xru28QX95cn3/vEN//qi9/877o/GPnSt377MfXqVWBrjbrPfzqo3/+kRAIx3bWb0Z9s3AcA2PX8t4kX9kum2v7sQm4bHntG39yNvIq6ARJkygrSZkEGOq3JtESQ0Tgm4onZKf+of3qejHnruhFQIOlu34WbHBw+VJRu06K0qj0Mh2R+tbktfGBLFNbt25DehmeehsJwvZ+FNAcAAHvhhfLxXuW6e3H4DRnncJ8FQUPeC4/L1G77HtzkP+0G4oCg5956El5+oUK33QPP/Rp85enG9Vxgwh7PWV61NvvGXNLjg0yQgrBtctmqLZHrz01eZSMTZB4AYDUWJXfeJmlcgei0f3R8Nh6RcA9sPCr2aqMn4JYpMBXn8y9VdyRSBT0TF2vlRYc9nlNrYPT4Bkvro65tFVCsOObwuKQzY2lGsCZDUaV2ZeO+wTcv5gEA8D4Zd7eTtUSCKss8FgyvYnaPW2KU04m4sKIhHK4yR6sxONxez2CztZeGoRm+metWdNuAVpB0gWEaXLLGJwKLQjfWu/qrLBQBwOKw8Eus1XiMEv6m0fFmyS9+3+aaiMuXwuL2eT0Ss3X7Mfe7DLJfajSawjLS0i8zBoSE4kdZ42sHJ0LDdiNB6K1DwaDMjZrWVNSGKVq+2A3QbON2ghqtU+hAUkZvT32p0Jh4b2VxVJmACphcNv4WK78YGKsu2Wmqrkb5JLZ+l7BmXAuP1dCIFaCC0eKBwDkhC8I1KLuo1zgmYnPjI0NDI+NzsQn5tX8bIBz9tpqJ1OhODEkJii5otFqZKmt14hdZskkX0MrOCdDc8GyUtjVWI2gcoroGsHZqLFQjP0V1gY7Oyy2yZCd6TuenYIV077Dt7gVeZzpVo3T/2gYAADZzn1Hc7hefIESJ8yaZE2SO5w79+hHpH+VzoiRyO3+nmNXG5eSD3fonv1jQM3J3L5K8JLL7ha8fkNi2du3uNb4779n/vKFC4qhStkO47RsS+e156nHT7x36imGPmvUqKc+nwrjd9ZyEAF3g/spb60KjHj4kWU4A2PiIPre0DYe1X/2q5EZChaioGyBBpqOCDHRak2mZIKM19Xt8AZ/bUSnvV0eJpAtwCAdj4VHuffi8sMX1oMxvAG7nxeTbxT9uAxw6CC89VfzL1ZvwAAAAHtcCUV6YndfNF6/7whGQfoYDkMkKGe7aD3KPhG4yYpoD8PhdiCUh8yT81y/J5tkMZDBwWujAVk+/jNxOx6PCswO9w1FNklc1t0JXWX7F4fKGYmTZNKmzuX0Bb79FaljGo/G8WAqP3ORZfHiit1jk+i4T8Y2JE7HZ7a7Mi6XjIY/N9Cen1nD7eCRQdpurrm2VUKg45uiXW5xRFCVUKM+yJSalQr6gMML1gz4Zd8fD0LS4dX3HCpoFncXu8Uk922Hj4gYK3OFSdFekDiWV7KQGIY1G1AJYpuaqXpJEJCo0GmAmW/WFImgN4uXIROFhoG2wX9hitnb2+7+j09kGvRPhaLxi17DW4Q24TV1gQtnNcjvBTQoTVsHQH4yRNE3FQ7J11xT7FQsqbLos0nzjth+sCaO3p75UJCTql0p7iMEmJluLhGLNtrHG5hD9X34xHKWay00Fo8XDxSwsjmpZaAwu70QoNOF11buSUxlT1WLyqN+dZFu++IW2tqZfjVZ3zmaGZ8N0prEUY+l3FTafL9bYy6ioLtDReblFluxIzwHo8BSskG4ett28wOtYp2qI7l/b8GzB/iOP/5b9CVGh3Fq7LG5EffGAnOpw5/NN4VPuwVZJVvuOHPj1l588IP5h4+Psdf7rgweNL0roM5nLosx6+ABRKVnsLNv9Qtm0v60lKpK3ql4FVu+u8X/ds/+5SgFaJP/xjf9c5YVsePrr+DOVRbudI99Kzfzodk5z4Pf+9PARqf3CSlFRN0CCTGcFGei0JtN9goz0w5Ay9mnh5ZK63r8Dwl783fCsnAiag4yo5O4reZyyIyvIw+Xbwscjv1brunfF6+6FLzwhW9qrYoaHDslurU0XHiZtwHskHPoi/DddE/twq8BGAxPLwmfroNwTSDYeTfA9DrdVW9CqmxsYHBb8TT7sxdq5N7/7zTe/ixFGm8PhcvX397tMVZ4mRWNrYin6ZUoBTEx8eILveERRmigSjIgDxeiwAEmSLMuyNEmSVCKRIMl4bHE1D7h5aCoY8JQ/1FDZGkooVtzikvMeTCIuLhKwkufKbGxsTFyU6vvd1d83oErXGWUpta6JmEv6R4mY6NpUeZ1BMay4Wm7uXrtViJIu29CdCBWPiS+0gFanYRim6isrrEYLkAXxsaAGAEDjGAsORL5ziu85+bXFU28unnoTADDcaLHZbC6Hy1V1uLUbrU6nrCW1WoXPWOs1PUMlSIrmoSiy5F0ZVW8nVWjc9qPVKmydSlO1p75MLFp4mVFpD9FpdRhAHgAgG48moMkVkNagIwD4AZeIxBiPu/HRpYLRyFhMvNsEg6WLRro8hMFQs5jqdCetxWKEsxcBxFeYpa5LF3ZlESbpd8MV0vLO2cTwbJj2NVaDWGwW7M1VfnWSiMQYr/x4VFIX6Oi83CpLdqLnyNOmKVhpabp52HbzAq+7OlUtun5tI7D/id//HyUSRO7ep2IkhOdMcjpC/ua1B+LPdxVllx1ZwVbq/AYvnRz8Ta2UcLm1RhZk1scl3pHeWbacWLbdz9V8nKBivURukhuCAH3kiedk98xtp/7jjlAr2PfcEcis5be3uO3b+cznmzev5ZnPc9dXN7dh19Nf19m/fYioEr6hNirqBkiQKatn+wUZ6Lgm032CjAJJdwfFbbBPFKPc7uD+BojKKmjkN9vfvgW3+CczGviSvEq787qPQ+VDHIE8fC56BtkdxCWBdB9swwOA2zfhP3PwhV+DLzwhHRe4YZhoUIwTB0b5d0oSsTg/jKq3fQO5VX13U+vyeYzR1y/mC3/Jr108d+riuVPHXvGaR8LRCelt7MWnPUaHQ64UbDwaEx+eyFaKjUVihatffPNbL70JAIBhuFar1Wq1OpNtcMLncthspsqpXl3bKqLkMZdNtuKkOJABtMWYOKWl1bsGqysWdDxRkAB0SpeCVEE3UOV1hoeNxhRdoEvesVg78Z1nTyj8nab0FWJdfyg2zbo8hS9lvQAAIABJREFUp1fzpWny2YuLZy8unj3x5vc9eqc3GApUCWPQRhRL88o1fCXWZ+l4JBQMRWLxxdUsAGCE0WIy6HQ6ubexm0aVxm03TTw4aU99qQRZ6OZKb9FKwymskiQDSl6trYJWpxUl3TyZIAEal4hVMFrpalCrSLHqOEqC6KjUnSxut/n1V5ZBCNQ56Kj8BSlO4qAfdEt8r5yWd85OPNdsY2M1hsZQMh6pquNRYfSmDs7LrbJkFzwRb/8UrJAuH7bdu8Drgk5VB12/tpHm2r3CRlSJSAg8Ofb65+LnJ/fJapvrd0hhs+pew9elUm3mPrvGJ5AMpLuTrZKyfVFfI/FOVKhXyT7fKoF0NzdSlznxH/c//p9XPgYAeGy3Zte+/bux/Xu0hid/7+XHn9PvP/SkksOfqqKiboAEmVI6IMhAN2synRJk6pd0CwFtD+GyO1szt0F8cgOHDsgkArgiRLQF7TOyMXkrr/uMVlZ4vZsBYTfHPviCjNssDaT7X74MsAHXbsKnN+DTG7BXA79ugF9v6hlQKWw8EhMfeehdspvMSWVt30hu1buexhaIRWDQM3GufCkCANnlN7/lYOfjwcoHH8XYJbhN9gQXNh6OCiPXJrsdHhKxhHhhfGiWCro0SmIlChdQ07YKL6mg4lQ8IboJzGITU7HxSFQsLeGoFrofANhEvLAlgbAofBWJjqn7OoNyCi3WoGraYoRCNbhaZEoqZRxdiI8pirZT0Ys1JneEtEUmxgITkcW1nYMNIL969vVvmeLjsahX2QUeKlgqOuH1Bk5fzAIArncOj3vc/Q6bKH7RQceJc2tVc2gMlRq3Z2hPfRuKyld6BUZur2Yd2ZXcqDENhlwRf9600dhSg2i6MDqNFArudNXqTiZPYCj4rROrAGuRYDTg2Pn+GxsPhvllO9E34Wtu/3Y3dE71aWNjNYZWW5B0a41HZRJLB+flh3LW6NQUrJCuH7ZogddhOjgqiwFnjzwhEQmB59rGTTEqwf4jmJzEsJG8fYtPdujxrxgk87m3ViWQbgVMoWz6YoRchahQr83Sfb7yAvS1e7fETPZ9/Qv/9x8/vht27WkmtII8KuoGSJApv0DbBRnoZk2mY4JMvZKuskC6xcgGu+FZue23d+FTMasvPV3ruiWBdJ9+XDbVtVvCh8cPye7kLQbSfQL0Wtinha88B5nPIUYBy8IyCbe/AraaArMiqMLmkmqbzJnCIXzV217d3AR0rkCM8iYi4VA4GovHlktdycVj3qA34duZSTF2ic0lN2+y8XB0TUjkln00zVIkLXzEbA5HXVHyWmKN6pAFf2eRrXjpG2IlLwKUlBaT/7FAouhqFAdhKX2dQfatitZQ9PldqOkW4i1oGju7TavR8C9o8Zk0E8hRY+r3hft9wNKJeCwej8Vi8Xh8ebWQOWTPfb/fY0qEqob0edhgEyH3oOfUxTwAYMaBiVDQ0+QOTeWo2Lg9QZvqW3IVVumdeJnnaL5YpZGzm6ylCkYr/Un3uciGUa07aV3ByGjC9vpyfu2Ux9MfCw8ail/SUa87uAoAmHU0EpY4Vrg+uqBzdoTO+rpSwUWVK3dwXn7oZo1OTsFK6YVhixZ4HaRzo7K4EVUrH3C2GH8AdhEmOX1069Ml4ayx/S89KamJZC5vCNqKZCDdndy/XiibYb/83jrpwqhQr9V7SgLpbq3f3xA+Pka8eADb2/RWXHlU1A2QIFNKBwQZ6GJNpnOCTJ2DpxhId2+1QLppcTbdi8NhmUus3YB7fBEOwhdrvUFQGkj3WTlJNw+r94SPR+Q14oLcXLrL+NBhePkLgjFSq7D2QOqX9cKSFCV+NjnkB5s4ImsE0lU1tzJ0ln7vRDiaoNhMan5q2FoIor4scbZMaewSuZUfGw9HajsQYBhWdFgGi2TYb1laaA05mITo74w2uejibCwibvHHSsPaUGWlrV7TgvMFwF1ulzKvGo/GxGdwbQ2kCwBanZYfvozixXb7YMRDKnTahtbRBouhmBetSv00Ootj0OMLhqMJisllknPjA2bxDMjVE95AouqvJUgE3e5g3b/qCqjQoOu7/M0kbvXH4uGW3kzuNFQLGrcZWt6O7alv6Wm6rEKXUOo6MJ2u6af3pbu6lB72J0PzRtOUWoRp6YHxbXUFKnYnhiRprbXPrsdWT/2JyeDy+CaCodBEwOMymb517GIeNw/PJGKB5me2buicHaGzvq70ik2ORyGTzs3LXTZrKEfaObRxCm7cO/XUsFV9gfcQ8JCsbSQoBpzdTcgHnP00KQaE1Dxhkjr0DABg815KiLqw68hv7Jfabbe99knVQLo7y5a7VixbnXOnGvUq3ecrH0gX7uc48eSlvc8cUTf25Q5U1A2QIFN2hfYLMtDNmkznBJk6Jd3SgLaHZH57NwsFj/qC3LFjDyBVOPDiMBRG+3YerjKwXZG87LoyZbt9C4RNuvvKIvNmGLgp+p3SQLo7dhk/+Yy4sfc+XM2VfZXJlOSgHJZhxAGit5TMOOUkohKxRVgqFomWH3hYf26OKrnJoDU4PMFYbMouLEFocucNqJLYJWwsJDoQR4kDqVaMetf56tpWEQxDi9GubTLPl9hYWHz5AHd53YVilWwaw02ypRXKHI6IQVvMHp9CRTdRcOsmh6RbZ8hoJEa1ZIuYRgx/l6UbeT2upbBikTBdY7t0dRZbIQLVGl1xiLGSIkTdOp07KmN6jdbk8oYT5NyQkdfFL0bC9R7BS8XC4Whr2ra1kIF+z2m+3+LOiYiv1XuDdhqq+cZVlZa3Y3vqa7BZCktQWuHNFUMX3LkaSyCmpHKEpXDyeUOoYDSLw1J4Zk2RrWzhtroC9bpTYmIsqvOGIjGKWpjxD1qYWDgw5vUFgjHG0D86PZ+iE8FBVc6K74LO2Rk66uvIBFnYQNfseOTp4LzcZbOGcqScQ1un4Ma9UzcP29Yv8B4CHpK1jQSlAWePyEgi6/dS14WPB7/x1AuyQQxyQvyBPRrprDZzn1FiIN0XC0uK7UzyzrV1iV1oW2Vlq1mTHYVpvl7SgXQ3qDupa1sgzV7tU3WWsz5U1A2QIFN2ifYLMtDFmkwHBZk6Jd1iIF2tbCDdT8UIubsOwq/LRF3YzsLVTQAA2A0vlmi0V67A+1TxaLW6rntVvO7Bp0tk37vw/q9gWVxQlgbSPbzDA+0qhuh9wJX8/TbELsGFLDSDQa7DARWXiC3ChD2u77gn5J5qKsxN7Ek7cqNCgybtYxqdzReTHkYak9vr4l2IbudhLiWxSxxysUvYaMGBuNzFNyUrK6XVCvs7AVN4KoYU6tpWnsK7gwaLzN0lGw2J2/P1bt9gsUYl7wFpdVVPd2CjE2GhzMTAmE/hg6zica+ETfJ1hkSg/1vf8YYpZdnVScH7d9/9TcHlG4pR0evDNthfWCrGY3FlPpghSVpMyTL02lo0XP2XOlco7DUDQNnDw4cbNhqYWBbPG3WPuWWfHbNSb6vTIZfO4os3V4SmG7fHaEt9NbZBl3j/zZ9NVhOWLJxIC5b+5s+QIWOF03T0/TWiZNWkeaNpHIMu8QYsX5hAa+VAdX03U6s7keHIRWEW0dkGfaFInKRomqFpioxHQwG3o0HfLUEXdM4O0UFfVwwrp8Z45OngvPzwzBpdMAUro5uHLVrgdQUdGpWlG1GPyGi1mY8Y4QixPQe++rLsbtX853nhDeKn9hOSkQ6u3RUD6WqeL2yJXcv89H9e/V8fbVYmZxSUTQ4V6lXc51tyktvm3fixqz+N3ivVdPft3yVIL3t2H6iznI2jom6ABJlS2iXIQPdqMp0UZOqSdO/XDmi7fReu8HFRHgPjF0FufKZvAO+CNIfg2UIZ7kPqLmhw2OnOSgLpHpaLunAPrhQi85aE0b15C+4BfEHMsTSQ7jM76p4HUTcGbYlsnMkCC/BsA2emFd5IB1x2jyAZDi3zn0pii7CxaDyP7diZrlJu1MSg59TFLOTXFoMhuWEkni5T2R9L47bIPPhmCoMId7mLYaOYSDiWxx39JXFINKb6HgUxsYBnIs4AqG1bRWjFV/fl3uGnQxMRvuLEUHCsLN6KofBWQPXzeqlQIFzYMzHRL3kdtiJkLROLCC2JScdtiYfCF8HoKnP5rGqvJxlMJn6+obtusUoJ5+BitZ7DyWPzjdmFrpaNRpQsFenQoMXiKdu2sVZoIVks7kEzgEzQt2rhilmW7Z1Tl0oovjBUI9wQU/FkGgCAlezAdRpKlcatg063Y1vqq3H5vGbhKmQ0riDQQOHhPeB9JQ/SGyUREVeOmNXnq3rIsBKaN5q23+cR7zdr3v0DAAATdltsXimzd7oLlaJSd6IoCvJ0SyNSFOh45+wYLRr7tfOhwqFzhTcfVRiPPB2cl9s9ayinTueg/hTcKu/U7cO22QXeQ0CnJ6aOjMqyjajSwWo3c7/8T979Pfa0nTDKCwkbt8XXk5/aJ5nV7dVCIN3HC4F0Ny7fY2A3YaiMXVkSSPfFxgPpNl6vaxvFfb6FQLrX7lxn4ekXy8JK7CEw+XOZJMhfvnnuXK7yDEIFqKgbIEGmw4IMdIkmo5IgU0ljEk09km4xkC4AcNJprnwGvNfRHoHflJNfH8CqGND22aeKe2PvrsMtDr74a7AjmoqSQLp3s8J14QB8oSAkP4DUelmsXslAuuJlhNi+oIFnSr5LZwEOwJFa0X6lMNnE5pTpMnTYGxA6OWYpdGo2HollMcfOcwlVyY0tnmlIuPrlhhHJL4eMbo9t5xe147YUTj4scyB0OBTLE4OesgW9xWXjn73na79NxSYCLtcrobCwnFPXtkrQWSz8bTkjsWYBYGNjAf7OhRgKTbh2tp1D2GRQbZTSYa+Pz0I/FA4PVm4sYGI+h27/fq3OMZEoloGJhGNCmxpMEhuamHAgtIo7fV5LIZuAQ7f/0LOHNIb+INn8fYZFaIs1UnLl3zkYMdy7yVZfZKBSdO4Jr5H/uBYKhGvWkAxNnAVHf/n8uhoO1lo6CsfMGSTE52IoObbyvHCapqEXIzyW1ESjrXLOORWLr0r9nZUY+XUbSpXGVUzn27E99TV5J9y8r8yfmwjV2lPFRoPCU3DMOhYYrDpQFWzRYqMTIeERudEbVONmvnmjaWxjgT7h3bnVcCBSa7KjwhNRcPRLqF+d70JlpVGlO2m0WoDFiTGZTSoq07rO2eW0YuznyVqPcZno2MSi8Fml8cjTwXm5vbOGcup1DqpPwS30Tl0+bJtb4D0EdH5i6sCoLG5EBTlJ5Pb5z1c+BwDY/dwz/9WpqXIe/e69j/Ef9u3fIyU35Knzwm3efsN+8T3k7WsXctuax1/QVyTP5T5VIZAuNFyv22ussM+35CS3mxc27sC+F3YE5z3yOMFrultbG+UxLyvZunbzX4/duLiU26iRUBoVdQMkyHRWkIHOazIqCTISl416bdr9h549pDG5I/WJKvVIuoWAtgBw665Egrs3YPkOAIAGh//juZ3KbJFNuMc/j9pd3D8LDyCZhl0HwVgRq+FmSSDdZ3Z+KVAI63ywZJNv7hZc2QT9s+Jm4ZJAuk9XPhZ6TCjwLk3JNuF7cGUDDh8GmQAS1TG4+vl3bbKkxBYUNhHod58VAzoYTKLbZWOh6BrmGNz5rpAquWk0Gg0Abh7wz8ZC0rtAgYkGQhcBiIHAzk3mxbgtRodc3BaGpoVwKSW3pGw8EDgHVp93x02qwzvIT8KJ6q/KMDGfw/HKom4gFPbyTzbUta0iLP28D6CFrZ/lBfR6jonncgcrj7R1eNx8RVfjCekRypIT/e7TWQAg7ONSWQDEfe7Xz60B5NfOBYth0ulwSHQgIPG6BBP1+k6z1rEJ8bU6NuYbfOXcGgBAfvW0d3BCyWtsVdHZBMeq7JW4IiVNLumSG0lZChXnX8BuMn6fJRARghnlz/q81T0sOeEeI83ewM6XGNfCvuqGZhJxEgDMg/2Vj+5MDjFQWD4RJ3f+LkaCfCShko9V7Vb6amUNAyu2f/WEJbc2DCkzKADY+ESQxMXTRYqTL8OwoN35FlIjhlKjcZXScDvW0Tq1aEt9NY6J8Ci/q2o54A1RVZIycZ+XfwpO9AVF7y5PrezYxJiPzw63j0fGahxkq5TmjaYdDIWH+MbPnvZ6qmZBh71jCYPHJzU/N+4KlFD0ERV35TKo0Z0sLhsOsHrCZev3BcORaDTKnxafSJAkSVE0TTPSS3a5WpR8lNrnrHrnVHF41kFnGmsHywFvNfGEifk8J3htrep4rL8u0NF5WS1Lqttz6nUOqk/BrVyodPmwbWqBp4hWrOXU45FZ25RSCDgLcGc1VxkwEtaZf//XjW0AOPj4//lnzzyzt1pmB57axyud25tcZazZjY8+/0gMXHvoOVHyvX3n4mVu30v4cxU5b1FqBNJtol7bOUEL3kdoRLWFvfzxfTh88AViR9rHf+urfNXZ61S1o+nzlz8//f/e+Pzgk9/8f56qfTqcFCrqBkiQ6bAgA53WZNQRZCSuG/O531zMAgDkL55we2puASmDU87SMndyUfxvmVsv/zaf5d45z51c5N5a4da3q2a0yc2f504ucic/5rLi37LXuPB57pd3q133Z2uyWWavCWnOFYq1yS0scW9d5DbEP2ytc2G+8B9w1ypLmOd+tsidXOTCF7kt8W+fXeJOLnF09epUIT3D783BnDOZsi9yS1NOAjDzQJ/wXNE6lea/ycz04YAPzGZak1tmpg8HzDqelClxLjXdRwBgxuG5ihLkZvuEqYQYms/JZTA7wCcyji6Jf0uO2zEwjixI/CY9O0AAAODOmbRkfpml6WErAYBbR2ZTZb9U1baKSPrNGADoh8trkksKCwlJq4n1mBPu6I2jSxV24IsMAED0TSdlTJuZdoqjtmjLzNwAAZjRzB++UNEuyWknAbh9qqS5U1PWUgeA9c3KNaVicnND/IrfOp6q42fpKbtYCmJYtkPVl7L8V1ahijONtniBzPyola8jZh6Zk+6queR0nx7D7WWDKzMjtlq13pFbGDVjAPohmRRLo0Jf3tn5UlN2DO+T69HK7ZYaL/SK6uYqlgTwgSpdJ7cwUtg5oJe8dkYY+gAAxMCslE3Tc8NG3D41LxYOs06lxIphxNBcZa4NGarhxq2bBttRceuUGV3K33Ic1676pmeHea+EmYdlLpJZGhf9nn1ctriFWhF9fr8dx8wj89ImKLpR3Doqk0YKccoCsE9JF5RTw2i55HSf0OPls0jNDhkxzDwqa40Gu5AC0tNO0Q515dO0ZXILIwWnIg9GmO19w+OzyRolU+T01OucnOrDUxEdayyurBoYhsmOx9zSuHisS/Xx2GhdmqlO8/OyGpZUu+fU6RzUn4JbvFDpwmGrzgKvNi1Yy6nojrhHa23Dc+Ody5PeFfG/ywtXy7/euPv+D5KT3pVJH7V8VYGGsMGc8a1MelcmX0vT5d9sXr0V8a0c95GT3pVJb/LMh0Ju2diVSe+lWEoi82LZxtfvdaJem7+4ety7Muldmf5nQYLZvHRt2puM/DwvkTp7+91XVya9K8eDjHRpN3LJf74y7V05Pp6+cqvO+pShom6ABJmyX7ZfkOE6qsmoJMhUUuLqAQDwAYkbXVmUS7p57qyo5y6kuXcWudOXimrp+hp3+jx3cpE7c4W7o8B5UWSZpJu9yZ0+z/0sXdRSS6/7M/G6v9yo/FrkLvcOL+ne5DiO4za5X65w4SXusxL3ceOKkM9bF6UuxAu4JWr1nc+5txe5n69LJVWMOEL0Q4XpJbM0PWDEgLD7FzKFcSDM0unZAQIwq1+mxdXILTXTRwAQ9pGZHfdGudT81JAZB8Bl5sKFYfGGtNrUm5kdwAEA9CNLfK6zQ0YMt/orB42Qfn7EjAEAbvcvlOaaSc5Pjw6YcQBM7/TPSxRIXdsqIbc0asYAMPOoWNRcanbESgAApu+bWqrqmgp3OGUpc6k5f58RAwDMODC+UC2HpN/MV1d0pZkFvx0H3D6VzCXHrbwRp0Tvk0vODJtxwK2jOzItEeUAMLuwQm+K3KyMN5cgNTfl9/tHR4acRrxYDiDMfcMjo37/TLGfKE8pVyh+9e+cblrR5TiOyyVnhsx8QXDr0PhcyfDJJOemR5x6DAjn+I5SiSt+vb3PjGN6p3+nJJFLzU8PmXEAwr7zt6WpFkbFWHL6gRm+jXPpuWEzVrkcqMfC436/f3RkwK4vfdULNzuHRkb9fv+UOOySs+N+v390eMC6I2Efn3BaSJhbmhETlj2Jx83OgaHhkdHR6dLOmFnwW/FCiqHp0vGTXpgethI4LxcU5l7AzQOj/tEBMy63CqrHUKU/a6hx66e+dlTWOqVG35FQwujtrG9uaWqAX9vg5qEyMS6XmucvAhKLw53wN3P8IjOz4LcTleMok5wV3Cjg5uHZVF3lViTpcqoYLT0/ahdGBmEdnppPlWYx6x+yEoCbR6re9zfYw+VLJOktMMLaNzQyMur3+8dredrmLZMr6DAKwIx9/gqBsP7JotnO2crhKUdXNFaJuIINTM+NWnFM7xwtG4+51Py4MBxlx6MqdWm4OqrMyw1asoU9p17noPoU3JqFSukFumzYqrTAk0H9tZya7qicR2ttw3GbF8YF3fNHP771/g9WJl+7ekXco8ZeXX/3teSkd+X4G9ev3FK6J2w9duWYd2XSS76zWBAuttcXr508ujJ9nMneyrxzdGXSu3LynRzHcdyt9Yhv5XgwI6WBbl74oVA2IXH763V/4/0frEx6V479MHOP47j7GwtvJCdfu371vnRy9lL61NGVSS8Z+ekGW/p3+m7ynaunfCuTRy+989O79crTEqioGyBBRm1r1E0HNRmVBJlKyiSaOnfKKZZ08zfLtrjeWefeOc+FP+DOrnDvfMCdXOTevsCRGWmpVCo77vzH3MlF7vQF7mfLXPg89/M1md9ucGf4zbMXuDtVsxRk5Q+4n5Hc6Q+4ty5wn7FlCa59Iki6sirtJkeSXHiRe/tjbv4C99Z5bl6uVPUgdjBcb3U67WYCA9w4UBwSuQW/nQAA3Gi36jHAjAMzqRbnlp6fGrYTGACut9qdfX1Ou9VsxDEAXG8fmlqQuast7MUkBqo/ak7PjfAD3+q0mwkM0/dVlyr5Bz84AGB6s93pdNrNRoL/p31ofHapyl22urZVQmbe7yQwANxod9qtehwAcGPf6Ex11yGWJzU3yq85cb3Z7nRajQQGALjROTw+p0CGSM0MGTEAjDDaC7WdFlxzZmHcqcf4zUxOu5HAANPbR6RupnLJmSGrHsdwo1PuOXa9ZARNV8EDpbkhHADDMBzHcYIg9Hq9niAIHMdxDMMAKxFVlKeUIjfPT3iYc1qdOnIcx3GZpZkRpxEXVpcYoTca9TjG99XhaYlOkJvpwwC3jydzHJeaHXXqMcBwo9nq7Ovrc9rNehwAMMI6NCU1R+649LS4UgUM1+txTGayV2632QGsNCXBpywkBf3IAn/pGScGWEWWBJ8OA8zILxe49JS9ekLzzgk8vTA9UhCKMcJotTudVrMex3iZQOxNuaWpvsLiHzdXffih2FCVP6yzcRtCcfGUtk79Rm9rfdML08OFG1KM0Bv5KgMARpj7StpYloURfdmzp8zC+JCVwITewneXYnb1F1uppMtfvGmj5ZKzo31mQiIHwjzgV+KRG+7hEswPEyD2HqK89/Ddp6anLZaqMcvkkrP+ATMh/shsLcNsNhv1ZbfzABKbLxqcLJronC0fnhJ0vrE4rlzSneM4Lj3n7zPiUByPfHPVGI/q1aWR6qg5L9drydb2nLqdg9pTcAsWKhJF7pZhq15HkkL9tZya7qiCR2lts8GcOcpLn+R7K9vcrdvv/SA5eZQ8OU795AfkMe/KsVevvBe7k5VRMGXYon9+9dSrK5Pe5I/GV88EqVOvJiePXj4TE1TOeyvpU0dXJo9ePPXDT6aPrhx/I72alcyH/fCNlUnvyuTRK8u0ZIJ21GuTZt57IznpTf5onPrJa8nJV2vsVmavZmLj5KR35dhrn0SCq+/88JOTr/L/pN6L3b4hXdOGUFE3QIKM2taom85pMuoIMhKFWpoeshI4hhFGPQHG0To88mMcJ3PQ2Q7WrsD/fxMAYBcO3zHCPgDYgusZYDZhLwZPHoBCBGzlZDLweQ52YfDMQTi087SyIndvw7UNePqpslPLJNnOw9Us3HsATx6Aw09WHIC2BVduAhwA/ZPycX4B7t6Fz+8CuwuexqHiTqJRWDoejcZJmtUaLBabzbYjCiRLxSLRBMVqTDaXyyYRUbkVuTFkPE5SFEVRrMag0+kMFofDVDVKNRMPhWKsqd/tqhlvnUlEI/EEzeosDpfDUvVIwWJ5otEYSVGsxmAwGAwGk8lkqHJmQwF1basIOhGNxhI0q9GZTBaLw1JfriwVj8YSFE2xGpPBYDDZbMoMJP46FoklKBq0BovDtaPFmEQ0GicpBnQGk83lqt6casJGBnXfOZUFYnieCqp0qHVzBYp5DN88tgb4wCwVlglS1ETuVDwWJyma5seOweKQ7eRUNBg3uAcLI4alEvEESVIUxYJOq9OZLI462p+lE/E4SVIUw2p0Fld/G5u4pfD1omiaZlitwWQyWSyWilC5LE0mKEZrsJhq26sJQ9XRuA3TTe3YjvoCMFQ8LlwFdFqDwVSn36vMkIzF4iRFM6xGqzMYLLaGSx0Z1HznVB4AwD6VjnkUxfVq3mgsnYjFEoUcdCaLw1ZPL+imLlRKfZahwm6X+8TFPGEfDQZ9/fJ1YKhEIh4NTUycWORPBCGG5siQVMz5BlC9c/YKDXXjuNfwO2+uAgBgA3Ns2MXnRCdi8QSlxnhsnI7Ny+3yoopLU79zUHcKbot36ophq3ZH6nm6aWJq4ai8fD30/2VzALDn8T/42y9+ZT8AbN9M3rl+bWtr/95DhIZ4ETvQWM6bW2vk3ZvrW/nNXQeI/c+Z9j9ZGqw2l//043s3b8MB4sC/wipqAAAgAElEQVQXf1Mjd4mt9XuXP76PvfjkC0eqiB2tr9fm1s3L99Y+39w+qHn+pScOKVCJ8mt3P718/07mwZ5Dew8+te8gsU/71O4qx8o1ioq6ARJkSumAIAMd1GRaK8gwIYduop9MeA0Kf6BY0k38ApIsAMDTX4T/1nvHqyMQiFbCxj2m3zm2CsTQHBVydXwBy8bchm+eWAP9yAI1YaudHoFAPKI0IukiVIBN+Gy215fzmNWfiPmUncvNxH0ux+uLeQDMPk3FmjreBtEQkpIuAoFAPCrc/NdP3nrvPgCAnvi/vE89WSt9r/Cw1guB6EESPpMt4aOjbqVi8C5lye7D5+L5d4cPVk2JQCAeQTQ2r9eMAaxFgtG6DmhsCWwsGFkDAKvXi/RcBAIhT+mZ25qOP4x6hKDD3onlPADeP+ZVpucCgNYWCI2ZAQDy8UjVY5kRCAQCgVCdrbXL9/lP2hcPPES658NaLwSiB2FJktKZ6tncq0zS3b4DGf7Tbjhcf4AFBALx0GPyBAYJgGx0Ikx1uChUcCySBcAHfG5Dh4uCQCC6BJYhEwmS3qEDsqz4B0yn5MUyhEqQcTIPAGByKBZ0AQDAZLMRAAB5mqJbUS4EAoFAIGTYvPfpNf7TLuLLtQJC9hAPa70QiB6EjUfjGpvDUsdPlEm6N7PwgE/+BDyjcGMvAoF4pNC4xgJ2DPLnAoFYJ3dPsbFAYDEPmHUsoHoQXQQC0ZPQEbdJ99JXv/qSwTQYLpUCaYrO858sNguSdNuHVsu7Z5qsT5llaIoBAMB0OuTfEQgEAtFOVu+tbQEAwJ79zxkeIknkYa0XAtF7sLFQlHUN1nU2kbJB+7/Ze99QVbIswXfdrOwOs/+F+V72hPkeDy1o0H4fng4MaH3SggZtaJ4WNGhBgxYMaH3SggEt6IHD44EmPNCEGjRhBk0Y0AsFmh8GvTCgeasTva8mOV56qk7cftltnJruNk515RhnKqsNq845vg8RoZ5zDA2NrYae9YOs8lzDvddesdbaK1bs2DH8Sv7wB7//6J1jCIIgAABgi1VyXgouK5kSdzAhuFKmcgWUM1VK2A4mBIIgRoKr5T6+nAAATC6f5yrs7AuR7cl/OCMB2yFEe6q4Ygk3BQCXlVxNe1FX7JdynQkAMJEEobejIQiCIIgmfsGOx9Knf/E7W7wY3rCc6rgQ5PjgK7mGadMkV0tJdzLfSPe939tcLgRBngq2VKngpSevzmIHKupypVjm1YRynlXOcMUdgiAKy58cEBqVzgQAgAnnYo69CvTkcSQqOS8NcP1JLJBocBoe7RD6pUjg+68nQNmjlRxWdA+BKPCz3fIXPiIIgjwBfv2Pyoaz79jeefewspDkVMeFIEeH0Eid9V2ZzEZrdAG+dnZ2pvLVHXwlwv8Yw9/8DH4m+zlQvwVvT+HXt/DsbfitZ3rkRRDkFHnvX4VcXO0/fPLDvvnPY5739ts5Vwr92b/72/f8//4/lwJ77hpBEONitkCr9J/+4RaAdicrhb+wmQAAhFbqz//tZ9dA2eONhvZ3dCFkePs9TyRk+/u/6nz++rPnpf/Y+3t4748cf/TektMg8r0f/uAv//VfpD76/BoYf7rR+MGfWPYv8NNF5Nn/+sUXHPtffviX/+YHn395CwAAt3/bZ00W89tfffWLX4gm3IkaQZBT5W7y338tXE3+4a9+/v+e/0ban+C3fvdtEzWdjO9u33rrHepISyKnOi4EOVb4WuTPCu/9363Cn2y4bOHZdDpd/s3ov0FrqPo70x/Ct76+WVcIgjwNxH7B5/te35bu9HKevV3mib2Mz/dB37HfXhEEOQr4VioU+bAPdl8oFPDYgOs1KrVPryaMN12r5XxYITwYfK+SO8tVXry5BqAYu8vhsNksNofDDBzH8hzHsv3Xl9cAFOOOZM4yiQAW3/dNJ2H55kdX6t9TwbrYCO1PHgRBkP3xDz+v/j9fqj6U8Pvm//P/ev9/3ac8pDjVcSHIkSI0Qo6UqdSrhTa+KFEv6cIN/OKfAd6Crz2Dr70Fb70Fd3dwewe3U7i9g3d+B/7gbZ1iIwhyqvCthC/0Ee8p9lqJfVx/i2wp5PnuC3O42qlFbLvvD0GQ40Pke7VKpdXjOF4Ak8XhCcUSEZ8NK4RGQOB6nVan0+uzHMcLgiiCyWyx2Gw2i8XmcLk8Pp/LgmfqMAhsr8+DyWQymUD+TxRFkP8TRdHi8jlwIwwEQU6T2xEn/jO89fZvPfvtt5997bee3f5menszvf3N9Obm7u3fNzHM1w4t4Xac6rgQ5EgRBQHMWz30tKKkiyAIsj1CJxMIfcD5yr1GzLbbrvhGxPOthine6JQCuNgOQRAEQRAEQRAEQZATR8vr0RAEQTbG7Mt1euWQUGuw6w/WBdeo8L5ir4f1XARBEARBEARBEARBngK4ShdBEARBEARBEARBEARBEORowFW6CIIgCIIgCIIgCIIgCIIgRwOWdBEEQRAEQRAEQRAEQRAEQY4GLOkiCIIgCIIgCIIgCIIgCIIcDVjSRRAEQRAEQRAEQRAEQRAEORqwpIsgCIIgCIIgCIIgCIIgCHI0YEkXQRAEQRAEQRAEQRAEQRDkaMCSLoIgCIIgCIIgCIIgCIIgyNGAJV0EQRAEQRAEQRAEQRAEQZCjAUu6CIIgCIIgCIIgCIIgCIIgRwOWdBEEQRAEQRAEQRAEQRAEQY4GAiVdkWtkQqECq78lQnCVWChVY8VDy4EgCIIgCIIgCIIgCIIgCEIYvSVdoZcLuL5VEnwBGwlxiGDzBUyNb3t8mY5waFEQBEEQBEEQBEEQBEEQBEFIoqukK3RSPt/3e7Z0q5FymEiJpB9bpNYp+7gPAp5Eiz+0MAiyH0RB4Dn+yd/GEEVUA4KcOujnCIIgAIaLhpiLIggxDObdCIIYFB0lXbYUCn342hKttXIeMzmJyGCL1RppB/dRKJTr4w4MyCnSK4QCPo/L4bBZzCbTs2fvvPvu+1+P1J7aTQy2Egv4PC6Xw2Yxm03Pnr3zzrvvf91XMs5GMAiC6KZfijz280CFO7RcCIIg+4VdGg0PlvVgLoogxDCYdyMIciRsW9IVWonQdz+9tidrpZBF/aheIeQwm0xmRyC3ehcEjUdqbxBMnlyj4DW9+n4Il+oip4jIsSzLcdyby6vryeTQ0hwMkWdZluPYN5dX19e7U4PI1mIei8lksngSuFE3guwZOdzt2s8R5LjZIElGjhWB44wUDTEXRRBiGMy7EcSoYLbzkOk2DMp+GgDsye54xVGjZpSZd0QH6yOdR2pvcCZo0UsD0N78xfpBIcgxMh52s25K8QpvcXhogQ7E6LwYnIUHe5awx19knTMdA+Uk3TyCIFoYD7t5L614ojM/OLRACGIgNk+SkSNm2M3759Hw0GkJ5qIIQg5jeTeCGAzMdh6xzSpdrhRLvbgGe7KS86zaQZdtda7mf133Wn2dR2pvUMGWKGWc1PWnmVgBH1pARLZVqfUMvmZ7UyFNFk8i4dudPMeC2ZVIBOj1x22F0Ou8nt8tn7xu9Y7ihuBRGLxhORntncxAQAp3KR+1/kAE0YsRHGdDGTZPkpEjxuJJJHYXDTEXRU4eIwR5FXbr3QiyiBEcAbMdvWxe0hVqqcyn10D7zzIrC7oADo9rocJCuTwOnUdqb3DhN6lchIHJq0yixK0/Gjlp+NbZd1IVgxf3txDSbDbhvA8AZvOuNvU2u1z2hT/tLpfhtg9fxlEYvGE5Ge2dzEAkTCazgV7GipwuRnCcDWXYJklGjhiTeXfREHNR5OQxQpBXZZfejSCLGMERMNvRy6YlXbF3lvnkGsAeO4uo76ErYY6UanE3DQBAO+O1Ukz1BxqP1N7gAqbA2ZmbgsmnZ5nWUaysQ3YGzxnyXux9thISp/0d4zqr5f1WCgAoqz9fy7kOLZAmjsLgDcvJaO9kBiKD0Q7ZC0ZwnA1l2CpJRo6a3ZV0MRdFTh0jBPlVoD8he8EIjoDZjl7e3uxwoXFWugSgvJmMR8PhlkCpJxQEAdbeatJ4pPYGF7BFUr7Ut19cPc+UzgIZLOM/WXi2f3loGdZyFEI+QUyuVItLiYJ4REsE0Zb0cDLaO5mBIMg+MYLjbC7DVkkygjzCCPaPIDsFjRxBwBiOgNmObjZbpctVci8mAJQvEdJeDdf+6IDGIzd+FsEcSoVoAHhdyHXwVfVPFrHXMP5OK0ch5NPliOq5aEv6OBntncxAEGSfGMFxtpUBH9hF9GIE+0eQnYJGjiBgDEfAbEc/m5R0xV6h8BoA6EAicBQ7Sc4w+RIhBgCuGoUGbr7wRBEalc71oYVYx1EIiRwFaEt6OBntncxAEGSfGMFxjCAD8jRB20NOHjRyBAFjOIIRZDh6Nijpip1C5RIAKF/syCq6ACZPJEADwHWrgjXdp0m/lPvE8OHiKIREjgK0JT2cjPZOZiAIsk+M4DhGkAF5mqDtIScPGjmCgDEcwQgyHD/aS7pip9a6BgDwBDzHt8jZ5Av4KACYdGpY0316iP1M7Oz1oaVYw1EIiRwFaEt6OBntncxAEGSfGMFxjCAD8jRB20NOHjRyBAFjOIIRZDgJtL8erSdXdO0B3zZvlRM1b2Cs8UjtDQIAgMkXcMEnr2DSa3TEWGgXRWmRZ/ssx/O8AGaLzWaz2Gy2zbb4uNeCxeZwuWybr4dWU4xWhYmCIJrNW63DXtqFKAji1nudaD7LKw7kO5lQ6IPXk60EuIfA9vqz02OxuTwOYsvVyQn5GFEQRH3bzexw4I8h4gVLmtVjh/dbEgVRc+whoLpNA8subUkVY0c/UeBFMGs6Z0cRLrRAZiAkIvB9BJ7lOI7jCPs3EZYNYoNMQ9cZJz17HmwsAtfvs5wgCNIJtjkcDovUJddp8I6QZ10CSV6Nh4gAuux8z84rH647AutX/gN025LWfkgFJeIaeNg6oSRmBQbORfc2pZKbpMhPoLPDl5uCwHZarVanz4PZFUgkQo7lTR7wOlEW8xSCPJC0yb149/3+MNuROGC2o6t30O0LBB1h65iJ2Y4EkWxnqpHztB0AAOhoe/3Bo3Y2HPR7vW6n3WplaAoAAJz5wdZHam9QnW7SCgAAjJYRbMTovJwMuq2UrFKKmn2yeqP5+vlobQvDbjkZdDIUAFCM1W63W6Ux0lZvOFu/GKv/8rwYDfr9XrfTbrcytNQzE28rX48HzWzU67QyskgUzdi90Xz94qFMo4t6Nuy1K7qlaMbu9obTVXXhB9V4OOj3ut1Ou5VRfmfPXsj9tovpsNdOK6oAirZ7w+lic8VgZmNZbNGa7D48TrKG2aBVzGE8aJfz6ah3dl5kOez+6CPS9cHDTu431cxHvVYa5POjqJOyuqP59nDVT9dASMh6WPm9t6iIo5zRxTPgXnlG9znwZWzvBTKKi8/tcHTRLCaDTuuCHTJOfzRbbg/WNzedTqfjbl4ySiX0UA/UrPpDAqrbLLAQNPhNMHT0q2fD8jlY5wIHDBejdj4ejyeT6XQ6m83m8/l8NptNp9PJZDIej+fb96S9qCbj8aR8sHJoMpmMx4vdsd6BkI3AD9UybJeTQbukFto6O82SXrT4t0I7qpzSDXOABwyq8WDwgfnMRjseNNOzyEEx7mhZ3ZQ3d3bis+cBx3Lvl24rBUAzVqfb6w8G/V63naFoezBdbTezXnp15NyiawNGAD12rkcGHUnylhGYoPIfK0KnLWlEZ1DaoQZmjC6axXTUP8/kKNpqdwdnrbSjjBIN5fixHUbORfeWiJKyh11MoFNpZkgG3TOLomir0xuMKxd0w2bab6WAtrr9waDXSgFQ7uLgnmB7v058PIRTCPLbDWQJ+/JuzHYIjeXeL3XOUAf0BZKOsG3MxGxn9lty2Y7Wku6w6JXkdGtR2rAcnE1TM5aqW+OR2htUZ1T1U0RC4yLji3LUKZ1Fxh0vNi+GskGMh4PzZjkbdTMAtDfbVT2vo24+bKcAgHbHi83FKXR4Xk0H7RQAMO5kXaUE1YxbaZq6rxnZzobNpJuhrN54tlxvnw+Gg/N2NRuU3Yf25s+VFofNpJOmrP54vlxvXwyGg/NmNe2Xq2OMv7jcyLtp5+NzYs9ejJW8wu6PZ8v1ZrvbbtaL6aCsJmDccZUQu2wsS/Oh6hJreGQOw2rYOmOeTALFWB/hzauaxKib9VspAKCswez8/IyH59WkmwEAoOzR+rZJJSEhH6bRo3baTS+c+uGgW0/7mdkZPddQPtntwB91pssLZO6VdMeDetLNAG0PJvOSEoaD8249H5dmEIrxJqvry0ijeniJUa4JrwRUt0VgIWRLG2Ds6Jf2W2ntLnDAcDEsB61LAprc/4MZd57iP4AO18d6B0I2Ai8yqEbtFMV448Xm+XCu+tFFM+2VBkRZg3l1Q7kHqZJuN+1kHg5XGu2wGbdTlD2YrTbb5bAcVWh/eUlv2zk78dnzgGOZTqVenBRQ9uDjpHg8aGaVdALcKpFzy66NFgF02rkeGbZLkvVEYILKvz8SnbakFf1BaVcakBm282HJ82m7P1mcpTHtaj7qtVKUNVg8H5Eq+hg1F91fIrobeyAzgU6nw3ZWkoKyeqPZYr19ft5ulrOygTDuaNTL0M5osSuJ3gzTC40e7jrx3rBPI8gTssm9ejdmO4TGMp1OicxQB/YFUleLemImZjvSj4lmO1pLuk35IoqONjX+YjqdjofdrJfWom6NR2pvcBlKwYcKVrUvCFrFqJ10y2pxp9vLjHZ0Ltc86GB92feDatROAQDlTDaXn6/xhRyXVlZGpqNBM+lWrI2Jt8fDZtxOO6PVR7Y5yCvHWePt8XQ6rIettDP++D7MRdYp32uxp7srFDa6qCqRE8AajPutQNmj5cfz+6grpyRSsHrU4YxhO+mcec6SfGih56hdmzvPiwAL91XWM6hL5wcoZ3qJ9scXZb/UrjXa3GThBVEhpw/S6GE9qnpG5aPsyVVndLrngRPzgnlJ1+oPu2nKGsx3lzQ4viiHpYyVVu3x0W9GF/X43CpXlHQJqE5/YNFhS1oxcvQbNeN2PS5wmHAxHnbLcgNymPRml9jvsB2fRT3K6o3n64u5FJGBkI7A52knBZQ9uvweyqibVqYa98qpRoFUSVdmPGhn/fR8tOPzvJu2hquD6XQ6HSuXxgBLbmjrdnbSs+eBxnKRd1MA1vjSOCC1Xg0yACqJqX41GiMCkLXz7WTYJEkmE4EJK1+nLWmG4Mkibn7TRYdnvNllK7bGF+WwnaLs7tmUQXCxilFy0T0moiSdl/glzLAZlaYJ2p190Pv4Ii/7O7VoABdFNwVASVd5s/4Od514MkGeiE0ezrsx29E9Fv0zlMF8YetoTzBmYrajKvZG2Y7Gku6g6N4urIyVpbHrH8vUdqT2Bh8xW2lsTxOIjeOL2ZzHhJeXVUb1eUyhHheBRsqlObP0HtLjnmhvcYXgo7JXsbNouexnVINBNSjLTfnL3aKfsauY06jsnx1YXZkuNaPz2Am0O696U2J8np15w6ocbKjY28p8aLroNeRLuuN5QPIW1doeVuXYq2YEG0AijXans37GHl+u2mHZq5zR4IozuteBk/SCeUkXAKzB6or2BsqcCWrmv0TUmYeplnQJqE5/YJlOd17SNXb0K3ppfS5wwHAxaidnSTy9XMSx5O6UPbwkGdY/EElQghF4IbemnMtTO2VfJwBGw6U54ZLuPRGtyWrRSzuzszmsG58ti34wDxI646Rnz/2PZSy5+prkcFB0U8sSU1KOc/gIQNjOt3ZebUkyyQhMTvn6bEk7pE8WWfOb+8TqaW9YDS88tGGwkq7uXHSfiShpeyB6CTOcZavLT/FFXu6Mci8uZhsNBo/FPMx14ukEeQIDObR3Y7ZzuGxHb+9zCPrCltGeaMzEbEeVjbIdjSXdmXP4yxvOmk3NV18aj9Te4EPGSrJBhZt6l+mOu0nFVFWuu6eL5gwA9vT5vS+Hcu390ZO1y5jVqlbddKzPpmCGoe/fnL3HYJ5D0DS9osW5/GsWZy+U0pjwmsdN5nd/VR6HmE7veenqfGhWpide0h2347On+B+cuofHyb6he8olkUY/ui9/j/PZiVI/o3sdOFkvWLDDFUpQup5lokywqu3ScNk2cYsQUJ3+wCKx05LuMUc/LS5w4HAxKM5WHiwLkcNqkAFKLY3QOxBFToIReOGiVbW1+RWwyj2KRciXdOc2xjidVia6mCAMm0mvlaYZZ/TePSJiZ5z47Ln3scgPh65z5WHR/TgxJec4B44A5O18+xiuIUkmHIGJKV+PLW0C8aBE0Pxm5wYof3lNv6PmfCceg5V0deai+83ASdsDyQl0NkDVEQ6Umi7Qay9uD3CdeDJBnsRADODdmO3oGIvOGcqIvrBltCcaMzHbUWeTbOct0ILI84IkmNmy4UvhtL/1TeOR278O0mSR38854Tlh61YAAICrZEpvpI/WSCqkohNHwDcvMfkCjoWvxM5Z5pMrAAAqkIrZ1vXnSUSkWfNNKVXi1I5SVDO5unKkMj41TZkts/fmXYuuVMajdqDFphx4rRjAOihfLLT6rXy2RC4ma+X6RSbTWt6uaW9v/VSBq2Qql9JHeyjiUj/Q5IsEpGjxulTq70GydbhWnfrZOx1Vz+g+B74TLwAAAMoVUDVrGUskE5Pkv/oklWmJGuRdAwHV6Q4s++C4o996F9gCol5jS9Rq8mOW1y8SoVx/0TbZUiTxCQRLrVJgRy/7lgUlF4EtNtt8vbbNsXR+sHg8srVM+p1DhtGr168hkggsjN4SKHQ4QeD7lYht/q+7iJOkZk+FPY1F5AUBAKBfa3CrxLE4HAsbphHp+v4h8v8fJAKAkex8re+Sj8CElK/HljaC/MkiZX5CK5OSzg1YY2eRNS+5Nrs8+57/taMnF91zBk7cHshNoL1a42ommG3pITaXQ67/XLcq63LZvV8nnkyQJzAQY3k3Zjt7zXb0937/EPn/n3jCg9nOItpKugIvTCQRN63oGgqzXNIFQdBn2L1c7lNJIcAEIqon1OQrdJr5ZDSazDc7hcXDuMqZ4tcun0eDTh0Bj+Tek1e5s/XlJ2coYFP90mQyzczDFQqoR1XTPCvRq7HFVn2KxwBcPT+rcMuO0VG5J0KvkHsln2FrILQi8AKAy+eS9HnZ63A7lms9a079zNZUzug+B75LLzCtz6hNnlBAnpGuamdrasQaIKA63YFlHxx79FvnAltA2mvMgVJDfuxs8vr7oYSSzAqdRCjVsyRrlfWJiT5IRmBzpFCJe+0MY3VHSyUVyc2O+XUhxxPrewsYX8iz9qBDTRBaZs8F9jIWk0VKCyevvucJFHrqTuWKZVIJ36LD70iN+48AAMdk5zuNwLqUr8OWNmOXJ0uXBthS5mO5gscEIutuTIOeRS67Ro8e9h1gSdsDuQlUYLkrpVGzWaVVs0X54prVbqn7uU48mSBPYCCG827MdlZAONsh0LsKmPCs4GllOxpX6YqzzoybP6zHpEx7oqBrTV6v1pItBCiXb5VbmmyBVKFSKaQCtkXFcY2KUhShHSr3XR9g8yiHXTUqnTXiq97MfYjW3sniCgVm6/derbk/cRj6jfkZdnhWB14w2xS7YvvsTsXSAKXvjO5z4Lv2grWYPD4lA5i8qrU4fa0RUJ3uwLIPjB/99h7UduA1JlemUZEfFrr8OBIpcQBcJRL6iPeVWgUdpYyDYAuVOizPc71KzKFirwuXwCIQWDK/PY6VRi1xwAlio9lzP2PxRELyGrGrF9/7hsXiiaQKtVbv0bNQZl8qd88AdqTG/UcAmSOx851GYJ3K39qWNmZnJ0uXBvql0mulHU9gfYXCwOjRwwEC7FE4r2qn8y/MmtcH7+c68WSCPIGBGM+7MdtZAdlsh0jvS8GEZwVPLNt5W1PHojKogz8PrxOlpCvqMS2201HcEmwux+ZX10KnNVuBbjavefRCxmK2UAATAIDrXqsPK6cDs8Wi7URp7Z2wK7o8LurDS8nN+o2OkIoZq0TB9TpvlM9mi0kQhFXqFEWTGeAaAEReEA9818Ns1njql57RfQ58516wHrPNwgBIN837jY6Q0GGHBFSnO7DsgyOIfrpcYAt25DWWSK3Rc/k+fDOB6xepQKgFrY4l3qrteoHuvhC4PsvxEhzHduZZ60EruozNttaoDzpBbDB77mksJt9ZKdz41nMpkk6uXj3/8NXzDwGAou0uj8cT8AUCocDjWLErNe49AqzEcHa+2wisU/nb2hIhSJwsPRrgFqZXi23v92uJokMPhsnADeC8ZpfLDi/eACgP6i6zfX62CIxxLH8CelnL+7hOPJkgT2AgxvNuzHb2lu2Q6X0pmPCskOaJZTvaSrqnhq6KLnALt0zM64PI0gYmswY0WsTig+SXLCvAqgXkmivv2kv0+lT2sFubxayU0iZcnwUwwv3KOXyfm32++vhb73+s8Xcmtcei9oe+my77HPjOvUAD5gU7ZPXZIQHV6Q4s++CEoh8pduY1Jk+hUeh7vvvpNUzefPIJOLMXpWNboPsAke81KqVKo9N7dXkNABRjdzlsFovl8KFTRsvmUgedIDaYPfc2Fkuo0imLgcQnl5PFYybXb169ePPqxccffi9h9adKldy953d3pUYDrDwwsp3vNgLrVv52tqQHwidLjwbYHjf7bDFqDqARHXo4bAZuMOd1xWLOD77/GuTtKCO+x4ewnd619MkaiS35fjl7uU48mSBPYCDG827MdjSKoT/bIdX7su8Pn1QYLGbOeWrZjraS7myERAt7B0AWX9d5EBc3xdhqx6StNjRZ7EdQu1d7LJjNszANgr5dMHaBsGDn9nS3d+bSdJY17N9qcPY5cCN4weJUqdMO9atOf2DZAxj9HrNLr3EkGrWe608/vgQA4FotNuNwbCnmgRG5ViGVyn3y5hoAaKs/nk/EQj6PcmHDl3wff3q1soU9oSEHPewEscHsub+xmByxButpFM5yhYxJYPUAACAASURBVMarq8mj4yeXLz74U0cv32mlZh2c5DxrfDs3fATexpa2w2gnS1z0Z2Pb+U45VGQwmj1IOBK5aOlPP74EuGqUWjnfwxejir1STVr9xwQLGWMtjzmdIE8kwzecd2O2o0UIEtkOud6NhTFj5oynlu1sWNI97prubL8Fk663vC3613bqMJmk9fQAIGq1t3s9GdnDtbAY2gwYrswLJwjApH1zqmNnrwM3gBeIAjE7JKA6/YFlD2D0e8RuvWbhOuD600wo5eod3Va6IPYrsUji+ZsJAFD2cKFSSuhcX39YDjtBkJ09CY7F5AhlaqEMiHy/1+n1Op1Or9d7fTlrHK4//V4o4ehX5JrEyc2zR2LnxxCBN7WlzTHkyTp6FyDDISKDIe1BwhwoNdJ9zwevJ1fPE4lQpxaxzb/kW6lY6RIAKHe6UQuRWrpOipMJ8oQz/OMBs52lbDFDnYwvKBg4Zs54YtmOttejmS1m6dV7gmadGBFB2XXYYtZhdiaLbT5rCtu8w2+xAVGjRhc1T1ksRpu3N0Tg56PRukX/DumXYrFSf/63zWWbfV4U9aA8FHIX7HPgRvCCxTt4Ou1Qv+r0BxbNbG9LGP32Gi7EXiYQa5mjxbyfBgCYvPkwEquRMo19hBQA4CqRwHektI92Zzu9mvHSvg057ARBdvbcwVhMFpcvksiUaq0+J4xHF8182EnL311+nMopJmfIeVYLyx1nv3a+vfMeVQTWakubYsygdH96NewCmp1PHPuPDMa0hxkCy/Jmd9BrpS6ff9thCyQyhVKlUsglAg7Hn370ZkI749V+J+cxXo3oZII86QzfsN79EMx2VrLBDHWcvqAa7fcYMzHb0ZrtaCvpmpRdSq75bVYxGwRREZ6y6Fql6/K5KOUzx3KbB2abx8Uon3mNji3wgrIkm/IEDDhzbwLbZ2f3HxjX7O2CW6DvRXcKXKdWay2cSIvLM3vN5hX/6PWDh+GhkLtgnwM3gBcIC0PUZ4dEVKc7sGhGhy1h9NtfuOBrkdAHnKfQqCRStUZc6uTqk1go1ydiHCRCytoIzOZCiU+kB69of6GRMdSV8pYcdIIgN3sCAImxiK2YxRJrqdiByewIpGp9thm1S4HjTaPGkur6QCxznH3b+fbOa+QIvLUtbYZhg5LL51Eu4YBnd3lbVw87z0X3HRkOaA+aLmH6hbOWJVVpdDiuW81GXEKnljtLZXKljmALpcvtAd8vRbS9EX3fnEyQJ5LhH4N3PwSznUX0zFDH6Qsq0X6vMROzHdCY7Wgr6c7vjhyNGS5BEHjpPNn0vWvS5IsElKrGpNfqaeucY3nlzJk8kYBiZdJbmdYisr3ZYa4QsfdCHAa+05oNxhqKuJYcovX87GgxoycSmoXeXqenLZII7PwUHyt7HLgBvIDtzHZOV7HDDdCvOt2BZR9g9HvMTrxG7GUCsU9M0Voj4QAAs6/QyLopAIDJq++HUq0dT8SEIrDYyhVey05mjZ3FVM+duGwbD74SsLgy2mxsrxxwgtAwe26G7rGIAn911aqt/qUlUKmlnAAAwHEcqa4NwzHZuZEj8Pa2tEknxj1ZJl/Ep0yvV/3+sVR9iLPXyLATeyB5CcPWGm/ki3CLJ5KpNHosx/MCz3Nsr1XJxXy6Lmh3zMkEeSIZ/jF6N2Y7RLIdEr0bBgPPofd5atmO5pKuQ7q7xG+TQRkETn7dIOVYWP6+DeZQJqE45toTAgAAQi3m8qRm1XhTIJNyyqGdbfU0RPZ+S3mjKR1MxWybSrxH1iuDq1U+lWMB5c5kfEuzEW27zPCap8VVu0GLovjwVU+ezJlXPkHXrYaW0MtXIi5XQu2Gy06E3AV7HPjBvaDf6FxKn9TtcAP0q053YFlgZ7b0JKLfwcMFX4uFPuBc+VZptnuSyZVpVIJSdnL5USRS4dZ3o8MMyERgttVRXo1AewIrMnJh6aIVUTTo82k7ipOEZs/NIDKWq05j3VNhrljECXCv2HGYeVYLGzrOTux8VzHc6BF4O1vSjpGDkjmQiinTa7/V0dDPblzh0LnoPiPDbuyB4CUMx3Ew4Xe6F9cOOZkgTyDDN4h3bwhmO0SyHVK9k2fzaE8+ZmK2o8om2Y7Gki64PNJJu2KP5nGBhwicLLrD49K5RNzkOcsF5ScoLmu5xrrIzNUKLfCFFgKSI1WQQ/vk00Jl3Z0DsVWqScUnyn2WixjlIbElTNh1NX+hdVZ4JX+2p0oqDjPf7Vhc8ZJLvlXrPX5D4NL2ZhuqiI/fmsnzPDzcMMUSK6Ts0serSm797pVspfACfCFda/Q3FnIX7HPgu/MCDbfjxFahIr0meIUdboR+1ekPLDNZdmdLTyD6HThcCL1MIPYcwpVG6v7DlJZIpRaX+rl+kQhl1u6/sL0ZEIrAC72azCveSMx1epfL/l003MvwZHYRJ0nNnptCZCyXtdK66w75NbuLO8odYp7VwqaOsws732EMN3gE3s6WNGPooGTyneWkjdNh0irVuDWHC73WLja1PXwuusfIsBN7IHkJYzKbAV4VzrTUAA3IqQR5Ehm+Ibx7YzDbIZLtkOqdNFtEe+IxE7OdFWyQ7Wgt6Vo8Lkkn2lYuz1kQdc2eQRqP1N7gA7ie9JQ1gQ1ZAMyRSi0qaeT6k1Siscoz+VrqrG9LZEKLxmHyFWpp6d7B61xq5YIroZdJ1a4AAJhgqZZyqBy2uMB9jWI0623zW0Ovc6lVYUroZBIfS/5Ce/ONM5dKLHD4XHLRSHjs34pwvVyuZ6JnO3uuMgeHT9nEZtLvPbBgod9hweV5qFdXrlH0Su8kepFJrTzDwBZiZ6wzlVN//EALWwgpscGp18AeB07eCxTWNSf2zzJScyvtcEP0q053YJHZ2pa0cNzRTwOHDBd8K+XzffB64s7klry92uwrNPLy/guvPwgl1uy/sL0ZEIrAC0mIwKquRxJ7hRJLK9vMze/fC4IIZtsj8xaXftTHXPYVF+D32EGcJDR7HmYsV7VMYWVyKEgm6IyEFm2OlBoPGwF2YefbO+/6JJlwBCar/K1tSSO7OFkENWCJVCphKwDA5NOzzOrZtZFIfDLba5LgSi4j5KJ7S0R3MkmRvIRxBTw0wOXHAU8oU6o1Wq2W9E70fp9lWY7jeV7Q/Latg1wnnkaQBxIDMYJ3Y7ZzqGyHUO8ARH1hC0cgHjMx21kh1CbZzlQj42ZUOjHu/EDrb6bT6bDoVXpi4u2x/iO1N/joh24AAKCC1dEGA1jB+KIsPwYLlDPZHC49aFCP2inKme4uE3VYj0sbH1POuMrvR+d5v9QJ480vbWTWU96taGb1GM/TduVAOlxXb3LcTc72fbGu1PXCgRRFUc5ke2n34/O8V/Zu2p1efszs2GZU1i0TbS7retSM22lvvqwcBpS/vFyFEvNRW+P39Dgoeik6WF8qzaiddtNrzvD4ohy0UrQ3f7FqPNrYSsgNTv29M7rKmvY5cHJeoAyPCWazXlrVDqfj86Lc3Fo7vEc9rCTf3qKqrelXnf7AMp1ubUtaOdbop9EFDhIuRufVtN8q25i3rDaKhbGuN+CtzYBQBB7Vw7O3EzDh+jKlDJtxO+0ttpVhUe7iQPqi6KWWdL6YA0Q3yQHUGZb9imtv5Bok4iTp2XPvYxlV/Yr89nhTrcNxN+2kAKzRJUeQUOOBI8AO7Hxr59WaJJOLwMSUr9+WtLCDk0XY/MYzvdPe7Pny5obtpJOirNbZUNakwJthjFx0P4noTpyX5CXMuJucXbSpQzFObzCer1+s8oqDXSeeQJAnNZADezdmOwfNdvT0vgBRX9jcEcjHTMx2lrNZtqO5pDsd16WHbSn/+pLooFnMZrPpZNRvn73gEQAYZzCeTGez1fPxhkdqb3CF+JQcFwlVdKfT6XQ6bKe9yrztjhfbg3njo4t6NupmgHYmV5yK8XkxLBka7Yzem4zHg3Y5KV/g0+5kfbD094NmPpvNppNhr1IKkKKb0x9NprPZbLEtG+9FPZ/NZtPxsPvBgUHpwLJ84Pi8qhzIwP0Ww9F4Mp0udx+NZm65VLjcTLtpyupP30ssxoN2Pii/t492xuuD9Rfi464S9azh8r0kZTxs54N22hquDsbt+FxKinEGo8l0OrtExJljSA1WL8ZSS824k6LcK5LB8UU16pTkoN3RfPNi8Qw3pTPE+PPrLVATmwip9dQvntEHB6qe0T0PXK8XyEh2SPurw+l01M16Gcrqz95PcEcX9WxQ6UqTHS6gqaQ7JaI63YFla4PfgKOJflu4wB7DxUU9m46H/c57ogHQzmj1UUcX5ej9sQIAbfeGo/FkMj0L9gQGMiUWgUfdrJuej6m8eAkz7JbjboaWEvtRU176DbQznM6mw056QUS1HMAdjKez2Wy+ujSKrWTYXtokxbiD0WRSanVtfNPt7GRmzwOORUlMrd6gk34cciVnjjppAMarqoct1WigCEDIzreWYaskWVcE3oHyidiSBogFpR3mYIN6XPIIyh7OtxedfjzsluNuGhhvun0+v6JdlwJvhlFy0b0kortwXqKXMPMqoAYoezB7vwxmiOvEEwjy+gZyb1D79m7MdoiMhdQMZTBf2MIRiMdMzHYIZDvaS7rTkVzTpcNLbzku0ozSABRF0TRNMwxjtVqtDMPQNE1TFAXUQj1E45HaG1RBmTeJ3sdW2r6op4Oz63GKsdrtVpqSInA4q3I/4B7Dbjk+s0yKsdqtVvlhHIpxBtP1C3WF18PUomYYSTMz1YA12Z1Op9PpqOqngHqkQkY6jgLKnjyXZCl6Vx/ozD7yxcUw3ZxOp8NmNmingWLsbq/f73fLypEHs8GdtPNy3MsomrA6vf6g3+u00hRtD+Ylv1jMh2YsEVFpT4miQNGSkmnVu2T3flhN+u30klNs9cbLKrdZt0SzkFpP/TZn9BAD1+EFMt2kFSivfCdwOp2Ouvmom6Hmdjjzy83sUEFrSVfqXLfq9AeWrQ1eO0cR/bZzgT2Fi3E9SEmDmI1Alp8ON5eNWB4Is3g4TVEUZY13VeTZ1gxIReBht5ycXSTK/uh2WmlKSuiVMzw+LwZn+RLtDOcX0s7lOcD8FG72+NB0Jvp9bS7aDwVaUgtZT9s7O5nZ84BjGVeDFNDe/MV4Oh3U034rBRRtd7r9waBkLQBAMe7o0jsOOtVosAhAwM63lmH7JHnbCLwD5ZOzpfUQOFk7z8Fkj5DPhdsvpTEUUFavrINheaHooxqAt8M4ueg+EtEdOC+hCXR8Uc+GnYwydKf7Hk6n0259cD/44bovQ1wnKio58iC//UBUWtiPd2O2Q2QsRGcoQ/nCNo5AOmZitqM323k2nU6XhIyliI2I5VvPr4GJt7kSiXcP7g+xk7B986MroMN1rrZs60kSffD9TqfP8TwnmmwWi8Xh8nkcG3UlcL1ej+V4nhPBYrbZHA6Px2U5AkX3UrZvfHgJAECFm2ItAACSPnp9juMF0WS22Gwuj2+7wYh8v9fneJ6XVGtzuHw+j9IS1yrUWJPFYjabF/5nxXbdIPL9Xo9lOU4QTRZXIBTQfpJErteRT5DJZrHYXL4th7S+p+2F3Ik4exv4DrxAYDudHqvfDgEaEdO3nk8AALzFYSehads2/arTG1j2YksnG/2OIlxokkbHQEhFYEkGjud5QTTbHA6Hy+V6vCslz/Y5wWxzOQ5/9jdkqzO+29lzazYYC9cq9WyxyOxVfiLX7/VZluM4ESxmKRhsIv3ROw5xO99LDDdEBCZtS+s5hqAkcL1Oj5VEtDhsDpfHo4go9muFDn8/+K5JgTfDSLnoPiLDDuxB1wTK1WKB2MdvJow3XSplQuraF7h+v9eqFAofv5JeRs9Em2wlYNC3aR99kJ/9VPdADundOsBsR/6p7hnKQL6wnSOQjZmY7eiwpU1KuiD2Eo5vfHQJTLTJVQJGCCoaETsx2zc/vgJrsssVPIeW5vRYGqYR5MTYpqSLIAiiDs6eCIIgyCPEfsbj+eD1hHJn+52MQ9NFt9DLBHwfvJoAUN4y19H3zmYEIQlmOwiyQ97a5GCTJ5VyUgBXjdKaF20bC7FTalwBgDuVwnougiBbsfiiS9MR3dFCEARBEARBjga+liq8ngDQobOUtnouAJg9ucqZEwBg0mv0SLySHUEQBDE+G5V0ARyJXIQBuG4VatxO5NkFXOmscQ1AhzMx26FlQRDE8IgC2++z/INsWBSVf6CM8eQTgiAIgiAIcmqwPXYCAODwaS7oAgCAw+NhAAAmPMfvQi4EQRDEcGxY0gVT4CznpWDyaS7XOY7bf2Inl3s1Acp9ltvRJroIgpwOfCPmsPzxv/yXf2xzRGqLCTHP8RPpk8vjwpIugiAIgiAIQh6zWbpm5dnNKrMCzwkAAJTFghe9CIIgT4NNS7oAtlgl56XgspIpceTlIQ5XylSugHKmSgnboWVBEMTocLXcx5cTAIDJ5fNchZ19IbI9+Q9nJGA7hGgIgiAIgiDIqeOKJdwUAFxWcjXtRV2xX8p1JgDARBJGfTsagiAIQpjNS7oAtlSp4KUnr85ihi/qcqVY5tWEcp5VznBZ3c4QBX62tfLCRwQ5SpY/fiA0Kp0JAAATzsUcexUIQZATBWdPBEEQ5DGORCXnpQGuP4kFEg1Ow5OxQr8UCXz/9QQoe7SSw4ouYiQw20GQXfK1s7OzzX/13r8Kubjaf/jkh33zn8c87xGXihBcKfRn/+5v3/P/+/9cChhWyKNF5Nn/+sUXHPtffviX/+YHn395CwAAt3/bZ00W89tfffWLX4gm3HEUOTrMFmiV/tM/3ALQ7mSl8Bc2EwCA0Er9+b/97Booe7zR0P6mCgRBkEfg7IkgCIKs5O33PJGQ7e//qvP568+el/5j7+/hvT9y/NF7S6YGke/98Ad/+a//IvXR59fA+NONxg/+xLJ/gRHkIZjtIMh+eDadTrf7pdgv+Hzf69vSnV7OY0BvFHsZn++DvsOo8h09nYTlmx9dqX9PBetiI7Q/eRCEEHwrFYp82Ae7LxQKeGzA9RqV2qdXE8abrtVyPsyTEQTRA86eCIIgiCb4XiV3lqu8eHMNQDF2l8Nhs1lsDocZOI7lOY5l+68vrwEoxh3JnGUSAVx2gBgFzHYQZD9sX9IFAL6V8IU+4j3FXithrAlEZEshz3dfmMPVTi1iO7Q0p4nA9vo8mEwmkwnk/0RRBPk/URQtLp8DH/tBjhOR79UqlVaP43gBTBaHJxRLRHw2Q4U5BEGOEpw9EQRBkE0QuF6n1en0+izH8YIgimAyWyw2m81isTlcLo/P57JgjooYC8x2EGQ/6CrpAoDQyQRCH3C+cq8RsxGSSTd8I+L5VsMUb3RKAVxRhyAIgiAIgiAIgiAIgiDI6bDN69EWMftynV45JNQa7PqD9wTXqPC+Yq+H9VwEQRAEQRAEQRAEQRAEQU4Mvat0EQRBEARBEARBEARBEARBkL2hd5UugiAIgiAIgiAIgiAIgiAIsjewpIsgCIIgCIIgCIIgCIIgCHI0YEkXQRAEQRAEQRAEQRAEQRDkaMCSLoIgCIIgCIIgCIIgCIIgyNGAJV0EQRAEQRAEQRAEQRAEQZCjAUu6CIIgCIIgCIIgCIIgCIIgRwOWdBEEQRAEQRAEQRAEQRAEQY4GLOkiCIIgCIIgCIIgCIIgCIIcDVjSRRAEQRAEQRAEQRAEQRAEORqwpIsgCIIgCIIgCIIgCIIgCHI0YEkXQRAEQRAEQRAEQRAEQRDkaHj70AIYDVEQBEE02SzmQ0uCIMQQBV4QTWaL2XRoSTQhCoIgwpGIu0PdHpUe9ojAdVqNVo/leV4Ai83mcLgcLp/PY7mnJ7FfSnVchZTnZLWHekCQo0EUBYHH5JIgItdrtRqtHscLYHG4PKFY5EHwQxCCoAsvA7WCIAhyeJ78Kt1eIRTweVwOh81iNpmePXvn3Xff/3qkxh9aLgTRAVtLRQI+j8ths1jMpmfP3nn3/fffd6R6h5ZLBb6Vi4V8Ho/LYZPFfff99y2hmnBowZaxQ90elR4OAt8rxTyWd7/+zW9nKq0+J0hX9aWzxJ9+432LI5Cq9BRdif2zyHc/qvVOM5SjHhDE4LClSMDncbkcNovZbHr27J133n3/64ESe2i5TgKhV4q4LF//xrdSlR4PFpuZbxW+8w2bI1RB/SKkQBdeRn+pVircoeVCEAR5ymhapSv0CrHYWYsDmy9TqmV8p3QrTuRYlhUE4ep6cmhREIQQIt/vsxzHcZcLZk05PLbDibQSgev1WY7nL6+u5/9ocTiMGGl2qdtj0sP+4TuZUOiDV9e0M1qsncV8tsXlWALbaZTOMolv1CrpSi0XEAqxwhsApygeTN5dgXpQOOXMRBPSMu1Wp8/xPC+AyWy22BwuXyAUCuxotaLAdhqNWqvDcrwggMlisVgcnkAgEPC5cHnkAwSOY1lub8nlAYxh7z3KcLWI79vPLwEYf75VS7nMwNcitY8A4PKT74QyLjbn2mHvyJNhzy5sFNZMrCLHsiz/5LSCIAhibKZrGTWjzPx4Olgfrf/N0TEedrNuShmktzg8tEAIQoJRPUjLVu3MXhxamrWMu0m7EmmizfGhxVnNDnV7VHrYC6N23A4AYA1XB+r6GF9Uw1aKsvr9TupojH4jUA8znkRmosb4opr0WimgaLs3nExn8+VyuZhPx/12KSbR9mC6vsJCtuhxUE/7rRQAUIzd6fUH/V63nZklTbQzmK5fYKhawrCb9yszxU488QDGsPceF/ruJu0UAADlzJ7LXYzK/nkocOcHO+kYebLs3IWNhNaJdTzs5r1zraDXIQiCHBINJd1u0rpYA2bi7Z1LpZ/xRbNc7W5UmF1ICrGki5wIo7KfUhy3e2hhNNBWkknKXzZ6hWaXuj0mPeyBYdlPAwDlTJ+vLRMM69H5jHViV1+nrYcNZ+2jzEyIMKhH7RRl9afrF4+Dw6iddsvX2ZQ9Wh0Q6XHYTLppoKz+ZPn+CRoP2sWoXSnsUvZweb1lPj3G9SC1K0/cvzHsv8dFLrLybSo6vHCzsx2fVaHu/TuCEGGXLry8w82vYQmxwcS6qBUs6SIIghwSDXvpOjwuev4X5fI41v/m4PCts++kNttUy2w2UeuPQpAjQuy1etKzUbQvcATPIrK93pX0yRUw+mPUu9TtMelh9witTObFNQATymVca5/ntYRKldka55Pi1PWw4ax9lJmJfsReKhCpmVKdfisXWrIni9mXaxSkm02TNx9/25do6d2KW+xlAqEPWVe2028VYh7L4ncmmy9R6ffk1VqTN8+/4wuU2FPc5UMPJvOO3nB5CGPYd4/36ZdKrycAAHQg5psr1Zdr5MNep9MbzjYKAdwCBCHMzlxYjS2uYQmxwcRqMuGrexEEQYyBhpKuOVKqxaX77rQzXivFLOt+YQB4bou3weDchJwY/VZP2pWVcgWO4IX3fKf1Rvpk9Rh241+FHer2qPSwc4RGoXYFALQvpq28bfKd5cL0+uOOjJPXw4az9lFmJrrhSqkP34DFwjcaqq+8s0RSIeW8X36UOOvpKbGKnVTkA9aV77UyHhWzM7lStZKyC831p98NZXT1eJLsZPbduzEcoMf7sK3OpfTJ5bt3W8vsSdU6/X6nlvE9iTiA7J09l3S3uYYlwiYTq/EvKhAEQZ4IGkq6AJZAqSeMR6Ox0C+FbDuWiAg82788tAwIcmjYjnL94wh4jH+hI/ZaPekT7TH8muId6vao9LBzhFajMwEAsLlsWi8gzKFUzLr+sKPi5PWw+ax9fJmJbrhG7RXA5PLFxx985xu+lEq1zOTyzePGZaXU2b6oxpYylUvnWSXlWGl0lkgu41T+eFNKFJ74S+H3wt6N4QA9PmBW6KLMlif/+Apyuhz0GvYJTqwIgiDHjqaSLgAc4LkTHYi9Rv/QMiDIoRF6HfnCmvH4juCp5NlOBpTH8GuKd6nbY9LD7mF7/S3eq+yJhY6mlqmNU9fDtrP2MWUm+uFYbv7Hm1ZDpXJqtpjn20hds9zWD7+zjcqrCWPhO7UOt7ow54jE3MrnyetSCVOwnbNvYzhEjw8RFSs0mZ6Q2yNPDANcwz6tiRVBEOTY0V7SPSKERqVzfWghEOTAiJ1j20i3I28g6zD8BrK71C3bOh497AFRkC/i2V5/g9KAK+Rj1h91RJy4HnDW1oTNYZsXyyibw6Zy3L3y6/bVL77Teg1w9eLD7377mw6X2qpMWTSfb3734LJVO3RJ4vTZszEcpEcEeXrgbIggCIJsximWdPul3Cc4GyJPnn7nWDfS9Rl+A9kd6pbv9I5HD3tg9gKOSavS2GB7OccxLEzfgNPWA87a2rAlSoWglQIAyh4uFWIqt3x4npsv6ba6lrzGShuLGzpO3lQKrZU1XceCpXEsviRt1+zZGA7SI4I8OXA2RBAEQTbk5Eq6Yj8TO3t9aCkQ5ODgRrq7AzfS3R8Ol0NeGDZ5kUlpL2ZaXB47ZTKfTDXhhPWAs7Z2TK5EgxPH47HI1mJqxXqx3+NmfzCB0NZx5P4LzcXVRVqT2TRfwjkR1hyN6Ge/xnCYHhHkSYGzIYIgCLI5b294vCgIsH6HHZWjRIEXwbzDDXr4TiYU+uD1FjsOrkcUBFHH7kIC2+tzPM8LYLZYLDaX55ALF6Y3Arxlfqa9nn8nTEH9+Dthemd69rZGzYjTG9B8sDYBtBygla3EW9KICG+bn+kXZ5NO73sd32vJG91Zt9nsVZunE2xGdQNZURBEQtt6bd0UWd2uREUPgiDoUcK2I1/5O0I2sgazL+SiXryaAABcPY8ELI1WIaCljO7K9XhReylTf4jebZDfix4IDEHk2T6rtGGz2Sw2m22VkZCZtTe0xXtCWmwOl8u24UAPleRIrH6WXew0Zo/tUs5Uyre1NI5YJlj49idXckuZwKqWBEGYn0WKvA4EnuU4juO2P2kyuz13BCcsbezLGA7Zo350u/wyq9nZFKjWsNYORUEQzXrutqp1EAAAIABJREFU4+mPkLo1driLJmIuvPEQCF3DEguVZC1c4Pp9lhMEQRLL5nA4LFLTXKfBO0JHsPQEQRDEsExXMGpnw0G/1+t22q1WhpYWYDjzgweHnRejQb/f63ba7VaGpigAACbeVr4eD+rZsNdKz7qkaLs7nK6ej1b1vQnjQbucT0e9Vure0Ci7P/qIdP2h+DPqYeX33uJQUcFFPRv22hlqW+HHg2Y+Ko+eYqx2q9wUZXVH8+3h+gZIcTfp3v4sevNj5uZHcPMSbl7CzSv37d+V736z8le/qt6eMzcv4eYldfN5+HY0l/hu0r79wn/TpeTWfsTc/CR5e62imNvB3T8mbz63yr1/Zr/5u/rdrdLUb8ZbCDCdTu9+Wb39qfemS8syfGa9+Un2bqzamiq3g7t/jN98zijt2G++mIk3XiHefWHqt1+Eb36sCPMj+uZz/+3PL+42lmYTxoN2Mel3WiX3pGi7P12/GE+n43pYdjk6XNesELXWptPpdDoaaWxnfFHPx/3OmddQtNUZTK52mou0XT7amb1Y0gbN2L3x8jZBY3RezyfDbrscwICirU5/snqxvimyutXGfT2Mh+1i3D+LP7QzmKxeaO1xPOxWs1GvXQndAJTVHU5rUeJ40M5HvfLAgWKc4WxzMOt3dF6Oz7+0uqPZ5mDL4WpiVA3Opw8AoJ3hfP18SEjz+kP0voL8DvVAYgij83Iy6J7NwhQ1NztvNF9/YHZ6Zm2Nmckyht1yMiiFFYqx2u122Y5pqzecrav61sGTnE0Ylv30TJ3prl77GJ7Xi/l8uT1Y11A3ufAmPnv6XGe/M8bDdjkZtNNy9J6dM8k61U+azD7O3eiiWUxH55EaKNpqdwdnrbSjyobW0vS2PwgbwyF6HHeLcSUU+Gfxwuq9HyTiRRWD287lB9V4MPjAaqzJrizRoJkOzhIDxh3dKjOZs9ZEm9mo16kEZaBoxu6N5uuPchjlekXxD5qxu70b2vKWEZKgxg5z0UTUhTcdAqFrWL2hcvOJtR1VfH3VYeNBMx91WykAmrE63V5/MOj3uu0MRduD6Wq7mfXSi5fdCIIgyOasLOkOy0GGpu/PMUsCdzNupWnq/mFyOjJspv1W2uqNZ8v19vlgOBx062m/PDMy/uI5kQRzWA1bZ8yrr0Ax1kd486qz8cOS7qiddtOUDuFH3ayUgFLWYLY5S7/Gw/Nq0s1IM3a0vvtp7HZw94X35iXcvKRvfpq9HZ3fTQZ3o/rtT6w3L+HmM/ftSCW5mtRvu3Dzefzul4O7n4dvXsLNj+zSwXf/FL/5Edz8OHz78/bdeHg3ubj7efrmFXXzI/vtlw9buxulb7pw8xJuXidvvzy/mwzufp6+6cLN6+LdpHn7OX3zkrr5m+aS0qe6ANPbi9uf2m9e0jc/Sd9+2b0bD+9+1b79CXPvGG3cfZm8+QxuXlI3f52WlfPz5E0Xbl7n78b12x9TNy+pmy/aKyqzd7+q3/7EfvMSbn5kvWHzd9cXd5Ph3bWi4Z9Ud1TVHbbTXgYAgPEmi83zwXDQraa9DNDe4nk7Llsq5S1rM7EVrV0Mm0knDUBZ4801mh21s14GgLIH0+Xm+cVgOBoOzpvFpJcBYPxFtZxyWPQqV2rx9qCZ9jIUxXij+Wr7/GI4HHSrSTcNAED7i9qviMcX9XTQLnmgN5qvdy+Gw+FFt54NWikAJlhdoRiyutXMgh6i5WrcSUl1u+7FcHjRLgatGoPGeFBPSuLTznC22j4fDAcXbXngQLvT7RWncVCX+o3mq+3zweC8mfUzAEB78+fj6XRYD1sBrP5svTsYDi7kM2MN7zSQXeS9D+YhAKAYuzcYTxer7a3LmvpD9H6D/E70QGAI44ty1Cld2zHueLF5oQgyHg7Om+Vs1M0A0N5sd252emZtjZnJo3Hmw3bJ/uPF5mI5ZHhelQMF407Wl5UuD57kaEdyUKn3YHmwv44Heecj5RBotRq1UxTjjRebi+Y9umjKARooazDfXRHPdnzuhu18WLJ92u5PFqV2hoPzdjUf9Vopyhosno8OVdLdvzHsoMdxPToLBQteTz+IFPHmo7Olw+W7aSfz0GqkAuWwGbdTlD2YrTbbZWWwtF/PWFeaaNLNLFyGDM7bVXken83JU/lAJ01Z/fF8ud6+GAwH581q2m+d2bKGW8F6IiQhjR3koomsC28zBCLXsPpD5eYTq4aS7rAZd1JA2YOPbwiMB82sYqLgxpIugiCIDlaWdGXGw27WS6+N76NBM+lWJgMm3h6PmnE77Yw/vqV4kVVSf3uS+KqB+RSz6UXFvZLusB616hJ+UI/apTvSzvSSSXR8oSxlsEbXVcn0cPer8u0r6uYl3HT9t7980NHo7m+sNy/h5kfO218+Hsr4jmVufuS9lb9p3n4GNy/h5sfpu3+K3rykbtj63eLBP3PLq1PP8wv/Prr7mVJN/rt7VdG76+TNS+rmFbPsV6sFyN5NmrefUzefuW+/vJ8E/KZ+Ix3zKqmtijq6+8Ipi/f35/fFS9+8pObrf1+XVRoc3/FReenx6/Td5MG3g9u/pm9e0rf/RPwUjxSnpN3pe3f9x92kHSjGutEl5JrWrLPW3CvrJuNu2kkB0N4l1w+Dsp8Gyltc+vtxPagsQLF7vQxQ1uDDJhTH01hGHV+UZQekvelHyyIGZT8NQIfrS88LWd1uwlwPQFEUUM5k81H/AKpqlA66KIelKz7Gn3+4FGbUjFulqJRdXq4Y1sNWoJzxe5dt8vJQypkup50UMLP67fg866a1WIZuBuWgovWl0FanP5rM17vaq5r6Q/QBgjxpPRAYwqgt329RvVcwOpcrvnRwucdtN2trzEym06l8uQvwyKUWWruQqw33S8/3B2KMJEeVsXQ7BgCAdib3cLt4gfmICUbG87STAsoeXf5swkiabwCAcq9dDrqLczfqZuViCePNLls/OL4oh+0UZXfbKcKaWc/+jWEPPWpbFTidTgm5/HjQzs4WHVuT3fF53k1bw9XBdDqdjpvhWfghMQE+MtFhM26nndHqoxrqIK8cZ4235RutarYse8i6BdNkIqQujR3ioomwC5MYwnazIcFQucHEutYfL/JuCsAaV19EMKhKKQ2WdBEEQfSgpaQ7nU7HVT+lIb6PysoSMyZaLnppu8qavmFZWWtEBauEi10kSrrudNbP6BF+PJ8/1Ysvw6o8uTMqlSXd3F1nlRJn+G7pLP6bqlyO/Dz7sGT5m/LNj+Dmp7PFs83b2Y4NL+Hmp/dXns7auVecXajzso8X4Y5u/5qaN/hF95FsagIwN6+om67/9lePhzS4PZeOsd5er1HOQj136SLc++L93dKH+kZ3f+dUar752T4Si9z9PHjzEm7Y9lppNmFeSVuWGI7KM28FsMYfKVZPa8kVrY3bcSsA0P5lNddhOx+0AoC3vMzWZ+tepYuPpfmfskpCQ013nr/S3vzSDHdcDVIATLT9+Buiut2QRT0svSY4l/dloMOPlyRNpwvVaLCGlz+fN5JjObXswmRQ9FLLls8Miu6ZXAvhalSdVaB3XdKdLlwtrYa2+9Mq64gW0B+iDxbkyemBwBDGF7PigtoQR/X5ZTy1/OnKrWdtbZnJqB2X3IZZvZZuNhjaq/owgBGSnAWJh+fddrNeLxezyWjQLT8u7Y4Wu3u+PJaDvwSpistCAYhyLi9EnM82qmHWd0r23I0XZplVz44Mq+GF2W2HJd39G8P+e9Ra0iXo8nMrtCarRS+9cDe0O5+vKT8RL79nomU/o+ZK86mX8pe7RT+zPGlazFhWSUgyQm6psUPMp4RdmNAQtpkNSYdKjZf86/xR3qNsTdAbFN0UlnQRBEH0obGkO21qS6Tma+0YhpZuHy/lfLbpGh1tbijyGkiUdAEoPcIvXN2s3FBuPCvg7CTN/1VRruf+yH57rTaY4e1ruU56++W9Y+54781L5na2feqkOK9vdsMPd+C9VZbQvmRufi5PzHI18yXcfJ5eXu78R6/SJn37Tw8lXCXAS7WtFWbDoW5+vqaoc8f7FfEelbPnAijKWdLbeC7/Y4XMGpGU8Dft1cJsxLCqLNRzppcutZw/va9hs1dirQ2lawcquOSY2VqR5SXd+QayK55g7CpeZU2u3KVxfFFUVhio5/1ySfdRiCCr201Z0APtX3pNMFai1NJaw2zk1IrlZbMRMNEHZeFB2UsBE1yyumph1Ishbb6p8OpdLIgxvqin/Q/2m1sKpSwLUmlHd4g+bJAnogcCQ1CWjQMArVr8Ol/wbpWetp+1NWQmM5+mNNx2mO0Hq+pBBkhyZgzL/oePyQLtDCYf7Vy8a+aFfQC7uk42bXVx4a/K7cTh7G6Tyu2CRQieu/lMQS29h7nIqDl7aHuHJd39G8MBzE9bSZesy88OYJxO6/1Zc9hMeq00zTijq6abTdBqooO5b9A0vWK+n4ff9bZMJkJuo7FDzKeEXZjYELaZDYmHSo2X/Gv8UV6Hsc6shkU3lnQRBEH0obWkq/He+GJVdFUUX9h1zb901d72kCnp6hFeuuW4fmafLuy4v6ZKtTm33dsfU7MVpqv2gWWVvQXulR1Ht39N3XwWnpdiR9FZ+fWGXzL13o3bt/9YvL1WvppUbz6bFYtVTvGXYeVNYt7bhyXRFQLAzd+o7Wx7fvtjbSXdcXEunspbv+7m4gUfiTe9+2V6tUIkoe9+yty8pG54ckY+u8kPTFjtXvvsjv3aFa2btqY+DmU1yDJTHiv5IeVdVq9dLJOq5tbzPQlW58sLVzDqefqoHmYAqIf+S1a3GzPXA+1Xq5DO4hvzcInwuJu0zzW0wvqb8ybai79vx61qVxnzFx89UP540C7ni9U9rwkcXbSr+WR44e15y1Df31d/iDZEkNenBwJDGBRnW/uuKD4sLuBUOWz7WXttZjLvXdtq2dltFbXyhgGSnOWMR7NdywGAsno3eJWiPha2eCa6Y+vi+wBV170tlF/D60rnxM7dQoXHGl+/scbCDLenjRf2bwz76VHLlQhpl1987d/K55RIoNVER2X/7LiVFboF21tuy8Qj5BYaO8B8StqFyQ1hm9mQeKjUeMm/+rCxvJZ87a2CdpShsKSLIAiih7dgVzhDAZvqlyaTWfkoCMLOZNgaPcL3CrlXE+mjNRByrezH5XNJWcBlr8NtLqYq4nQQmY4nAABfC771v7meafnRr/rT2ee7HvyPCZhDoBjIdNSTP1GxtxjL418/M/neej/x1h9IXwl3XyTgFgAAfjfz7H8yPz4eAKa/YuVPvxN49vb971YI8DX/M6tv+Yhu2KkofbI8o0zLhwkAwN99kZLF+/3MM7PKkbMef++ReMBNvyjIH99JLFUIAEz/KXH3iyt4J/HWHy7XwOYItUTixTUAADgzZ4HlzbJ9VjoEHAHPctG2bU19HGyfnQAAXHZarPjgO1Mg1ypn0/l6rxGzPfql2GspmrYncjEVgbkeK7uVxaY+Jq6UKLxZ1xZfSySeX4E9kYksjoesbjdnrgfKlwgsb1vkBVm5AsctqlnsZSIfvpkAANDBXMa1wvpnXPX73LyBTql2SXkTMcfjA/l+71L6xPgC90KayeaLpRIRwppYh9nhi6QKtVafF+Sqptf+uKp5+TwSKrBLfq4/RBshyIM+PRAYQi+X+1RugglEfGomZ/IVOs18MhpN5pudguphu4GrnFVk23X5VoSvGY6AR7renrzKnbUeRrL7GCvJMZltrkCi0GG7aTcFk8tPP/y2yxWrcTvuVuxnIhnJDhh/uVNbEuG3xRwpVOJeO8NY3dFSSaVhs0MJPtc8x2tuW9e5Y0uZj6+kj0wg4llv0vs1ejiEMRzI/B6zS5dnfCGPbgG1ssZETbNI7wqppAvygcrHpba80wipUWMHmE9Ju/CBU4JdhsrtMVksZgCAyavveQKFnvos6IplUgkfqaskBEGQp8jOSrqUw2HbVds7R4/w/UbrctaMZ/XMDmabRU4U2P6y2sOWiJW7oSLEH2bgYTlyEWH6G7lCBb/m5v98B/B7/mf/S0CpnHLT6zdKg7H1BeJ/Lk2/VJp9P6RyPD8dKWOmH5VoVwjAnL312yr9ftUCqSz9zAG/oy7eV7npSMq+KGAiKuJx018qOqQ9D46Z/iIz/eVEkWeJQqa/7t39f5479jl8zfvsf889I+VnbCn3iaxYdyK0pPgGAMD3WrJirT6fyjHkW5tlvK+/7wukKh32Xv5m8cQyuVTItSxp67V6E0WKhJrH8J2ebABWl0vt+kVoZM6UvNoZiz1uS+R7lYTH8e3nV7Q338jdKy+R1e0WzPRA+UJq2S3HcfL4JqK4oGGukinJ5mqNZFTK0RICzyu+uZjXi2BxeROZyBLdir1OX/pE+wL7u6LVgkmuanZYqaqZjbrp+beTV5lU5dGli/4QbYQgf5+N9UBgCL3avAmXb1UTJlsgVahUCqmAbc+1La5RUarOtMZZ3eZRDrtqVDqrKhYGTXLMnlyjIj1uMHnz8bc9odoOr96FVir0wesJADD+YqcRc5A9wbZQqcPyPNerqLZsmk89IqwrMM3Qde76pdJrpR2PwSLiA/ZqDAfq8T47dXnHyjhHFsqm0US1DnMpO1UXaNPYAeZT0i58+JRgZ6FSD55ISF6QfPXie9+wWDyRVKHW6nEPi7tmXypHeu5AEAR5Wqyq9unCbLZoi897mVg2RIfwXK+jlB7BbDEJgrCqJVE0mQGuQVl9R2RKE6eXZ3JlE6zPmIflyAfywj8v++e3A2/9H4H5nze96VfSJ+bZu2szNHH635QVrOB+9q5t+VF3PfhKSiXpZ/SjNlcI8D+r5l/TLzvyp98LPVpXO0OY/qyifHY9e1elPLhqyMKUbyif7c9+F6b/zMKdCL9mp2MOvupPxz345SUADf+i+NbXE8/UCtAbI7ZyBSUPdUfUVnCIvVZfVqxnVTpNtjWw+Vz0h5fXAABXn374nW9++B2KsXt8vkAgFAoFHCuW97Y6V4oUIRUpQOgoK1jpB+tEFw9qlBpKtdLucwHLsqIoijzLsly/32fZXufV5QRoZ7RYyiXurywlrI0tmOvBFVCr6Ar9nnIJQC2sJBM7Z2fKdZk1FFu95IRbvIqYH2kOFDqBJYcDQL+j1JpdAQ3LWQ6EyezwRTK+SCKWCYQ+eCUZwuRFrsDGcovFd/0h2gBBfgWa9EBgCGyno1zEgs21wsEPiNBp9ZXPZrO2peQWs4UCmAAAXPdafVC/3jdukmOJ5BJnLz54AwBw9UksVHD1UoRvQAEAiP1CKPLRJcj13MSerskFrs9yvATHsZ15PNOuaD3njluwfItt33cpNmZPxnDQHufs1OUZm21/cc5s0WiiWoe5zJZ3GyG1aewA8ylpFzZqSkAiVOrB5DsrhRvfei5ltpOrV88/fPX8QwCgaLvL4/EEfIHAyqsDBEEQRCM7K+majJ7nrkKH8PzCo8xXH3/r/Y+1dqn29P/G3LSmX8qlIaACz/5g5cG/7k2Vxabw26pJ93S++tWzpkEAuGndzQR4J/RMbVxfdabS1gfPXLBu8NoE4KbXs3W1KjszSOL9d6Xupy7eYo/we/e/u+tMhZnW3kx/8sdTAAAKvmaGt83/f3vnE5y4lefxHz3JisxMIjKpHZGqnRL7r8Sc4AY32BPkBHOCG+wJ3/Cc8Nz6hnOCOeE5QU4mJ8jJysm0u7qsrtSU6Z3NGE/txupUZoy3pxecTgaxkdEe9AcBkhAgMO3+fQ4pdXh+eu+n937vva+efg/e8sK7adc/xF3vhV1/52gv6LMHTdWwjPk3ee0WJ9fPWoBbIjfLb6Y98b0dhv34QrMMDK8vHn168ejT3/1mN5Cvs2XjjwPH22+ZaNSsFALHttQdrKaVElrN1vi5/PajX/4WAIAgSI/H4/F4vP5wurwXj4bD/tmlkrO2XQbdNuSwqR06qrgK4BkvRPSFp+Np6y0nXa49XszYmkuPlz+Ox5pYB57oPtvsBv/tE7nQF2yzs7+n822ru+i7d/J2sLSDA1XQvxrwbFDpWAS+3dE8gl0NT/ehMjzvdPpg+jHyNk9ygtkk87EsqsHw6cO9ZraZdPgZ8fV0/NePboBgcvXWQXLNnkHocs3aQa3Z4p4+vwEAgmKCfp/X612uU63y7Docr117t7TlT7CBxnDnd1RZa5f3eDf4tG03UfttWZgR8tbrIe1Z7A7GU6e78FZNCRx2lavhTdZaVSG+89nzof5/D28unn5+8fTzT3776x06tntQ27eIHYIgCILMZ22S7ptKXzdpYgqn3ENbQS0nJkmrIX3bVKRSACDTcxJ/x43/8RO/qQyqRZV9Lz43Vof0bRO0ArxvKq1KNy3lajaQ7nIFEJrS9/IV7frAXJ7+VtVqLYtnFUj3u9Y4h583HvxrHMDtWGgFcwSu2VK1aDpu+tV/x54At0xu1jNfd3i/1YT0TvnR5OQNAG6e/fajqHDMHczuPh0HkCXDcbNSCFydVaTUsGlMAmi32uqNyUyDP4i7bfcrZ227DLbswHNt7W1NMKymErgmqxaeiqatNw8LbU7blUMF7Xxo2W2tL9aEHToHyd3+Q3ZvgU3Rnmi5nGr+6tMbAIBOi+vv6bTr1V303Th5R+2wehUEfVxG9+aDhdpiqSC2+qr0+32A10C0m8UXDZMfXyh+4YY9aHaTZmHKl6HP7sSzn10DGSmyzT07ITiXRuDZ8u7u/mcXNwBA0rFcaSebjIZVIaZ7EP3k0bVlDg6Xp98fdx7nZm7rZM2NYSvuqLDeLn8XothaWbuHtGGxzY+njnfhO1/3yWybqwQAALc/2+yEm+WH++Xm0+vptQHA8PnnH3/k50otdtee1RAEQRAD1i9EvWF4JsZot8dtDwdLcKOptAT8bN7BaC9Z9Yp0vW+2u08Xx/Zd6zAOUwUwiqig0JduzAPpLlUA6WVduSKSVluJv9cULQJMi6e742wg3aG2O40AT9T1YBN6LgDw6g5Ry6/++1zLlgDnbG4K3vh+i+fPGqV8KhagJ89puvjd7oFB3LBxANlw3GxCJ3B19lpJlDV9mS/wHTVoHxGORj2L9Ku1WGMhOpoeHTS1g/4jSV1wBl3hCfM/VmiP5V97gXH1sSZMQ16sE55rfd7kFozH6InvpJUgbkO+O/HHq7vou3HyjtrBgSro/7WN4ZMAYKKQgl3tYqIy27fG7POdTnd+XdwTkTiHLZZz7iH1ub1o8ncXQKcO2+xa9VyhXUsH/R/95rOLGyCYVOWU59mD3WT4TvfGbpGKu/nGsAXNb86d71+XXydbYK47GE+d7sJ3v+7bTlep4vYn9+pcVxhcnR0fVoq5VCxAk/oEN49+ndxht/CodARBkNeFN03SbR9kswft+emWxhf0add9GzNf5xF49crv+on1aM5JPfWV7Y/irp+ZTDAWDKSrLwD81CTPEQffmgfSXaYAvPTiqXL5gdmJZwAA8DdN1wi6zIpnfUdRm9H65lnYQYQOz6vX/qi5+qlKpHMC6Tqa2wTeYHK3XGfbvNC7PK7kQpT6w7M6y08n1geQNZMGBK7enK/oQr8vqDsAfEHDc9hMWaM1bNJvq3o0EzY7/U1oNdWwC4Q+7DA/Ufg5XV4VxwHIeDZuY03BsS11g/TdBdLtdhaUMsEdjkeVdwpThV7dRd+dk3fMDqtXwe31jdtpf63nZy8/auvLKNhULPq6dITXu02fgwrtctzr/cdf/vJDry9+0LYWyTwevSsY8k41VKFdTsY/fuYO5FmunjYOQ8m3Dg6aqx/8w9fS8X//9GIIAGSo2OLqO2vdDmyTyZY/+y37hth8Y9iK5jePe9bl1802mGvz46njXXiDVTAeDbfTVc7g9gaj6Z29gzrb5vuD3vlRKRVQpd3nn+zur3NtjiAIcr950yRdvlWvs/waJ+HeYJhWr6+7Mwd7rh1B0mIC/MhvGsdW5rv6OJDuh3tmW02tosoaFuBWzZQImgfSZQ0C6Y546a+sJC5VgL/VpVfyFe2ixnsPpe9Y6dtJtWGkPhML+9itsm+DOzqEvhbAlw7qJpCTtFmDYK8C32qynYm2uHhuUYvcTPD4ojsHrVYlokzaZgUpOwFkhVZNVXSjOkXXqhh2j4rW8nLUtsvQ73fVE8i0gArThWzV1eAQZHw3q5VSGH9DSPpNCy/TrjfVQLqBnT07im5b09z9UcNFQr/DNlvrdKkAAM/b7YW1TG2tORXOb3UXfXdO3jE7OFCFYDSo7cPnO+tsAcuP2r5wUHuj1LW50u53NWdwl28xDOAPdvY+l79cHT7/fHenxlulFtYiNvK1dPzXjyBSZLly1EzM6bIPdx+yq6r8nf3kzmey8yFj5TVHd1iEYDSs7TBb/CWLQ2y+MWxD85vP/erya2cbzHUH46nTXXiDVTAaDbfVVQps1uvNsiaewO3xx3fr7c5RhpFnEhfN+urvAREEQd5Q3jRJd/2E00ltbOdaNr8263c6XWcmwG6XplO+5bV8vIL0ZzVSwdupB78w33VoEVV2TllMP+uWXrWUK10gXenFzug8q26PXawA0suacvVO2jUWYTnpjx+NeFbSJ31Lne24zePtWt9Ry8HlWcwgTuEzU/2A5wyCvfbrO/FfZctmL8Bt5qZWeio3vpb2e1xub3ivZTyPdfuzu3F5+jxzDoUugGzULICswGqKbjw7PoNntlIej0eRmIgVTjFx1ra20da/vqDJsfECW1NDJtDZvfS4gu7xR39zzsgW2HJdqQKVemgrKOv4JGcqbBhror2f/OhXu3XeRl6rwNUX/ihPlbrpoH9SelrdRd+dk3fMDqtXwR1Nx1VNd6h15Hk58E6NdLZwh9NxVbEYdtp21otCh9OSBZNbdWYL3+Z1kQiHvLW8P7lZjPT7Vq9Kt5mN/vtnEKu02D0rJafT7oAvuFpoGoHdLz9TqktnH5oHYhWMwn50a3FvcM9em1wYdzSt7nyH68VfsjjD5hvDnTc/W9yvLr/eZa5DAAATeklEQVR2tsJcmx9PHe/Cd7nu215XKfS719ds3doc3nitvhsAgIkPzhAEQZDFuIeSrqZvGOwSEARh7Ue5hPceRpTJwg3btDO2d2vpYHDH7FXmovxUHdDfspxrCbXRC+W1Lvxz2VyatIoqa4TH9SN1qvS21yR9R7p+puapBdIV4H85o12xdgrQlq7VNFR2nObbujQE+GAyVq97nn3E5jg3ozu63llsrSr190d/5qT5Ca3xeFXFkvSaKZadek0xrC7Yq9BiuSExFSrAodz4cnrn04sbGF4/PaiZ6Zrqqb6zoqA+kK6JRNDXlEwyno1rJe03660hGU3q3hq4/Yvtze239nfKXB/Aadsug/aZqtdjfP9urdyU7UBlDh5OvCzxaZEarI+s5mv7dW0nR9ngAPLZjVX9VlN5qoRxIF2uVr8AJj6hxwtr+PJw2CobRWK2gG93rgEAqGhyuuCru+g7c/LO2WH1KniSezvqMnbuug0AAPr1bDC8a2SEdY3a7vjebkCpZoe1E4lY24sPZEK3F34bmHxTRUWTVgORwHf48b/IeDJqks5ub+23duPpTyBRbTV3rAN2t9nWtXtVDW8ckmdOEO++4SY7YR1eSMUT382qLb/NmrzLnCyO82XYeGNYyx2d5151+fWzFeba/HjqeBd2sgoLjobb7CoB4FqbRJoSzKYDAJZxmddcSARBkNee+yfpjoMkTZxqKtPtdmHtobK82fIuI19e1/brc+dInVr5c4gmHfrcy/VuVLkSLe7cHX21p8QW+Hn9wd+bW2SxQLoAAPCemswsksOLXel7+VJ3QNmIk25uwJOcFpftFEBgpYF8FXB9oK0zBOm6Dq6I6+99+rQuUpXDRoYzhL7037vSD5Z3/Gnc9bZck+5smIgppO/2R//5G+mFAy/B/WG1MCYtpVvf3VdURyKoqYwC12zdENFkdFLCcyQ3oa0d6kXFZ5QzlY68BGCyO+HpH+YH0uWaLQNFt1uvtYZUeieqL3wwHpb3mwznf0EotPfj8d/U6soSxlnbLoE3GJQXGMaB3YTWw/1HQwAAKlMrx6cfZVTZZ2M16+3Wd/fkLOhMvZ6e6vL91l7U+847Hm+0rIuR2G/WW8rz9fkNomb26/u152RsbzeoZbMf9b7z/ofvu33Jg46TOsbw2cNseQExk2/W2wAATHY3OlPw1V30nTl55+ywehXc4Yf7CeX71ef1/ea8TsfXyyxEk7PPY52jtn+3rKzdh4/KtXmWE9gDZSM7EXq4n165XzuKPxmlAYAgKTqUqjQP4lbF016XAQDQ6R2DKCsL9FahvR9PHvSTh61m1uQzApVus1y/AP+Km3RB1w7cHo/5LfkW99zo/wvrfHPvjj7cj8ktf8gezP1Goc+x80SNhdl8Y3D6jmvjHnX5TbAN5tr8eOp4F3auCouOhlvtKgHgef1gnvauHBXnMwwctr5ZJYIgyH1CssdRRo08FCiem6YaNBLqDk06d2qR3VUlohYgULq0WQabnObUl6904Wzyp14jQRKJw57h3zla+HMtfiiValxZFfe8FCKIwHRJV+Hs9gsQT0A8Cd0ODRMMRt+ExBMQT0B8VhrdWuU1eplRUj5O3P5g7/7fF5U/OauMZjN8VRQfg5LghLn9Xn8jQuxO20pfANOi3uSUNF8UxnccVsXHIHaOZsqg2udJaibDweibiFo2qyqP/osRT0A8IW9fDkzKJEmSNOoVxCcgPk3dWqWyzXlR/joJQpXZJjU4K4a00JbAFNReOjjKUEDEqjN/4UhuRykSgAykio1zsyr2jjKU3A+m+924IzGm7b9XjclJ9P12cJqngQiVZjzRWV6eU5OZIyuL944LIRKATh1eqv/LWdsuweA4QwEAUJljg/Lm5HoRocKpUcXOCox56SVJkgbnJaUGVKR0NpvF2GkCM3bwV5WIVu3QrKvrHWUmH8PgOKfF5QMgrIaKBRiPPQSTOzJ23rNFS1Fg3OpUVnfRG3by67DD6lXoHWXUpjMni6vDBEUwxg146VHb1sxkcFpQ9qGRseqlRRF7p3klqh+VMEt4p5Oc81KIADpj2qg1eo3U+EBxKmH0Bwv01vNqjAIAgmICxjAMwzA0TVOk+rVDytID2+CyFNLKFjFxa5I0OM0zJKlWdTyOnBcDBjVy9NldNVK0vYbfSOkMzTjjFaW7aAxO3nFJ7K1EnO3yp5ptzCcqTmG7iQ4OY4StUvWq47ZsZjJHzSUtabHNL5oc78IOVWHB0XAdrtJuR9Mnu5z5tXcYs3Qo41qlSLM7rWdWiSAIcu+wKenqZrhU7th0rq4fWkzXYJIkSad5TUGgc8ZrvOXR9I3pvC8rEYI0nV46XHhFNgIAIpA/MhNaqgmaICOz2tRKjGXQr85mBM3B6C8x5dcvq9Z6riRJo68YC33WhKvbL0nxBMTHsSlJdPSqIp6C+PuUOC06926/JMUnqdGMhDouwDPzAmgi8pcNNU1v1KHFJwlDUVu1Dyn+j+653F6O/hQQTwjxCcyv8rBxewriCYh/ODRO88PZ7Z9C4gmIZ/mRY+376lDeE0fEptrn4KwSo4AIpBLT0l7vMEECaSjoOJFb7zBBGoqralaX1QRlokGNFy9UxtSnDBopYnppcF6KEMDkjbqeOvUmY4fGXa53Vs2FKAAylG9cTvylo7ZdhvNigDDwKQN1mWAl5GnCGlOYFWzlGgAAUImqofSuCeegs2vvKEUBwQTkJdzMMzqvxiggIxXdo7+saC5UdqMNJ5q+tmggSRKAjpVO5xh8cK7Ul85YKp+ru+iNOvn12GH1KgzOqwkK5mRx2cgwBBEwEXSlpUdtmzMT6aqRk9sxEciZFLF3VlK7SaRkPim540nOeSlCAmlqZ5nBcZ7RChnIHxuW0m5vHeseC+DAwrunk1FMBJKroxxDRirH6iMhQpVL+YdKhKBm3+s5/OwGWoshI8Uz4+yujvMBgqBprSoOvQKUJOkuGoNzd1wOfX+f89bAsS5/VdXEU3NH5BS2m+jYYQKZshhoBxNt2dxFOuchl7fY5hdNjndhZ6qw4Gi4Bldpc2DVJzOYxauSrvXsVXmhYDJNWc+sEkEQ5N5hKeleHlWKxWIhn4kxpM6nUoFELl8oFg8V8eDyqFQsFgv5VIQmdMnIQCyTLxSLxcqxPMQMzg5LxWKxkEuFqKmEqUwuXyhU561RbTJ+5Qx06lDWMAZXR7kAMSs+rbPwg/PDTEC2HBnKlI7Oxyl650fVfIwmgIoZbZpb2QLqblNa/MtY1R0Njm6/ZMQTEB8zt9+c2pBor26fgaYOL3B/TfEcb5Ltjbop8TGIz4qjH6TR/yTEExBPqNveQJKk0YuUeEKIX8/OcHQFMPhVQ914+6UssPZGX0fEx/TtC9MX1oqu/Thw+5ej0c3pqFu4/YIUnzC33aPbM1tVHvXy4mMQT0jx6wlLjr4/vv0qJT4B8TEtfn1sWwe3hypZ0hltttg7q6YYAqhI8bSnCZPKLOyqkaKACJktr53I7fIwQQFQkfzh+ZQUenlcyQRIMF0Aajs5LJcu6n4fOn8m59rIMAQZKpr1mt5xPkDIM/SJHtk7P64WUgESgKBjxWODAjlr2yUYnBUCBAARKKglH1w28iEKAAg6UTFZcGh/XJKV34mUg8ujYoIhAIBgUhYaoLJJmc6oOnfvtBghgYxUztUNvmSkosrBg/PDXIAEMlSYylG3zAQgIsqiYUUUKZPOHfeujgohEoBkEoXD0yujFjA4b+RDJAAQdOrwcq5nXd1Fb87Jr80ODlTh6rgQUXozFcpVji/1WTSKmRAFZCBvKbAvNmrbmplM3eCskpJFCzKQKTV0tRxcHsu1BIN3Peodt2aSMzgrRSj12wiDzOSuq9w2ZCG+2emtuqeyCISVyGSb3mkxpNUkkKnqPeDVaTUXokhZMBxvFScDqUKxkAqQukaz1md32cgFlDduqdKxvqcNrk6ruRAJVKRwfDZWPgAIKpDI5AuFogMT3o02BmfvuAAm/Z2gQ4lcPl8oFoulhtE4vEqXvzo2vicVSmSUexr7meUqaK+JSucNtYlOJUzICasGbRkmczRvyyt5SIcsdgeLJqe7sBNVWGQ0lCQHXaXNJb9xslAiJz9m1SqqpEtHEgGSoGMzLmNweVzNBEizr8ckSVrTrBJBEOTeYSnpHmVIAIIgSJIkKYqiaZqmKIokSZIgiPEnHo0UoU9Gycm0dEDn5e+HrioRAoiZ/Cg5HeHoJxW9s6o6qgJB0jRJmEhLay987+wwH2PU7xEJimYYmiQAgKAjuaq1TLMKg9HLgviUEE9AfBoQ/xATv6DEExCfMOKfSqOBzQnR+e3v5RAEIS1Cgu37N27PKPEExKch8Q8R8ZQQnzC3Y4lzMPo6opTnjBZPCPGPhttddQWwLPLoVUV8SognpPgsJj4lxSeh2xeX1gUcvTq87cTELyjxMSl+Ebr9qjoaStIPh2pcCEVutsyhentGji38LCCeyv+M3H7TGBlHvVgZVeUj6VAsFglQBJBMaqxRDk6LEQoASCYSogkgGF10gTXldnVcyUUoAoCkQ5FYIhGLhAIMSQCQdCRTOTVZ0w3UXYdUyvor8qujvKzEhmKRAEUQdGLO/sTeWTWnyFmBSCwWiwQYSv5nJFNqnFmsMZ217RL0josxigAgmUgsEqJJUHQ7W35icHlUkJddJB2IxGIhhiIAgGRiudLRPHnz8jDDEAAExUS0mleVSXbvtBSjCQCCCkRiEYYigKAj+YZBloPzw0yIJgmSiTmzmJeUYWi8g+PquJSRJReCYkKxRCqTLxRLpZJunUsGUpUF1JLVXfRGnPx67bB6FQbnjUIiQBnkQAVSRTutwfaobXNmYsDVaTWnrUMJimbkuyir9IJp/Jgtm+T0TuXXZUDQoVgmX6wcNo6OGtVSYVw5kknMM7qN3nqWX3yHLjiySVfh6rSa1/QrgmJCkVgsFKBJgqBjusc1OKskNJGLDEy8vtrUHE9pRaFYLBYLBWgCCDqSkcW4q2pkfVbaWGNw+I72Ufs7MX6C+kdIGHxcM2bJLn+co+bd08LPLIjdJto7jFk3UUZ+872CH1rWQzppsc0vmhzvwk5MKmyOhioOuEqbA6txsnHj0qJ0DQ4TBJCR0vlAki4bhRhNAEEygVAskUjEIgGaBACCCmUqRnssNNYxq0QQBLl3uCRJsjVHfx0Rum2O63R4vi+4vcF4Mu6/u6MPBJ5rcR2+2+UFt8/r9QWj0aDl8fQO3Vb6lpW+50EQ4Mc+F+GH94KuRY7Ek4SW9LLjItOuny5hO0H6lpVedWDkgZ8EXe+Fp44+k4SW1GvDyO16Nw7v+VymBWjDu+kH7807H2fESy9ZSRDgnaDLE50+Zs0e0v9mR19+AgDgSrjCzQc2MpH+xko3HRAEcPtchA9+7Ae3x7AuziF0OZblOl3B4wsGw+Gwb/LhCHyrybZ5we0Px+Nhg2Ot1pFbv8NxHZ7nebmFe33BaNS6w/W5Wq0l+JPZ+JwDdwD6bbbJtbuCNxiN2+w4/Q7Ltjo8L7h9Pp/P5/P7/T6LoyM0nLXtMnTbLNtqdwW31+8PBqPBxW4i8BzbavNdXnD7fT6fPxy27WgEvtVstfkueHzBaHzq6fXbLMt1+D54ff5wfIO+tL3rT/bL7drEaTz9TrNea7Jcu93uPL8ZAgAQJOXzh+PpbDabDC7jrVZ20et18huxgwNG6LZbrbaWg9cfjIYXaSwbGbX7PMcp1QSvx+fzL9JNtgWhyzXr9Sbb4jjds/f6g9FoMp1N3+V0x3HkVsF3u92+4PH5/f5gMOibrp/Q7bT5vscX9N/Jo+zzXIvryEX0+n3+4HjwENr1cqvr8Xi9HvU/Ho/Ha2c8ssnmG8Nr1vzuRZffHNtgrs0vmhzvwqtWYYnRcKtcJc8ecL5sWpvgC3yba3c6PM8L4PXIswPshQiCIE5wryVdBFkQ6dI/+uYCAODdyoPgzpqVWQRBnEAQwI3rArTDmww+e0Rj840Bmx+CIAiCIMjdsMiOTQS55/DSzYVySYZRz0WQ1wMUE2TQDm8u+OwRjc03Bmx+CIIgCIIgdwNKugii8n+s9J18Rbs+CN5tWRAEQRAEQRAEQRAEQRDEEJR0kTeGUVf6a23U581CjUgvaiD/9k7a9d7myoUgCIIgCIIgCIIgCIIg9lnqDCkEef3ojP4jKL0aAhDSv3R+9KFv+nehNnr+FAAAaNc/7WHUBQRBEARBEARBEARBEGQ7wV26yJtBvyy9GgIAwBCE/vSvIjf64w7cAgAJvqbrZ9t1WDOCIAiCIAiCIAiCIAiCaKCki7xhvJ1wfTgRJ1f6W330H1Hp+yG4aPiX1oNfBHGLLoIgCIIgCIIgCIIgCLK1uCTJLLIogtwn+NF5VPrrc3gn5no/CG4vPHDDiIceK/WeAZDwftb1T/sPfoznNiMIgiAIgiAIgiAIgiBbDUq6yJuDIPWb0ktWGnRB7MNIgLe88LbP5Ym73o+73CjmIgiCIAiCIAiCIAiCIK8BKOkiCIIgCIIgCIIgCIIgCIK8NmAsXQRBEARBEARBEARBEARBkNcGlHQRBEEQBEEQBEEQBEEQBEFeG1DSRRAEQRAEQRAEQRAEQRAEeW1ASRdBEARBEARBEARBEARBEOS1ASVdBEEQBEEQBEEQBEEQBEGQ14b/B6Ox22joQH1lAAAAAElFTkSuQmCC;" vertex="1" parent="1">
          <mxGeometry x="-790" y="-2190" width="1568.54" height="620" as="geometry" />
        </mxCell>
        <mxCell id="FKmK5cy7EwWSkl35_AoC-3" value="720, 128, 256" style="rounded=1;whiteSpace=wrap;html=1;" vertex="1" parent="1">
          <mxGeometry x="-750" y="-2310" width="120" height="60" as="geometry" />
        </mxCell>
        <mxCell id="FKmK5cy7EwWSkl35_AoC-4" value="512, 128, 256" style="rounded=1;whiteSpace=wrap;html=1;" vertex="1" parent="1">
          <mxGeometry x="-480" y="-2310" width="120" height="60" as="geometry" />
        </mxCell>
        <mxCell id="FKmK5cy7EwWSkl35_AoC-5" value="19, 128, 256" style="rounded=1;whiteSpace=wrap;html=1;" vertex="1" parent="1">
          <mxGeometry x="-480" y="-1780" width="120" height="60" as="geometry" />
        </mxCell>
        <mxCell id="FKmK5cy7EwWSkl35_AoC-6" value="512, 19" style="rounded=1;whiteSpace=wrap;html=1;" vertex="1" parent="1">
          <mxGeometry x="-80" y="-1780" width="120" height="60" as="geometry" />
        </mxCell>
        <mxCell id="FKmK5cy7EwWSkl35_AoC-7" value="128*256, 19" style="rounded=1;whiteSpace=wrap;html=1;" vertex="1" parent="1">
          <mxGeometry x="100" y="-2310" width="120" height="60" as="geometry" />
        </mxCell>
        <mxCell id="FKmK5cy7EwWSkl35_AoC-8" value="256,128,256" style="rounded=1;whiteSpace=wrap;html=1;" vertex="1" parent="1">
          <mxGeometry x="240" y="-2030" width="120" height="60" as="geometry" />
        </mxCell>
        <mxCell id="FKmK5cy7EwWSkl35_AoC-9" value="256, 19" style="rounded=1;whiteSpace=wrap;html=1;" vertex="1" parent="1">
          <mxGeometry x="70" y="-1970" width="120" height="60" as="geometry" />
        </mxCell>
        <mxCell id="FKmK5cy7EwWSkl35_AoC-10" value="512,128,256" style="rounded=1;whiteSpace=wrap;html=1;" vertex="1" parent="1">
          <mxGeometry x="360" y="-1960" width="120" height="60" as="geometry" />
        </mxCell>
        <mxCell id="FKmK5cy7EwWSkl35_AoC-12" value="1024, 128,256" style="rounded=1;whiteSpace=wrap;html=1;" vertex="1" parent="1">
          <mxGeometry x="460" y="-2030" width="120" height="60" as="geometry" />
        </mxCell>
        <mxCell id="FKmK5cy7EwWSkl35_AoC-13" value="19, 128,256" style="rounded=1;whiteSpace=wrap;html=1;" vertex="1" parent="1">
          <mxGeometry x="690" y="-2040" width="120" height="60" as="geometry" />
        </mxCell>
      </root>
    </mxGraphModel>
  </diagram>
</mxfile>
